<mxfile host="65bd71144e">
    <diagram id="5QGThU38XxY-89_t5WLU" name="1-Base Design">
        <mxGraphModel dx="552" dy="763" grid="1" gridSize="10" guides="1" tooltips="1" connect="1" arrows="1" fold="1" page="1" pageScale="1" pageWidth="850" pageHeight="1100" math="0" shadow="0">
            <root>
                <mxCell id="0"/>
                <mxCell id="1" parent="0"/>
                <mxCell id="5" value="HDFC Mutual&lt;br&gt;Fund" style="rounded=1;whiteSpace=wrap;html=1;" vertex="1" parent="1">
                    <mxGeometry x="190" y="135" width="120" height="60" as="geometry"/>
                </mxCell>
                <mxCell id="6" value="Tata Moters" style="rounded=1;whiteSpace=wrap;html=1;" vertex="1" parent="1">
                    <mxGeometry x="401" y="30" width="100" height="40" as="geometry"/>
                </mxCell>
                <mxCell id="7" value="Reliance" style="rounded=1;whiteSpace=wrap;html=1;" vertex="1" parent="1">
                    <mxGeometry x="400" y="90" width="100" height="40" as="geometry"/>
                </mxCell>
                <mxCell id="8" value="Infosys" style="rounded=1;whiteSpace=wrap;html=1;" vertex="1" parent="1">
                    <mxGeometry x="401" y="150" width="100" height="40" as="geometry"/>
                </mxCell>
                <mxCell id="9" value="SBI Bank" style="rounded=1;whiteSpace=wrap;html=1;" vertex="1" parent="1">
                    <mxGeometry x="401" y="210" width="100" height="40" as="geometry"/>
                </mxCell>
                <mxCell id="10" value=". . ." style="rounded=1;whiteSpace=wrap;html=1;" vertex="1" parent="1">
                    <mxGeometry x="401" y="300" width="100" height="40" as="geometry"/>
                </mxCell>
                <mxCell id="11" value="" style="endArrow=classic;html=1;entryX=0;entryY=0.5;entryDx=0;entryDy=0;exitX=1;exitY=0.5;exitDx=0;exitDy=0;" edge="1" parent="1" source="5" target="6">
                    <mxGeometry width="50" height="50" relative="1" as="geometry">
                        <mxPoint x="310" y="160" as="sourcePoint"/>
                        <mxPoint x="360" y="110" as="targetPoint"/>
                    </mxGeometry>
                </mxCell>
                <mxCell id="12" value="" style="endArrow=classic;html=1;entryX=0;entryY=0.5;entryDx=0;entryDy=0;exitX=1;exitY=0.5;exitDx=0;exitDy=0;" edge="1" parent="1" source="5" target="7">
                    <mxGeometry width="50" height="50" relative="1" as="geometry">
                        <mxPoint x="320" y="175" as="sourcePoint"/>
                        <mxPoint x="411" y="60" as="targetPoint"/>
                    </mxGeometry>
                </mxCell>
                <mxCell id="13" value="" style="endArrow=classic;html=1;entryX=0;entryY=0.5;entryDx=0;entryDy=0;exitX=1;exitY=0.5;exitDx=0;exitDy=0;" edge="1" parent="1" source="5" target="8">
                    <mxGeometry width="50" height="50" relative="1" as="geometry">
                        <mxPoint x="320" y="175" as="sourcePoint"/>
                        <mxPoint x="410" y="120" as="targetPoint"/>
                    </mxGeometry>
                </mxCell>
                <mxCell id="15" value="" style="endArrow=classic;html=1;entryX=0;entryY=0.5;entryDx=0;entryDy=0;exitX=1;exitY=0.5;exitDx=0;exitDy=0;" edge="1" parent="1" source="5" target="9">
                    <mxGeometry width="50" height="50" relative="1" as="geometry">
                        <mxPoint x="320" y="175" as="sourcePoint"/>
                        <mxPoint x="411" y="180" as="targetPoint"/>
                    </mxGeometry>
                </mxCell>
                <mxCell id="16" value="" style="endArrow=classic;html=1;entryX=0;entryY=0.75;entryDx=0;entryDy=0;exitX=1;exitY=0.5;exitDx=0;exitDy=0;" edge="1" parent="1" source="5" target="10">
                    <mxGeometry width="50" height="50" relative="1" as="geometry">
                        <mxPoint x="320" y="175" as="sourcePoint"/>
                        <mxPoint x="411" y="240" as="targetPoint"/>
                    </mxGeometry>
                </mxCell>
                <mxCell id="17" value="" style="endArrow=classic;html=1;entryX=0;entryY=0.5;entryDx=0;entryDy=0;exitX=1.022;exitY=0.542;exitDx=0;exitDy=0;exitPerimeter=0;" edge="1" parent="1" source="18" target="5">
                    <mxGeometry width="50" height="50" relative="1" as="geometry">
                        <mxPoint x="120" y="160" as="sourcePoint"/>
                        <mxPoint x="411" y="60" as="targetPoint"/>
                    </mxGeometry>
                </mxCell>
                <mxCell id="18" value="" style="rounded=0;whiteSpace=wrap;html=1;" vertex="1" parent="1">
                    <mxGeometry x="40" y="54" width="90" height="206" as="geometry"/>
                </mxCell>
                <mxCell id="2" value="" style="verticalLabelPosition=bottom;html=1;verticalAlign=top;align=center;strokeColor=none;fillColor=#00BEF2;shape=mxgraph.azure.user;" vertex="1" parent="1">
                    <mxGeometry x="60" y="130" width="47.5" height="50" as="geometry"/>
                </mxCell>
                <mxCell id="3" value="" style="verticalLabelPosition=bottom;html=1;verticalAlign=top;align=center;strokeColor=none;fillColor=#00BEF2;shape=mxgraph.azure.user;" vertex="1" parent="1">
                    <mxGeometry x="60" y="190" width="47.5" height="50" as="geometry"/>
                </mxCell>
                <mxCell id="4" value="" style="verticalLabelPosition=bottom;html=1;verticalAlign=top;align=center;strokeColor=none;fillColor=#00BEF2;shape=mxgraph.azure.user;" vertex="1" parent="1">
                    <mxGeometry x="60" y="70" width="47.5" height="50" as="geometry"/>
                </mxCell>
                <mxCell id="19" value="Architecture for this Usecase" style="text;html=1;strokeColor=none;fillColor=none;align=center;verticalAlign=middle;whiteSpace=wrap;rounded=0;fontStyle=4" vertex="1" parent="1">
                    <mxGeometry x="250" y="410" width="180" height="30" as="geometry"/>
                </mxCell>
                <mxCell id="20" value="" style="strokeWidth=2;html=1;shape=mxgraph.flowchart.database;whiteSpace=wrap;" vertex="1" parent="1">
                    <mxGeometry x="111" y="670" width="60" height="60" as="geometry"/>
                </mxCell>
                <mxCell id="21" value="ChatGPT Like&amp;nbsp;&lt;br&gt;Chatbot" style="rounded=1;whiteSpace=wrap;html=1;" vertex="1" parent="1">
                    <mxGeometry x="281" y="670" width="120" height="60" as="geometry"/>
                </mxCell>
                <mxCell id="22" value="" style="endArrow=classic;html=1;entryX=0;entryY=0.5;entryDx=0;entryDy=0;" edge="1" parent="1" source="20" target="21">
                    <mxGeometry width="50" height="50" relative="1" as="geometry">
                        <mxPoint x="132.98000000000002" y="255.65200000000004" as="sourcePoint"/>
                        <mxPoint x="191" y="255" as="targetPoint"/>
                    </mxGeometry>
                </mxCell>
                <mxCell id="23" value="Web Scrapper" style="rounded=1;whiteSpace=wrap;html=1;" vertex="1" parent="1">
                    <mxGeometry x="81" y="560" width="120" height="60" as="geometry"/>
                </mxCell>
                <mxCell id="24" value="" style="endArrow=classic;html=1;entryX=0.5;entryY=0;entryDx=0;entryDy=0;exitX=0.5;exitY=1;exitDx=0;exitDy=0;entryPerimeter=0;" edge="1" parent="1" source="23" target="20">
                    <mxGeometry width="50" height="50" relative="1" as="geometry">
                        <mxPoint x="132.98000000000002" y="255.65200000000004" as="sourcePoint"/>
                        <mxPoint x="191" y="255" as="targetPoint"/>
                    </mxGeometry>
                </mxCell>
                <mxCell id="26" value="" style="shape=image;verticalLabelPosition=bottom;labelBackgroundColor=default;verticalAlign=top;aspect=fixed;imageAspect=0;image=data:image/jpeg,/9j/4AAQSkZJRgABAgAAZABkAAD/7AARRHVja3kAAQAEAAAAOAAA/+IMWElDQ19QUk9GSUxFAAEBAAAMSExpbm8CEAAAbW50clJHQiBYWVogB84AAgAJAAYAMQAAYWNzcE1TRlQAAAAASUVDIHNSR0IAAAAAAAAAAAAAAAEAAPbWAAEAAAAA0y1IUCAgAAAAAAAAAAAAAAAAAAAAAAAAAAAAAAAAAAAAAAAAAAAAAAAAAAAAAAAAAAAAAAARY3BydAAAAVAAAAAzZGVzYwAAAYQAAABsd3RwdAAAAfAAAAAUYmtwdAAAAgQAAAAUclhZWgAAAhgAAAAUZ1hZWgAAAiwAAAAUYlhZWgAAAkAAAAAUZG1uZAAAAlQAAABwZG1kZAAAAsQAAACIdnVlZAAAA0wAAACGdmlldwAAA9QAAAAkbHVtaQAAA/gAAAAUbWVhcwAABAwAAAAkdGVjaAAABDAAAAAMclRSQwAABDwAAAgMZ1RSQwAABDwAAAgMYlRSQwAABDwAAAgMdGV4dAAAAABDb3B5cmlnaHQgKGMpIDE5OTggSGV3bGV0dC1QYWNrYXJkIENvbXBhbnkAAGRlc2MAAAAAAAAAEnNSR0IgSUVDNjE5NjYtMi4xAAAAAAAAAAAAAAASc1JHQiBJRUM2MTk2Ni0yLjEAAAAAAAAAAAAAAAAAAAAAAAAAAAAAAAAAAAAAAAAAAAAAAAAAAAAAAAAAAAAAAAAAAFhZWiAAAAAAAADzUQABAAAAARbMWFlaIAAAAAAAAAAAAAAAAAAAAABYWVogAAAAAAAAb6IAADj1AAADkFhZWiAAAAAAAABimQAAt4UAABjaWFlaIAAAAAAAACSgAAAPhAAAts9kZXNjAAAAAAAAABZJRUMgaHR0cDovL3d3dy5pZWMuY2gAAAAAAAAAAAAAABZJRUMgaHR0cDovL3d3dy5pZWMuY2gAAAAAAAAAAAAAAAAAAAAAAAAAAAAAAAAAAAAAAAAAAAAAAAAAAAAAAAAAAAAAZGVzYwAAAAAAAAAuSUVDIDYxOTY2LTIuMSBEZWZhdWx0IFJHQiBjb2xvdXIgc3BhY2UgLSBzUkdCAAAAAAAAAAAAAAAuSUVDIDYxOTY2LTIuMSBEZWZhdWx0IFJHQiBjb2xvdXIgc3BhY2UgLSBzUkdCAAAAAAAAAAAAAAAAAAAAAAAAAAAAAGRlc2MAAAAAAAAALFJlZmVyZW5jZSBWaWV3aW5nIENvbmRpdGlvbiBpbiBJRUM2MTk2Ni0yLjEAAAAAAAAAAAAAACxSZWZlcmVuY2UgVmlld2luZyBDb25kaXRpb24gaW4gSUVDNjE5NjYtMi4xAAAAAAAAAAAAAAAAAAAAAAAAAAAAAAAAAAB2aWV3AAAAAAATpP4AFF8uABDPFAAD7cwABBMLAANcngAAAAFYWVogAAAAAABMCVYAUAAAAFcf521lYXMAAAAAAAAAAQAAAAAAAAAAAAAAAAAAAAAAAAKPAAAAAnNpZyAAAAAAQ1JUIGN1cnYAAAAAAAAEAAAAAAUACgAPABQAGQAeACMAKAAtADIANwA7AEAARQBKAE8AVABZAF4AYwBoAG0AcgB3AHwAgQCGAIsAkACVAJoAnwCkAKkArgCyALcAvADBAMYAywDQANUA2wDgAOUA6wDwAPYA+wEBAQcBDQETARkBHwElASsBMgE4AT4BRQFMAVIBWQFgAWcBbgF1AXwBgwGLAZIBmgGhAakBsQG5AcEByQHRAdkB4QHpAfIB+gIDAgwCFAIdAiYCLwI4AkECSwJUAl0CZwJxAnoChAKOApgCogKsArYCwQLLAtUC4ALrAvUDAAMLAxYDIQMtAzgDQwNPA1oDZgNyA34DigOWA6IDrgO6A8cD0wPgA+wD+QQGBBMEIAQtBDsESARVBGMEcQR+BIwEmgSoBLYExATTBOEE8AT+BQ0FHAUrBToFSQVYBWcFdwWGBZYFpgW1BcUF1QXlBfYGBgYWBicGNwZIBlkGagZ7BowGnQavBsAG0QbjBvUHBwcZBysHPQdPB2EHdAeGB5kHrAe/B9IH5Qf4CAsIHwgyCEYIWghuCIIIlgiqCL4I0gjnCPsJEAklCToJTwlkCXkJjwmkCboJzwnlCfsKEQonCj0KVApqCoEKmAquCsUK3ArzCwsLIgs5C1ELaQuAC5gLsAvIC+EL+QwSDCoMQwxcDHUMjgynDMAM2QzzDQ0NJg1ADVoNdA2ODakNww3eDfgOEw4uDkkOZA5/DpsOtg7SDu4PCQ8lD0EPXg96D5YPsw/PD+wQCRAmEEMQYRB+EJsQuRDXEPURExExEU8RbRGMEaoRyRHoEgcSJhJFEmQShBKjEsMS4xMDEyMTQxNjE4MTpBPFE+UUBhQnFEkUahSLFK0UzhTwFRIVNBVWFXgVmxW9FeAWAxYmFkkWbBaPFrIW1hb6Fx0XQRdlF4kXrhfSF/cYGxhAGGUYihivGNUY+hkgGUUZaxmRGbcZ3RoEGioaURp3Gp4axRrsGxQbOxtjG4obshvaHAIcKhxSHHscoxzMHPUdHh1HHXAdmR3DHeweFh5AHmoelB6+HukfEx8+H2kflB+/H+ogFSBBIGwgmCDEIPAhHCFIIXUhoSHOIfsiJyJVIoIiryLdIwojOCNmI5QjwiPwJB8kTSR8JKsk2iUJJTglaCWXJccl9yYnJlcmhya3JugnGCdJJ3onqyfcKA0oPyhxKKIo1CkGKTgpaymdKdAqAio1KmgqmyrPKwIrNitpK50r0SwFLDksbiyiLNctDC1BLXYtqy3hLhYuTC6CLrcu7i8kL1ovkS/HL/4wNTBsMKQw2zESMUoxgjG6MfIyKjJjMpsy1DMNM0YzfzO4M/E0KzRlNJ402DUTNU01hzXCNf02NzZyNq426TckN2A3nDfXOBQ4UDiMOMg5BTlCOX85vDn5OjY6dDqyOu87LTtrO6o76DwnPGU8pDzjPSI9YT2hPeA+ID5gPqA+4D8hP2E/oj/iQCNAZECmQOdBKUFqQaxB7kIwQnJCtUL3QzpDfUPARANER0SKRM5FEkVVRZpF3kYiRmdGq0bwRzVHe0fASAVIS0iRSNdJHUljSalJ8Eo3Sn1KxEsMS1NLmkviTCpMcky6TQJNSk2TTdxOJU5uTrdPAE9JT5NP3VAnUHFQu1EGUVBRm1HmUjFSfFLHUxNTX1OqU/ZUQlSPVNtVKFV1VcJWD1ZcVqlW91dEV5JX4FgvWH1Yy1kaWWlZuFoHWlZaplr1W0VblVvlXDVchlzWXSddeF3JXhpebF69Xw9fYV+zYAVgV2CqYPxhT2GiYfViSWKcYvBjQ2OXY+tkQGSUZOllPWWSZedmPWaSZuhnPWeTZ+loP2iWaOxpQ2maafFqSGqfavdrT2una/9sV2yvbQhtYG25bhJua27Ebx5veG/RcCtwhnDgcTpxlXHwcktypnMBc11zuHQUdHB0zHUodYV14XY+dpt2+HdWd7N4EXhueMx5KnmJeed6RnqlewR7Y3vCfCF8gXzhfUF9oX4BfmJ+wn8jf4R/5YBHgKiBCoFrgc2CMIKSgvSDV4O6hB2EgITjhUeFq4YOhnKG14c7h5+IBIhpiM6JM4mZif6KZIrKizCLlov8jGOMyo0xjZiN/45mjs6PNo+ekAaQbpDWkT+RqJIRknqS45NNk7aUIJSKlPSVX5XJljSWn5cKl3WX4JhMmLiZJJmQmfyaaJrVm0Kbr5wcnImc951kndKeQJ6unx2fi5/6oGmg2KFHobaiJqKWowajdqPmpFakx6U4pammGqaLpv2nbqfgqFKoxKk3qamqHKqPqwKrdavprFys0K1ErbiuLa6hrxavi7AAsHWw6rFgsdayS7LCszizrrQltJy1E7WKtgG2ebbwt2i34LhZuNG5SrnCuju6tbsuu6e8IbybvRW9j74KvoS+/796v/XAcMDswWfB48JfwtvDWMPUxFHEzsVLxcjGRsbDx0HHv8g9yLzJOsm5yjjKt8s2y7bMNcy1zTXNtc42zrbPN8+40DnQutE80b7SP9LB00TTxtRJ1MvVTtXR1lXW2Ndc1+DYZNjo2WzZ8dp22vvbgNwF3IrdEN2W3hzeot8p36/gNuC94UThzOJT4tvjY+Pr5HPk/OWE5g3mlucf56noMui86Ubp0Opb6uXrcOv77IbtEe2c7ijutO9A78zwWPDl8XLx//KM8xnzp/Q09ML1UPXe9m32+/eK+Bn4qPk4+cf6V/rn+3f8B/yY/Sn9uv5L/tz/bf///+4ADkFkb2JlAGTAAAAAAf/bAIQABwUFBQUFBwUFBwoHBgcKDAkHBwkMDgsLDAsLDhEMDAwMDAwRDhAREREQDhUVFxcVFR4eHh4eIiIiIiIiIiIiIgEHCAgODQ4aEhIaHRcUFx0iIiIiIiIiIiIiIiIiIiIiIiIiIiIiIiIiIiIiIiIiIiIiIiIiIiIiIiIiIiIiIiIi/8AAEQgBDgLuAwERAAIRAQMRAf/EAL0AAQACAgMBAAAAAAAAAAAAAAAGBwUIAQIEAwEBAAIDAQEAAAAAAAAAAAAAAAUGAQMEAgcQAAEDAwAEBQ4KBggFAgYDAAEAAgMRBAUhEgYHMUFRcRNhkbEiMnKSsjNzsxQ1NoGh0cIj03SUVRfBQlJiUzSCooOTw4QVCOHSQyQWY0TxVGS0JTdFdSYRAQACAQIEBAUEAwEBAQADAAABAgMRBDFREgUhcTIzQWFSExWBImIUQnI0I5HwseEk/9oADAMBAAIRAxEAPwDZFAQEBAQEBAQEBAQEBAQKhAqgICAgICAgICAgICAgICAgICAgICAgICAgICAgICAgICAgICAgICAgICAgICAgICAgICAgICAgICAgICAgICAgICAgICAgICAgICAgICAgICAgICAgICDiqD4XF9Z2ordTxwilfpHtbo+Erxa8Rxl5m0c2HududlraofkI3kcUQdJ4gIWi27xR8Wq24pHxYqfejs+wHoY7iYjgowNB+FxXPbuOOGm28pDwyb2bUD6HGyk/vyNA+IFabdzr8IeJ30cnmfvZnr2mMZT96Y1+Ji8T3T5PM775Pn+bF7+HRfBI7/lXn8nbk8/3p5OW72Lsd1jIzzSuHzSs/lJ5M/3vk+8e9oV+mxhpx6ktey0L1+Tjk9f3vk9kO9bEO8vZXEXNqv8A0hbY7nTlL3G9ryZCDeTsvN3c0sHnInfN1lvjf4p+L3G7pLKWm1Wzt6R6vkYCXaQ1zww9Z1FuruMduEt0Zqz8WVjmjlbrRPa9p/WaQR8S3RaJbNXaq9MuUBAQEBAQEBAQEBAQEBAQEBAQEBAQEBBxU8iBU8iBU8iBU8iBU8iBU8iBU8iBU8iBU8iBU8iBU8iBU8iBU8iBU8iBU8iBU8iBU8iBU8iBU8iBU8iBU8iBU8iBU8iBU8iBU8iBU8iBU8iBU8iBU8iBU8iBU8iBU8iBU8iBU8iBU8iBU8iBU8iBU8iBU8iBU8iBU8iBU8iBU8iBU8iBU8iDlAQEBAQEBAQcErA+F3fWdhEZ72eO3iHC+RwaPjXm1614zoxNojiimT3mYG01mWIkvpBxsGpH4bvkXDk7hSvDxcd95SvDxRTI7zM9dktsmxWUekdqOkf4TtHxKOydyvPDwcl97aeHgjV9mcrkiTf3k04P6rnkN8FtG/EuK2e9uMua2W08ZeKgNK1NOCpr2Vqm0y1iAgICAgLILALILAEA8OlGYANXuSW8xI7CzFpGSs9oc5j9X1S/njDeBmuXM8F1Qt1dzkrwlsrmvHCUgst520FuQLtkN2zjq0xu67dHxLrp3HJHHxdNd5eOPikdhvTxM1G5C2mtncb20kZ1xQ/Eu6ncqTxjR0U3tZ4pNYbS4LKAeo30Ujv2C7Uf4L6FdtNxS3CXVXNW3CWUBW9tcoCAgICAgICAgICAgICAgICDglBBtsNvosc12Owr2y31dWWYdsyIcdOJz+woreb6KRpXxlxZ91FfCOLX7LXd0/JXT3TylzpHFxL3VJOknhV57dWJ29JmOMKrkyW6p8Xj9YuP40nhu+Vd/RXk1/ctzPWLivlpPDd8qdFeR9y3M9YuK+Wk8N3yp0V5H3Lcz1i4/jSeG75U6K8j7luZ6xcfxpPDd8qdFeR9y3M9YuKeWk8N3yp0V5H3Lcz1i4p5aTw3fKnRXkfctzBcXH8aTw3fKnRXkfctzBcXH8aTw3fKnRXkfctzPWLj+NJ4bvlToryPuW5nrFxTy0nhu+VOivI+5bmesXH8aTw3fKnRXkfctzPWLj+NJ4bvlToryPuW5nrFxXy0nhu+VOivI+5bmesXFfLSeG75U6K8j7luZ6xcfxpPDd8qdFeR9y3M9YuP40nhu+VOivI+5bmesXH8aTw3fKnRXkfctzPWLinlpPDd8qdFeR9y3M9YuP40nhu+VOivI+5bmesXH8aTw3fKnRXkfctzPWLivlpPDd8qdFeR9y3M9YuK+Wk8N3yp0V5H3Lcz1i4r5aTw3fKnRXkfctzPWLj+NJ4bvlToryPuW5nrFx/Gk8N3yp0V5H3Lcz1i4p5aTw3fKnRXkfctzPWLj+NJ4bvlToryPuW5huLj+NJ4bvlToryPuW5nrFx/Gk8N3yp0V5H3Lcz1i4r5aTw3fKnRXkfctzPWLivlpPDd8qdFeR9y3M9YuP40nhu+VOivI+5bmesXH8aTw3fKnRXkfctzPWLinlpPDd8qdFeR9y3M9YuKeWk8N3yp0V5H3Lcz1i4/jSeG75U6K8j7luZ6xcfxpPDd8qdFeR9y3M9YuK+Wk8N3yp0V5H3Lcz1i4r5aTw3fKnRXkfctzPWLj+NJ4bvlToryPuW5nrFx/Gk8N3yp0V5H3Lcz1i4/jSeG75U6K8j7lubkXFxUVmk4R+u7l515vSvTPg9VyW1jxbhxeTZ3o7Cp08V4rwd0ZEBAQEHBc1oLnGgHCToCwIpmd4WBxhfDC83tw0kGOHuQRyyHtetVcOXfY68PGXLk3VK/NC7/AHmbQ3kbo7dsNmxxNHxgukA5NZ5Ir1aKLydyyTwjSHBbe2nh4IrdXd1eyme8mknkJrrSOLj8a4b3tbjLltaZ4y+NV4eRZBYBZZEBAQEBAQEBAQEBYYEhkRgQP/iCsxMxwI8GTx20ecxWixvpWMrUxl2uyvevqFupuMlOEt1c968JSK23pZ+LUbPb2s7R3TqPY49Z2qOsu2nc7xxiJdEb28cYhJMfvQwlwAL6KWzeeOnSMrzt0/Eu2ncsc8fB1U3lZ4+CU2OaxWSbrWN5DP1GPBdp5W8K7qZa24S6q3rPCXuqtj2VWQQEBAQEBAQEBAQKhBjsvnMZhLcz5CdsQoSyOtXvI4mN4StWTLWkeLXfJFY1lV+f3iZXLMltLJrbKzk0azSTO5vIX8Da9RQWbuFr+ERpCLy7u1vCPCEQUZPBxIdlPaFz5wr612z/AJqf6wicvql5VItYgICAgICAgICAgICAgICAgICAgICAgICAgICAgICAgICAgICAgICAgICDlvdDnC8X9MvVOMNyIvJs70dhUxfI4OyMiAgIBQUvtzmspcZ2/wAdLcv9Tt5dSOBp1WU1WntgKV4eNVveZr/cmuvgh9zlt1zHwRcaOBR7iEZFkEBAQEBAQEBAQEBAQEBAQEBAQEBYYEBABLHB7CQ4EEOaaEEcYKRaYnwZi2nBnMftntLji3ob58jG/wDSn+kbTk7bT1iuzHvMtfi313F4+KT2G9eZva5OwDx/Et3UPgv+VdtO5z/lDqrvucM7BvN2Yl1Q908Tjw68JIHO5tQuuvccUuiN3SWcstpcFkKep38EjjwM1w13guoV013FLcJbq5qzwlkg4OFWkEHjGkLdE6trmqyOUBAqsDiqyOsk0cTS+VzWNGkucaD415m0RxYmUeyO3uzOOeY33fTvHC22aZqfC3R8a5cm8xV+LRbcUj4ojl96d3OHRYS39WYagTz0dJzhg0D4aqPzdymY/ZDky736UGuLq5u5TPdzSTzO0OklcXOPwlRNsk24uC15nxl8l50eBYtwIQ/Ke0LnzhX1vtv/ADU/1hFZfVLyKQahAQEBAQEBAQEBAQEBAQEBAQEBAQEBAQEBAQEBAQEBAQEBAQEBAQEBAQEHLe6HOOyvF/TL3TjDciLybO9HYVMXuODsjIgICAUFFbZe9OV8/wDMaqtvPdsgtz7ksIuRziyyICAgICAgICAgICAgICAgICAgICAgLDAgLILDIjB1UNCg01HCnxZ8XptsjkLOhtLqaGnAGPcB1q0WyM144S9RltHBlINt9qrdoazIyOA4Oka1567mldFd7lj4t0bnJzZCPeXtRGAHPgk6r4uHwS1bvyOT5Nkb277jehtEANaK2J4zqOHzln8lk+TP92/J8n7zdpnghvqzOQiIkjruK8/ksnyY/u3eG5262quah1+6MckTWs+MCq1W32Wfi8TusnNhbq+vb12veXEs7jxyPLuyue2S9uMtE3tPGXwpyLU8CyyLLAjIvNuDEIflPaFz5wr6323/AJqf6wisvql5FINQgICAgICAgICAgICAgICAgICAgICAgICAgICAgICAgICAgICAgICAgLALI5b3Q5x2V4v6Ze6cYbkReTZ3o7Cpi9xwdkZEBAQCgorbL3pynn/mNVW3nu2QW59yWEXK0CAgICAgICAgICAgICAgICAgICAgICAgICAgICwwIFAEHFAsjlGRAWGDQgICxoCyCyyIC824MQh+U9oXPnCvrfbf+an+sIrL6peRSDUICAgICAgICAgICAgICAgICAgICAgICAgICAgICAgICAgICAgIPVi7eO7yllazAmKe4iikANCWveGu0jqFa8k6VmY5NmKNbRHzbCfkzsGf/az/AHiX/mVb/v5ea0/jcPJAt62wmzmyeMsLnCwyRy3Fw6OUvlfJVoYXUAcTxrv2G4vktMWRvcdrTFWJrzVcphCCyOW90OcdleL+mXunGG5EXk2d6OwqYvccHZGRAQEAoKK2y96cp5/5jVVt57tkFufclhFytAgICAgICAgICAgICAgICAgICAgICAgICAgICAgICAgICAgICAgICAgLzbgxCH5T2hc+cK+t9t/5qf6wisvql5FINQgICAgICAgICAgICAgICAgICAgICBoXmZlk0cRFedZApDAsggICAgICAgICAgICD3YL25jftdv6Rq1ZvRPk3YPXXzht6qcvKqN/fsTFfa3+iKle1+ufJC949FfNRasKtCDlvdDnHZXi/pl7pxhuRF5NnejsKmL3HB2RkQEBAKCitsvenKef+Y1Vbee7ZBbn3JYRcrQICAgICAgICAgICAgICAgICAgICAgICAgICAgICAgICAgICAgICAgIC824MQh+U9oXPnCvrfbf+an+sIrL6peRSDUICAgICAgICAgICAgICAgICAgICAgubcdi8ZkMZlnX1nBcuZcxhhmjZIWgx1IBcCoHuV7ReNJ08Fh7Vjrak6xr4rJyWzuAZjrtzcXZgthkIIt46ghh4O1UbXLfXjP/ANS18GPpn9sNT21LQTyK3wpMuVlgQEBAQEBAQEBAQEBB7sF7cxv2uD0jVqzeifJuw+uvnDb1U5eVUb+/YmK+1v8ARFS3a/XPkhO8eivmotT6tiyOW90OcdleL+mXunGG5EXk2d6OwqYvccHZGRAQEAoKK2y96cp5/wCY1Vbee7ZBbn3JYRcrQICwwICAgICAgICyCAjIgICwCyCwwLIIyICwwLILAICAgLLIgLDAgURkRgWWRYBGBAQFlkWGBNQWJ4EIflPaFz5wr6323/mp/rCKy+qXkUg1CAgICAgICAgIFEBAQEBAQEBYCiyCAgBYF5bg2kYjLupoN1GAeaPT2VAd09ceSy9n9E+az8p7NvPMS+IVF14wl7+mWnw0tHMrmociyCwCyCAgICAgICAgICD3YL25jftcHpGrVm9E+Tdh9dfOG3qpy8qo39+w8V9rf6IqW7X658kJ3j0V81FqfVsWRy3uhzjsrxf0y904w3Ii8mzvR2FTF7jg7IyICAgFBRW2XvTlPP8AzGqrbz3bILc+5LCLlaBGCiwFOdDUonyH1t7S7vX9HZwSTuHC2Jjnn+qCvdaWnhGr1Wtp4Q73OPvrKnrlrNb14OljczxgFm+K1eMM2pavGHnWuHgQem2xuRvGl9nZzzsHC6KNzx12grbXFe3CJe4xWnhD53Ftc2j+juoZIHngbK0sPWcAvE1tHGJgtS1eMPkvLyLIICMAFaNaCSeADSSnjLMRqyEez+dkj6VmOuXMIqCIn6R1NC3RgycpbPtX5PHPBPavMVzE+F44WSNLD1nLXak14w8TWY4w+a8PIssiwFKowLGoaBpWfAemDHZG5Z0ttaTSx/tsje5vXAXuuK88IlsjHbk+D2PjcWSNLXDha4UPWK8aTHGHiY0dUYFlkQcUWB9be1ubqTorWGSaT9iNhees2q9VpaeEasxWZ4Q9k2BzdvGZpsdcsYBUuMT6AdXRoWydvkiPTL3OK0cYY+lD1eRaZhr00Flgpz9dYZKc6aMFEY1EZEZKLzqxLinP8a9BRYkhD8p7QufOFfW+2/8APT/WEVl9UvKpBqcmgqSUGQsdns7k4xNjsbdXURrSWKF7maOHtgKLRfPSs+Mw31wZLcKy+d7hsvjG62Ssbm1HBrTxPjb13ABZplpPCYli+G9eMS8ehbZhqcIwLIBBzo4SVjw4jJWWze0GRj6awxd3cRDR0kcLy2vPSi0znxxxmG+uC9uFZfC/xOUxZDclZXFoTwdPE+MHmLgAvVctLcJeb4r14xo8mgLZwa3CywIAWNBzQLGgU4kmIkei0x19kHObYWk9yW8IhjdJSnLqgrzOSteMttcV7cIdbqzu7GTobyCW3k4NSZjoz1nALNclZ4Tq82x2rxjR8Dyr28OaLAAfH101iOLOjZLdNs9c7P7JxNvWGK6vpXXckbqhzWvAbG1wPAdRoKq++zRkyeHCFu7fhnHijXjPil2U9mXnmJfEK5K8Ydt/TLT1o7VvMFc4USeLlZYKLA5osaBSulZ08RwdUcdEnWA0HgRkWWDQsTGo+9pY3l/IILG3luZToEcMbpHdZoK8XvWvGdGyuO1uEashNsptNbQG5uMPexwgaznut5AABpq7RoWuNxj4dUNk7bJH+MsRTi4CNBBW6dJaJjQWWBZHuwXtzG/a4PSNWrN6J8m7D66+cNvVTl5VRv79h4r7W/0RUt2v1z5ITvHor5qLU+rYsjlvdDnHZXi/pl7pxhuRF5NnejsKmL3HB2RkQEBAKCitsvenKef+Y1Vbee7ZBbn3JYRcrQIwle7zG2OVzc1vkIGXELbZzwx4qA4PYAfjXf2/HF7zFuTr2lItbSeSyjsbsx+FweCpv+rj5JP+vTkhL9iYsttlfW0DBa4izMXS6gpUujY7o4+QmtSVGTsovmn4VhxTtotln6YWNjsbZYq3baY+FsELeBrRw9UnhJ51MUxxWNISNaRWNIfa4t4bqJ8FxG2WJ4o+N4q0g8RBXq1YtGkvU1ieKodt9kDgLgX1iK425fRsekmF506lf2T+qq9vdr9ueqOCH3WDonWOD37D7DMyUUeZzDda0dptrQinSAfrvP7J4hxrdstnFv32bdttomOqy0o42RMayNoYxoo1rRQAcwU5FYjwhJxGjyZPFWOYtXWeQhbNE4cDhpB5WnhBWvJireNJeb0i0aSpvavZS52YuY2ukE9pcF3QTUoRq/qPH7VFXNztJxT8pQufB9ufkwC43OJIyOCwl7tBfCxsgAaa0krq6sbBo1nU7C3YcFslumG3Fim86QuDZzZHGYCCPUjbNe6v0145vbOdx6la6reoFY8G1pjrpprKZxYa0hn11t7xZTE2GYtnWl/C2WN3LocOq1w0grVkxVvGloeLUi0eKpdrNirrZ6t7A/1jHOfqh9CHxV7kScvOq/u9lOLxj0ojPtpp4xwRZcDkE1Fp7DbOYTI7OQXV/Ywz3Dnyh0jm1JAeQPiU/ssFLYomYS22xVtSJmGWy2yezcGLvZosbAySOCV7HhukOawkFdGXbY4pPh8G6+CnTPgjuw2wtvNawZrNN6UygSW1o4HVa3idID3RPCAuLZbKNOuzn2+2jTqssdjGsaGMAa0CgaBQADqKZ00SMRoxGf2ax20Nq6C8jDZR5K5aAJGHqHjHKFz5tvXJGktWTFW8aKWzWJu8HkJMdeAF8elrx3L2HuXt6hVazYZx2mJQeTHNLaS8K0tYgkWyWyNztNNJIZOgsYHBs01Kuc6gOozq0PDxLt2u0nLPydWDb/c8fguHF4mww9q20sIWxRNHF3TjxlzuElWLHirSNITFMdaRpD2EVWx7RzaXYvGZ+CRzWNtr86Y7trdNeR7RTWC48+0pkjlLny4K3j5qfy2Lu8LkJcdegCaI8La6rmnuXNrxEKu5sU47dMobJSaW0d8G+0jzNk6/jbNaGVrJ43irS1/a1PNWqzgmOuNeDOKY6o14LlGx2y54MXb+CrL/AFcfJM/YpyYbazY3EDA3c2Ls4ba6t29M2RrdJbH2z28PG2q5t1tafbmYjxhqz4K9E6QqRV1DCyyzex+JbmdoLW0laHW7SZrhrhUGOPSWnvjQLq2eLryRHwb9vj6rxC2v/DtmPwuDwVYP6uPklvsU5IVvIxmHxFpYw42yht5riVxfI1vbakY4Bzlyi+446UrERDi3lK1iNIUdlPaFz5wr6H23/mp/rCs5fVLzxxySvbFEwvkeQ1jGirnOJoAAOMrvmdI1l4rEzOkL22A3RWeLZHltp42XeQeGvis3CsUFQDR4NQ+QcvB2VXd1vptOlfCFm2nbq1iJt4ytGONkTGxxtDWNFGtAAAHIAFGz4paI0dZ4IriJ0M7GyRPFHxvAc0jkIKRMxwJiJ4qb3h7ora1tbrP7MfQxwRma5xeqXNLW6XGAjuaCp1dPUUxtN/bWK2+PxQe87dGk2qp3RzqcV1wsj72VndZC8gsLKMy3Nw8Rwxt4XPcaALxa8VjWWylJtMRHxX7sPulx2AYL7PNhyWTJDo6tPQwUHAxridZ1f1iOZVzc762SdK+ELPte30xxrbxlYzWhooBQDgAUfKTiNHyubW3vIXQXUTJoXijo5GhzSOqCsxMxwYtWLcYUtt7ue9RhmzGygc6CMF8+MdVz2tGlzoHHSQP2T8Cmdr3Cdem//wBQO87bpE2p/wDFRqcQIjC0tzGzmD2gOYGasYr3oPV+h6VtdXX6TWpz6oUR3LNenT0zpxTfa8NL9XVGvBaX5c7Dfgdr4Cif7WX6kz/TxfSrLZ3dla7RbV5ye5b6tgcffywR28YLTKWuJ6Nj/wBVjRTWpp4lJ5d7NMdYj1TCIw7CMmS0z6YldOOxlhibVljjbeO1to9DIomhrR1uPqqFtabTrMp+mOtY0iHTK4fGZu0fZZW1jurd4oWSCtOq08LT1Qlb2rOsSxkxVvGkw1x3hbCz7F5FgicZsXdlxs5iNLSNJhkP7TRwHjCsuz3UZY+cKpvdnOG3hwlEToC70e2P2D2P2ZOzuDzLsXbHIm2imNyWVd0hb3enjVX3We85LRr4arftNvj+3WdPHROgKLhSDiWNssbonjWY8FrmngIIoQjEwjX5cbDU9h2vgf8AFdH9rL9Tl/p4vpa/7w8fZYrbXLY/HQtt7SGSIRQRijWh1vE40HVcSVZNpebYqzPH/wDuVb7hStMsxEeGiTbmsBh8/kMpDmbOK8jhhidE2VtdVxcQSOcBcncclqRXpnR0drw1va3VGq2vy42G/A7TwP8Aiof+1l+pOf08X0qdOwD9pN4WZweK1LDG2M5dLI1ms2KLtQGMboGs7TRTEbv7eGtp8bSg/wCn9zPaseFYW/iN2+x2GgbFDjIZ5AAH3Fw3pZHHjJL6gV5AofJuslp8ZTWPZYqRpoqPfTjcfjNpLSHHW0VrG+za97IWBgLjI8axA46BTPbb2tSdZ18UJ3THWt40jTwV2FJohYG73dhPtaxuWyUptsOyQsDWgiacs7rUdwNaDo1usozeb77c9McUvsth92Oq3BfeIw2NwdkywxVsy2t4xRrWDSeq53C49UqAvktedZlY8eKtI0rD38S8NqH7ZbuMHtXbySCJlnldX6G/jbQ63/qtaRrt59PVXXt93fHPOOTh3GypljlLXjaHAZHZnKzYjKMDZoqOa9pqySN3cSMPIVZMOaMleqFWz4LY7dMsWt7ne7Be3Mb9rg9I1as3onybsPrr5w29VOXlVG/v2Hivtb/RFS3a/XPkhO8eivmotT6tiyOW90OcdleL+mXunGG5EXk2d6OwqYvccHZGRAQEAoKK2y96cp5/5jVVt57tkFufclhFytAgmu6z3hn+yP8ASMUn233J8nbsvXPkttWBLvlFBHE+R7BQyu13nldQN7DQsRGmrERo+qyyIPBmsVBmcbPjrjyc7aa3G0g1a4dUFasuOL1msvGSkWrpL02tvDaW8VtA0MhhY2ONo4A1ooB1l6pWIiI5PVY0jSH2qvbIgjm3OHGX2fuGtFZ7b/uIKcOswHWHwtJC495i68cxyc+4xxenkpJVhBOCQBU8CwLp2E2fGFwrJJm0vLyk05Io4AjtI/6I+NWbZYPt0+cpzbYuivzShdzpKoCDyZPHW+VsJ8fdCsM7Cx1OEcYI6oOla8lIvWYl5tXqjRQ2Wxs+HyVxjbnykDtUOpQOadLXDnCqmbHNLzWfggMlOm2jxrTPF4XPu591bbv5fHKs3b/ahNbT24SW4hZcQSQSiscrSx45Q4UK7pjWNHTMau0bGxtDGijQAABxAaAkRpDLssggr3etYB1lY5Jre2ilMMjgP1HtLm1PUc341Ed0r+2LfNH76msRKsVBIp9rO0uL+7hsrVpfPO4MjaAeE8ZpwAcJK90xze3TD3SvVOi+8Ni7fDY6DH2zQGRNAcR+s89289VxVsxY4pWIhP0pFY0h76ra9uKoOeFBCd5eFhusOcu1v/c2RbVwFS6J7g1zT3pOsozuOGLU6vjDi3mPqrr8YVLxUVe1Q+q9tkss3M4Czu9bWlDOin6kkfau+VWzbZOvHEp/BfqpEstPEy4hkgkFWSscxw6jhQrfMaxo2zGvg15vbR9he3FjLokt5HROGn9U0+NVDJTptMK9evTMw+K1vCxd09mC/IZBzdI6OBjuer3/ADVM9rp6pSexrxlZampSSm94uUbkNonwRO1orFgg0cGue2k+PR8CrfccvVk05Ibd36r6clR5Qf8A5C584V9L7b/zU/1hXcvqlZO5HZoXuUuNobyDWt7FvR2bnjtTcO7pza8Oo3j4iVzdyz6R0QmO17fWeuY4cF7AUUCsbmqyCDhzQ4EEVFOAoNaN6Gy7Nmdp5RaxGPH3w9YtKDtAT5WMH913FyFWbY7j7mPSfVCpdw2/28msemUM4FII1cu47ZRpFxtZdsqTrW1gHN4KU6WVpPL3AI6qgu5bjWeiP1WLtW38OuY8lzKGTogIOpFeqjDWjeZsh/4nnyLZpGMv9aazOkhhr9JDX90nR1FaNhuPuU0njCp7/bfbvrHplDV2o1cv+3/hz3+V/wAVQndeNf1WDs/+X6LmUKn3wtbSCzY6OBoa1z3yupxvkcXvceqSVmZmZeYrER4PusPQgie8zEsy+xWUj6PXltojdwaKuD4O37XqloI+FdO0v0ZIce9xfcxTDWDiVtUxtVsD7l4P7FD4qqO59y3mu209qvkkK53SICDWHen/APsHN+ch/wDtolatj7Nf/wB8ZVLufvT5Ql24L2pmfMQ+O5cXdfTV19n9VvJeCgliYnDYS3xU+SumAGfJXb7qeTjNQGsb/RaFsvebREcmnHjiszPOWWWtuUHv396LH7C30sin+1+ifNWu7+5HkhGyuz9xtRnbXDW7izpnEzSgV6OJmmR/W0Dqru3GaMdJlHbbBOW8VbUY3G2mJsLfHWLBFa20YjiYOJo/SeNVO1ptMzPxXOlIrGkcIetYeyqAsCvt72ysWb2ckykEWtksWOlic0ds6Go6aM04e17YdUKQ2OfoyRE8JRvcdtF8czHqhrrwqzqm92C9uY37XB6Rq1ZvRPk24fXXzht6qcvKqN/fsPFfa3+iKlu1+ufJCd49FfNRan1bFkct7oc47K8X9MvdOMNyIvJs70dhUxe44OyMiAgIBQUVtl705Tz/AMxqq2892yC3PuSwi5WgQTXdZ7wz/ZH+kYpPtvuT5O3ZeufJbasCXY7N5i0wePkyF4T0bNDWN7p7j3LW9UrTly1x11lryZIpGsoGzexces1lxzBaV0hryZQ3l0jVqouO5+PDwcEb7x4LBxWTtMxYxX9i/XglGg8BBGgtcOIgqVx5IvXWOCQpeLRrD2La9sZnc3Z4CwffXjtA7WOMd09/E1q05ssY66y15MkUjWUDh3r3XTg3OPj9Xr2wZIdcDlqRQqJjuk68PBwRvvHgsq1uYby3jurZ4khlaHxvHAWnSCpqlotGsJKJiY1h9HAOBB4DoXqWWut1H0N1PDwdHK9lO9cQqdeNLTCuWjSZhmdisUMxtFbQSN1oIP8AuJgeAtj4B8LqBdGzx9eWI+DftsfVeF4gK0px5clkrPE2kl9fSiKCMaXHSSTwNA4yVryZIpGs8Hm14rGsq4n3r5B0xdaWMTbevatlc4vLeqW6Aoae5zr4R4I2d7OvhCZ7M7WWG0kB6GsN3GKzWzjUtH7TT+s1Se33NcseHF24c0Xj5s+upvVpvWxzGyWGVY06z9a3lIGjQNdlfjUL3PHwsjN7ThKueNQko5dG7n3Vtu/l8cqzdv8AahNbT24Sld7qRXazba22bc20ii9Zvnt1xHXVYxtaAvPV5FwbneRi8OMubNuIp5sTgt50d5dMtcvbtthK4NjuI3EsDjoAeHaRzrRg7jFraWjRoxb2LTpKwFLJBg9s7MXuzORip2zYjK3vou3HYXLu6dWKYac9daSouvGqrCATvdVZNmyt7fOAPq0LWMJ4nSk1p8DFLdspraZd+xrraZWrxKeSyududuLm0uX4bDSdFLEaXVyO6DuHo2V+MqH3u8ms9NUfuNzMT01Qq12n2gspengyE5fUuLZHmRhJ09s11RRRdd1krOurgjPeJ4rj2YzsW0OKivmAMl0suIga6kjeEcx4QrJt80ZaaprDki9dWSvLaK8tpbWca0UzHRvaeAhwoVuvXqiYbLRrGjXu7tn2V3PZyd3BI+N1eVhLVT706bTHJXbV0nRY26nI68F7ind1E4XEfev7V3xtCmu2X8JrySWyv4TCxFMJFTe8mzNttM+agDbqGOQU4y0GN1fBVc7jXTLrzQ29jS/mifEo5xrs2Bx/+n7MWgcKSXINy/8AtO5/q0Vn2WPpxx807tqdNISCeVkEMk8hoyNpe8niDRUrstOkat8zpDXi5nddXM1y81dNI+Qk/vkuVMyW6pmVdmdZ1QvKAnI3AAqTIaDlPIvrPbp021P9YROSNbS2m2UxDMHs7jcWxuoYIGdKP/VcNaUnneSq/mydd5lctvj6McVZg6AtTeq7avfTZYa/mxmGsvX5bd5jmuJH6kOs3Q4M1dYuoeNSmDt1rxrM6aofcd0rS2lY1ejY3fBYbQ30WJylt/p97OdWCQP1oHu4maxoWuPFXhXncbC2ONYnWHra9xrknSY0lZXCo1LIBvkxUV/sZPduH0uOljuIncdHOET2/CHrv7fk0yxHNG9yx9WGZ5NfMfZTZO/tcdb+Wu5WQR99I4NB+NWO9orWZnkq2Ok2tER8W2+Kx1tiMda4y0bqwWsTYYx1GClec8Kp97TaZmV4x0itYiPg9EsrIWOllcGRsBc97jQAAVJJXnTV6mdPFT20W/N1vfSW2zVnFc2sZ1fXLguAkPGWRt1e15CTpUxh7ZMxradJQmfusVtpSNWe2F3s2W09y3FZWFuPyb9EGq6sMx/ZYTpa7qHhXNudjbHGseMOja9xrlnSfCVjDSKrgSiD728FHmNjrucD6fGD1yF3UjH0o+FlV2bLL0ZI5S4O4YfuYp5w1sVpU9cv+3/hz3+V/wAVQndeNf1WDs/+X6LmUKn0e2y2vx2xuL/1C9a6WSR3R21swgOkfSp0ngaBwlb8GC2W2kObc7iuKusq1sN/Vy69aMnio22TnUc63kc6VjeWjxqu+JSd+1/t8J8URTu86+NfBcWOv7TKWUGQsZRNa3LBJDI3gLSoa1ZrOk8U7S8WiJjhL7SxsljdFIKseC1wPGCKFYepjWNGoOTszj8jd2BFDbTyw/3by39CuWO3VWJ5wouSvTaYXRsvvb2Tw+zmNxd3616xaW8cUupDrN1mih1TraVB59hkteZjTSVg2/ccVMcVnXWIWHs3tJjtqsY3LYvpPVnPfGOlbqO1ozR2ipUblxTjt0zxSuHNXJXqrwZKeZtvDJO+upE1z3U4aNFStbbM6K+G+7Yoiv8A3n9wP+ZSH47KjJ7pi+al9uMxZ7QbV5LM4/X9Vunxui6Ruq7tIY4zVummlhU7tcc0xxWeMIHe5q5MnVXgnu4L2pmfMQ+O5R/dfTVIdn9VvJeCglicGgQeK+zOKxlP9RvYLXW7kTSNYTzBxXutLW4Q12y1rxlRe+27tb3aOwns547iI2LR0kTg9tRLJxtJU72ysxSYnmrndbRa8TE/BItwuGLLXJ5+Vo+ncy0t3EadWPt5aHkLnNHwLn7pl1mKw6+0YtKzZcCh04hu3G8bF7GRiAt9bykjdaKzYaUaeB8rtOq3k4yuvbbW2Wfk4d3vK4fnKA4/fxkm3Tf9XxkLrQntzbOcJWN5Rr1DqfApG/a408J8UZTu86+MeC5MXk7HMWMORx0zbi0nbrRSt4D1DyEcBChb0ms6SnqXi0axwetzQ4FrhUHQQeAheXuWqu3OCGzm1OQxbG6sDZOltvMy9uwf0a6vwK2bTJ144n4qXvMX28swxuC9uY37XB6Rq25vRPk1YfXXzht6qcvKqN/fsPFfa3+iKlu1+ufJCd49FfNRan1bFkct7oc47K8X9MvdOMNyIvJs70dhUxe44OyMiAgIBQUVtl705Tz/AMxqq2892yC3PuSwi5WgQTXdZ7wz/ZH+kYpPtvuT5O3ZeufJbasCXVVvUyDpsra41rj0dvF0rm10F8poOs1vxqB7nfW0VRW9t4xCCKJ8UetDdRdl9hf2LiSIZmyN6gkbQ/GxTvbLftmPmltjP7ZhYCl3eqLeffPuc9HYh56K0hb2le115O2J59Wir3cckzfTkiN5fW+nJDCoxw6LV3V3s02JurKRxcy1mBiqa0bIC4jmqCp/tuSZpMckvsra005J2pV3Nfs6wR5zJMHA26mA/vCqjnjS9vNX8vrnzTTdPaB1xkb81qxscDeTtiXu7AUl2usa2l27GPGZWaVNpNUO8fOTX2YdiY3kWllQOYOB01KuceYGgVf7jmm1+n4QiN5lmbdPJDVGOJ7cNkpcRlLbIwvc0wyN6TVPdRFwEjSDytW7Bkml4n5tmK81tEw2BjkZKxsjDrMeA5rhxgioVtidVgRreFaMutlrxzq1tyyZhHK1wB/qkrj31YnFPyc26rrjlS3GqvohFz7ufdW27+XxyrN2/wBqE1tPbhKHENFTwDSeZd0y6mveVvpMlk7u+lcXGeV7gSakNqQwfA2gVQy3m1plXsluq0y8mkcBoeI9Va9WqF/bO3zsnhLG+eavmgYZDyvAo74wrdgv1UifksWK3VWJenJMEmPuo3cDoZAfhaQveT0y9W4S13HAAqcri3d19k23wEl3T6S7ncST+zH2jR16qxdurpj15pnZ10przTC5lbbwSTv7mJrnu5miqkLTpGrrmdIa8XV1Je3U97M6stxI6V5J43Gqp97Ta0zzV29tZmXyXnV51TfdbfSQ5qew1j0VzCX6nFrxkUPgkqU7Zb98x8nfsrz1TC2VYEspDb23bbbV3wYKCQsl+F7AT8arG9rpllB7qNMku+wORdjtprUVIju620reI6+lhPM4BZ2OTpyx83ra36b6c12A1VmTSv8Aeri+lsbXLMB17Z/QyEfsScFf6Q+NRPc8etYtycG9prXXkrGKJ08jIG8MrmsFP3jqqCiNZiOaKiNfBsRawNtraK3Z3MLGxtryMAaOwrjWNI0WOI0jRgNvr71HZe9o4tkuA23jI0Gsh7b+rVcm9v04p+bRubaY5UoqvMeCDeDZbFszG8GxsZG60Ru+llbyshHSkf1V9QwX6djWf4uTb06s8R82z6hFvQHfBtFc4HZcQ2E7re8yEogZIw0e2MAulLTxaAG16q7thhi+Tx4Qje455x4/DjLXIaOBWfRU58XLS5p1muLXNILXA0II0gg8oSY1InRtFsntLBd7EWG0OWuGQNFtW8uJXANDoiY3ucTyltVUs+GYyzWIXPb5otii0yrfeJvZx+Zx13s7g7czW1yAya/kqwUDg76KPh4uFylNpsLVmLWRW87hW1ZrVEd2Foy829w7HgubHI+fRxGKJ7mk/wBIBdu/nTFLg7dGuaGzoVWW9VW+7ai5x1jabP2Eron5APku3sNCbdvadHXkeTp5lK9twRa02n4Ibumea1isfFRXArBHgrTtG+SORksT3MkjIcx7TQtc01DgeUFYmsTGks1to2q2IzZ2i2WxuVkfrzywtbcu0D6ePtJdA5XCqqOfH0XmF02uXrxxLLZCzhyFjc2E41obmJ8MjeVsjS09laqzpOrdevVWYagTRmGV8R4Y3Fh52miulZ1hRbRpOi4v9v8Aw57/ACv+KoTuvGv6p7s/+X6LmUKn2uW+PLyZHbSazDyYMbFHbsZWrQ946WV1OU6wB5lY+20iMevNVu6ZerJpyQGikkS2E3JZR17sm+xkNXY64fEyvFHIBK343OVb7jj0y681q7Xkm2LSfgsdRyVaqbexCHbTORt0D1yV3hnX/SrZtJ/8qz8lL3saZreaPrqcrYrcp7jxfarjxgqx3D3ZWztnswm+U9mXnmJfEK4q8Yd9/TLT0DtRzK5wokuVkW3uC9qZnzEPjuUN3X01TnZ/VbyXgoJYkI3qbW3OyuzofjpOjyN7IILWSgdqAdtJJQ8jdA6pXbssEZL6Twhwb7cTiprHGWuF3c3F/cPu76aS5uZCXSTSuL3uceEklWatK1jSIVO+S1p1l8gABQcCzo8atot21hHj9iMPHG2nSwC4fXhLpyZCf6yqu7v1ZbT81y2VOnDXySG+u4bCznvrk6sFtG+WV3I1jS49hc1YmZiIdV7dMTMtS85l7nP5e8zN2fpbuUyFtdDW8DGDvW0Ct+HFFKxCk58s3vMvAVuaVp7k9p57TLv2ZuJS6zvWultWHgZOwazg3v2DrhQ/csEdPXHFNdq3ExbonhK+AoFZFFb+bLos3i8gG0FxbPiceUwv1h8Uine12/bMK53en74n5K3wXtzG/a4PSNUpm9E+SJw+uvnDb1U5eVUb+/YeK+1v9EVLdr9c+SE7x6K+ai1Pq2LI5b3Q5x2V4v6Ze6cYbkReTZ3o7Cpi9xwdkZEBAQCgorbL3pynn/mNVW3nu2QW59yWEXK0CCa7rPeGf7I/0jFJ9t9yfJ27L1z5LbVgS6md5HvXP5mHxVW+4e7+iG3nuIquByLD3S/zOTHEWRdlymO18bJHY/FZqm0mpDbwk7WZCvLH6Nqq+996yD3XuSjy43MsndLXo8r30PYeprtfC36JTY8JWOppIqA2h9v5P7XP6Qqpbj3Leav5vXPmn+6aMjH5GX9udg8Fn/FS/a4/ZM/NI7GP2ysBSzvUFtK/pNoso7/6qYcvA8hVLce7bzV/L6582MWlrDpCxLGi9tj533OzGMll7voGtJ7ztP0K17W2uOs/JP4J1pEvrtRCJ9ncnGdINtKadVrS4dhetxGuO3k9ZY1pPkoPiqqir66N3Purbd/L45Vm7f7UJrae3CQZElthdOHCIZCPBK7L8JdFuEtd2mrQeoqcrurlJYXZu/JdslYE8QkHWlcrPsZ/8YTm1nXHDO3/APJXPmn+KV1ZPTPk6LcJa6juQqcra8th4hFsrjQNGtEXnne4u/SrTs40xV8k7to/84Z2WNk0bopGhzHgte06QQdBBXVMauhiv/FdnRwYy2/u2/ItH9bHyavs05H/AIts7+GW39235Fn7FOUH2acn3tMFiLGcXNnZQwTAECSNga6h4RUBeq4a1nWIZrjrE6wyC2tim95TdXaqV37UEJ6wI/Qq53H3f0Q289aLwTy2s8VzCaSQvbIw9VhDh2FwVnSdXJE6Tq2BxV/HlMdbZCLuLmNslAa0JGkV6h0K3Yr9VYnmsVLdURLz7R2AyeCvrKlXSQuLB++0azP6wXjPTrpMPOWvVWYVFsNjHZLaSzFAY7Ym4mrxCPuR4RCr2xxdWWPkh9tjmbx8l4K0JxWm9e/Dn4/GNPch9xIK8vaMqPCUL3O/CqN31+FVdKEngjGQ3UwdNvIml0fQQXD+vqs+cvpOv/8Ahp5Qx2+NdxLYBRazKH3830kufxuP/wCnb2hlGn9aaQg/FGFP9rr+2Z+at92treI+SrFLoQWB6ZMhfy2cWPkuZHWUBLorYuPRtLjUkM4KkrxXHEW108Wyck9Omvg81Vs1lrWJuSt+m216XR9BZzv8IsZo8JRvc50xfqlu0xrl/RsOq2tKgN+kwftZaQgeSsWVPfSSFWHtcf8AnPmrHdra5Yj5KzUqhxYF8bhryWXZ7I2L+4trvWjNeKVgJFOdqr3c66ZInnCz9ptrjmOUrTUWmGomfgNtncnbn/pXdwzrSuVxwzrSPJRs8aXnzWr/ALf+HPf5X/FUR3XjX9U12f8Ay/RcyhU+1X3gknbfO1/+bf8AEAFa9l7VVM33vW80cqutxrs3Al3qebb+qJYD8Ja/5FA909ULF2fXSy31Dp1qxvE9+M59qd4rVa9l7NVN33vW80bXW4mxW5T3Hj+1XHjBVnuPvStnbPZhN8p7NvPMS+IVw14wkL+mWno7kcyucKG5WRbe4L2pmfMQ+O5Q3dfTVO9n9VvJeCglia/78cpLdbU2+M/6NhbNIFeGSc6zjTvQ1WDtlNKTPNWe7ZNbxXkrRSqGD3J5ijMNu9n4Ba4LGWzeCK0gZ4MbQqbknW0+a9Yo0pHkj29a6fa7B5V0Zo6VscBP7ssjWO/qkrp2Vdc0OXf26cNmstVaVOFkZ7Yad1vtjg5W8Pr0LOTQ92oficubdRritHydeztpmr5trVUl0VJv9gri8NcCnaXMkZPHR8et8xS/ap/daPkhe7xHRE/NT2C9uY37XB6Rqms3onyQGH1184beKnLyqjf37DxX2t/oipbtfrnyQnePRXzUWp9WxZHLe6HOOyvF/TL3TjDciLybO9HYVMXuODsjIgICAUFFbZe9OU8/8xqq2892yC3PuSwi5WgQTXdZ7wz/AGR/pGKT7b7k+Tt2XrnyW2rAl1M7yPeqfzUPiqt9w939IQ289xFVHuNYe6b+ayfeRdlyme18bJLY/FZqm0mpDbz3syHfR+jaqvvfesg917ko8uRzrJ3S9xlO+h7D1Ndr4W/RJbH4rHUyklAbQ+38n9rn9IVUtx7lvNX83rnzWJupcDh7xo4Rc1PwsapjtnonzSWy9Mp2pV3Nf88KZ3J8vrc9f7wqo5/ct5yr2X1z5setTwLDC8dhhTZPG+bcf67ladn7VU9t/bh79oCBgskSaD1Wap/oFbs3onybMnpnya/DgCp8q8ujdz7q23fy+OVZu3+1Ca2ntwkGS9n3fmJPEK7L8JdFuEtd29y3mCp0K45SWV17vvdKw/tfSvVn2Pswm9p7cM9ffyVx5p/ildWT0z5Oi3CWuo7kcypytr22NcHbL4sj+A34qhWrae1XyT239uGbJAFSaDlXTLe6dJH+23rhY1jmxrB0kf7beuE6vmawdJH+23rhOqOZrB0sf7beuE6o5msKe3lOa7ah+qa0t4q0+FV7uMxOT9EPvZ/eiajnGtzdhf8ArOAfaF2s+zncynIx4D2/GSrF27J1Y9OSY2V9aackzPApJ2oVsNhRj8rtBK9uqW3boIhp0RkmUU+B7VG7PFNbXn5uPb4+m1p+abHgUk7FE7X5NuW2ivbqN2tCx/QwuGkFkXa1HOalVXd5evJKC3F+q8sKuS3Bzwy+6Igbwr8E0JtJqdXt4l9Hn/ix+UM9u9+fJfKjVka978WubtjE48D7GIt+B8gVi7ZP/nPmq/dvdjyVwpRECAgILK3FuA2uugTQusJKDl+liUX3T2480x2n3Z8mwKrqztd99zXN22BJ0OsoSObWeP0Kx9s9v9VW7r7v6K8UmiRBd+4Ef/jcyeL1iEdZhUB3T1V8lk7R6Lea3FEJtqXtY4P2pzTm6Qb+5IP9q5W7be3XyUjc+5bzWd/t/wCHPf5X/FUX3XjX9Ux2f/L9FzKFT7VfeB77Z37Y/wDQrZs/ar5KZvvet5o4F1ONdm4H+UznnbfxXqC7r6qrH2f02W+oZONWN4nvxnPtTvFarVsvaqpu+963mja7HE2K3Ke48f2q48YKs9x96Vs7Z7MJvlPZt55iXxCuGvGEhf0y09HcjmVzhQ3KyLb3Be1Mz5iHx3KG7r6ap3s/qt5LwUEsTWfe24u2/wApX9XoGjm6Bh/SrN2+P/GFS7lP/tKGKQRoTRpKwzDcDFEHF2RGkG3iof6AVMvxle8fpjyRDfEK7B33Ult/StXZsPehw9z9if0//lrcrQqIgzGyHvXhP/7C19K1c+59u3lLp2vu184bZqorsqzf09o2exrD3Tr2o+CF/wAqle1+ufJDd39uPNSuC9uY37XB6RqnM3onyV/D66+cNvVTl5VRv79h4r7W/wBEVLdr9c+SE7x6K+ai1Pq2LI5b3Q5x2V4v6Ze6cYbkReTZ3o7Cpi9xwdkZEBAQCgorbL3pynn/AJjVVt57tkFufclhFytAgmu6z3hn+yP9IxSfbfcnyduy9c+S21YEupneR71z+ah8VVvuHu/oht57iKqPcaw90381k+8i7LlM9r42SWx+KzVNpNSG3nvZkO+j9G1Vfe+9KD3XuSjy5HOsndL3GU76HsPU12vhb9ElsfisdTKSUBtD7fyf2uf0hVS3HuW81fzeufNPN0r/APtMpHXgmiNOdhH6FLdrn9to+aQ2M+ErDUskFD7WQvh2myjHggm4e8dUP7YHrFVXdV0y2j5oHPGmSWHXO0nNpJ0AdU8Cxoaar/wFkcdhbGxcKOggY1/fatXfGrdhp00iPksGOvTWIebbGboNmMm8cPQOb4fa/pXnczpjt5POedKSojjVSQK6N3Purbd/L45Vm7f7UJrae3DP5L2fd+Yk8Qrsvwl0W4S14b3I5gqdCuOUllde773SsP7X0r1Z9j7UJvae3DPX38lceaf4pXVk9M+Totwlrq3uRzKnK2uvd9cCfZWyFamLpIj/AEXmnxFWfY21xQnNrOuOGZzEDrrE3tsyuvLBIxtOHWLTT4105Y1rMfJuvGtZa/8ATT8cjweMazvlVRm9teMq/wBU8zp5v4j/AAj8qdVuZ1TzfSH1y4lbDbmWWV5oyNhcXE9QBeq9dp0iWY6pnSJdXyXMbix75GPaaOa5zgQeqCvM2tHhMyxM2jm+bnOcavJceVxqfjXmZmTjxcI8ptuvyXq2Zmxz3UjvY6sHF0kWkddpKlO25NLzXmkNlfS0xzW0FYEq4DQCSAATwnlQebKXAtMbd3JOr0UMj6ni1WkrXlt01mfk83nSsy15qSKnSTpPOqerkTqLFuA9G7O6ba7zImuNBcC4hr1THrj42L6VWuuxp8oh42NtNx5tiFFLQpjf3i362JzTGkspJaSmnAfKR/OUz2u/qqgO74/Tb9FNqdV8CCa4bdjm89sp/wCSYx7ZJS+QMsHDVfJHHo1o3nRrE10FR197WmTosksewtfH1x/8RG6tbmxuH2l9E+3uYzSSGRpY9p6rSu6l62jWJcFqWrOkxomu5y6Ftt3axE0FzBPCBynU6T5i4e5Rri1+aR7XbTN+jY/iVaWtQ2/iFzNosbcatGyWZYHcpZK4kfBrBT/a5/ZaPmrfd6/vifkq5SyEAswNhtyeMdY7HetyNo/IXEk7a/w20iZ4hKrPccnVl8lr7Xj6cWvNYnAo9KNP8pKZ8nezk16W4mfXvnkq44o0rEfJRcs63nzW1/t/4c9/lf8AFUR3XjX9U32f/L9FzKFT7VfeB77Z37Y/9Ctmz9qvkpm+963mji6nGuzcD/KZzztv4r1Bd19VVj7P6bLfUMnGrG8T34zn2p3itVq2XtVU3fe9bzRtdjibFblPceP7VceMFWe4+9K2ds9mE3yns288xL4hXDXjCQv6Zaet7kcyucKJPFyssLb3Be1Mz5iHx3KG7r6ap3s/qt5LwUEsTWbex7/5bng9BGrP2/2Y/VUe5e9KGrvRxSoosMts9krn1vZfD3J4ZLK3J5+jaCqfmjS8x81329tcdZ+UPJt/jH5fY7LWMTdaV1u6SJvK+EiVo67F621+nLWfm8bynVitHyascIryq3KU4WRKd2tjLf7b4eOMVEU/rEnIGQgvJ64AXFvr9OKfn4O7YU6s1W0Q4FVlxU7v9um9BhLId0ZJ5iOo1rWDxipftVf3TKC7xb9tYVLg/bmN+12/pWqazeifJB4fXXzht4qcvKqN/fsPFfa3+iKlu1+ufJCd49FfNRan1bFkct7oc47K8X9MvdOMNyIvJs70dhUxe44OyMiAgIBQUVtl705Tz/zGqrbz3bILc+5LCLlaBBNd1nvDP9kf6Rik+2+5Pk7dl658ltqwJdTO8j3rn81D4qrfcPd/RDbz3EVUe41h7pv5rJ95F2XKZ7Xxsktj8VmqbSakNvPezId9H6Nqq+996UHuvclHlyOdZO6XuMp30PYeprtfC36JLY/FY6mUkoDaH2/k/tc/pCqluPct5q/m9c+aT7q7zoszd2bnUbcQBzW8ro3f8riu7tltLzHOHVsbfumFsKfSyA7xdlX3rP8AXbBjn3UTQy5hb+vE2vbgcOs3sKJ3+2m0dUcXDusE2/dCrRp08SgNeaJSnYfZqfM5OK8mY5uPtHiR8uij5GHWbG2vDp7rqKR2W2m99Z9MOrb4JtbX4QucCisiaQ3ebkPVdnxaNNH3srWf0WfSO7AUd3G+mPTm495bSmnNUFFW5Q8Lo3c+6tt38vjlWbt/tQmtp7cM/kvZ935iTxCuy/CXRbhLXhvcjmCp0K45SWV17vvdKw/tfSvVn2PtQm9p7cM9ffyVx5p/ildWT0z5Oi3CWure5CpytrQ3UXrn2d/jnEkQSMmZXklBBHXYp3tl9azVKbG3hMLBKl0io/bPA3GFzU5MdLO6kdLavHc0calnO0qr7zBNLzPwlCbnFNbTylH1xuVON2mCmusn/rUoLbW0DmwkjQ+Vw1dHeg9dS3bsE9XXPB37PFrbqlP83sphc+w+vQUm4rmKjJRT96hr8Klcu2pkjxhIZMNb8VN7RY62xGausbZyvlhgcGh8lNauqHEHVAGgmirW4pFck1j4IXNSK2mIYxamt6sXeOx2StL9ji028zJCR+yD2w+EVWzFfpvFnvHbS0S2Eje2RjZGGrHgOaRxg6QrdE6rDDssiG7zMkbPAizjdqyX0gjNP4be2f8AoCju4ZOnHpzce8vpTTmqFVyEMLFuAjsOSkw21EWViJDrO7bNUUqWtcNcaa8LahfVtlXq2lY50cFb9GXX5tr4ZY54WTxEOjkaHscOAtcKg9ZV6fBc4nWNWF2w2XtdrsHNiLl7oiSJYJm8LJWV1HHhqNNCORbsGacV+qGjcYIy0mstXMnjbvD5G5xd+zUurWQxyt4qj9ZvK08IKtmPJF6xMfFTsuKcc6S74bD3+eyUOJxkZlu7g0a3iaON7zxNaNJKxmyxjrrJixWyW0q2q2dwsGz+EssLbEmO0iEeudJc7he7i4XElVHJeb2mZ+K6YscUrFY+CNb1sTibnZHJZG8tI5by1iBtbilJGPc5rW0eNNNPAurZXt9yIifCXJv8dJxzMx4wo3YK/GM2zw1252q31pkT3GlA2YGJ3D36sG9r1YrQrmyv05ay2qCqS5ojvF2Nj2wwZgjJZkLPWmsHilC/VoYn1/Vfwc9F1bXcTivr8HFvNtGWnzjg1nuLa4s55bW7ifDcQuLJYXgtc1w4QQVaaT1RrHiqF6TWdJZPZnZvI7U5WLF41hJcQZ5qdpDHXtpHni0cA41qz54x11lu2+3tktEQ2oxWNt8RjbTF2lfV7SFkEWsauLWN1QXHjJ41U726pmZ+K50pFYiI+Dy7T5F2J2dymTYQ19razSRk0HbtYdTh0d1ResVeq8R83nNbppM/JqTUkVcanjPKVclGlcv+3/hz3+V/xVB9141/VP8AZ/8AL9FzKFT7VfeB77Z37Y/9Ctmz9qvkpm+963mji6nGuzcD/KZzztv4r1Bd19VVj7P6bLfUMnGrG8T34zn2p3itVq2XtVU3fe9bzRtdbibE7kz/AP4iMcl3ceMFWu4+9K2ds9mE+uIW3EEkDu5lY5juZwp+lcETpKSmNY0aiZbGXOEyVzib5hjuLWQsc12irQe1eOVrhpBVww5IvSJhR82KaWmJeIadPEtrVMLc3Be1Mz5iHx3KG7r6apzs/qt5LwUEsTWbex7/AOW54PQRqz9v9mP1VHuXvShq70cINkd0GXGU2LtIS6s2Pc+0kHHRp1o/6jgqvv6dOWfmtvbcnVij5Jy4BwoeDjC4Ui1l3jbHXGyudnfFC4Yi7kdJYzDSxut2zoSeItJNByKz7LcxkpETP7oVPf7Wcd5mI/bKHmgbUld8+HFHRGsr/wB0Ow0mBsXZ7KRujyd83VjhfSsVvUOFRxPedJ6lFW9/ueu3THCFp7dtPt16reqVmKNSrXvfdkmXm10VlGa+oWrI39R8pMhHglqsXbKaY5nnKr92vrk05Qg+D9uY37Xb+lau/N6J8kdh9dfOG3ipy8qo39+w8V9rf6IqW7X658kJ3j0V81FqfVsWRy3uhzjsrxf0y904w3Ii8mzvR2FTF7jg7IyICAgFBRW2XvTlPP8AzGqrbz3bILc+5LCLlaBBNd1nvDP9kf6Rik+2+5Pk7dl658ltqwJdTO8j3rn81D4qrfcPd/RDbz3EVUe41h7pv5rJ95F2XKZ7Xxsktj8VmqbSakNvPezId9H6Nqq+996UHuvclHlyOdZO6XuMp30PYeprtfC36JLY/FY6mUkoDaH2/k/tc/pCqluPct5q/m9c+b5YnJS4bJW+TgGs+3eHFgNNZvA5leqFjBl+3aLPOK/TbqX7Z3UV7aw3cJrHOxsjD1HCoVspaLREwsMTrGr7kL0ywNzsXszd3DrmbHxmRxq/Vq0OJ4dZrSAuWdrjmddGmcFJnXRmYLeC1hZb20bYooxRkbAA0DqALorWKxpDbERD6HgXplUO8rM/6hmm46MgwY4FpINayvAL+sKBV7uGXqv0xwhD7zJ1W05Icov4uNc+7n3Vtu/l8cqzdv8AahNbT24Z/Jez7vzEniFdl+Eui3CWvDe5HMFToVxyksrr3fe6Vh/a+lerPsfahN7T24Z6+/krjzT/ABSurJ6Z8nRbhLXVvcjmVOVtJ9gs0zDZ1on8hetFvI+tNQl1WOPUro+FduxzfbyePCXXtcnTfzXUrOmnjyeLsMvaus8hC2aFxrqnQQRwOaRpBWrJji8aS82pFo0lFW7rtnxLruluXR1J6LXAFDxVDdb41wfjMerkjZU11S+ztLext47W0jbFBENWONooAFI1rFY0h2ViIjSHzyuQhxWOucjNpZbxl5HBUgaG/CdCxlv01mWL26Y1a/3dzLe3Ut5P5WeR0j+PS8kqo2tNpmZ+KvWtrMzzfJYYFiWF1bAZV2U2cg6TytofVZDWtejALT4JCs+yyzfHEz8PBObXJ1U8kmXa6VS70MiLnMwWDdIs4u3Nf15aOp8DWhV/uWTW8V5Ije31tEckJUY4hebcGIQ/Ke0LnvyvrfbP+fH/AKwisvqlsLuo2sj2i2cjspiG3+Kay2nbWuvG0UilA6oFD1Qofe4Jx31+Flp7fuIyY4j41TtcKRYjM7L7P7QAf6xj4bpzdDZHto8DqPbR3xrZTNenpnRpyYKX9Uau2G2bwWz8Zjw1hDaawo97G9u4fvPNXHrpfLa/qnUxYKU9MaMroC1tyqd+G0zbTFQ7M251rjIFs1yQe4gicC0EfvvHxFSvbsOtuvkh+6Z4rTo+MqLDnNIc00c01a4cII4Cp+YjTRWYnSdW0uwO0zdq9mrbJOGrcs+gu2Vr9NGAHO5nd0OdVTc4ft3mFy2ef7uOJSWgK5nYwGc2J2X2in9ay+OjnuKBvTirJCBwAvYQT8K3Y9xenCXNl22PJOto8Xuw+Bw+BtjaYezjtISaubGNLjyucdJ+FeL5LXnW06tmPFWkaVjRkeBeG1VO/DaQWmJt9m7d/wBLkD0tyAdIgjNWgj99/YUp23Drbq+EIbuu46a9EcZUVVWD4qyuX/b/AMOe/wAr/iqF7rxr+qwdn/y/RcyhU+1X3ge+2d+2P/QrZs/ar5KZvvet5o4upxrs3A/ymc87b+K9QXdfVVY+z+my31DJxqxvE9+M59qd4rVatl7VVN33vW80bXW4l+bir5k2zN3Y1pLa3jnOH7szGlp67Sq73OumTXnC0dptrjmOUrP4VGJdjr/A4TKStnyWPt7qVg1WySxNe4AcAqRWi2VyWrwlqvirbjGrW7eZBDbbd5i3t42xQxvhEcTGhrWj1aI0a0aArNsp1w1n/wDcVW7lWIzTEJluC9qZnzEPjuXF3X01dnZ/VbyXgoJYms29j3/y3PB6CNWft/sx+qo9y96UNXejhBZ25HaAY/PXGCmH0WUYHQv1gA2aAOdSn77T8Sh+54taxaPgm+1ZoraaT/kvwEUUCsjz32PsslayWV/BHc20opJDI0Oa4dUFZraazrDxekWjSY1YHG7u9jMVdNvbPEwtuGHWje/Wk1D+4HkgLffdZLRpMuem0xVnWI8UmAAXPDreHOZaDB4i8y9zpis4nSuaDQu1RoYK8bjoC90pN7REfFry5IpWbT8Gp2VyVzmMndZW8/mLuV00gBqAXHQ0HkaNCt2LH0ViI+ClZsnXebc30wftzG/a7f0rUzeifIw+uvnDbxU5eVUb+/YeK+1v9EVLdr9c+SE7x6K+ai1Pq2LI5b3Q5x2V4v6Ze6cYbkReTZ3o7Cpi9xwdkZEBAQCgorbL3pynn/mNVW3nu2QW59yWEXK0CCa7rPeGf7I/0jFJds9yfJ27H1z5LbqrCl1M7yPeqfzUPiqt9w939IQ289xFVHuNYe6b+ayfeRdlymO18bJLY/FZqnEmpDbz3syHfR+jaqvvfelB7r3JR5cjnWTul7jKd9D2Hqa7Xwt+iS2PxWOplJKA2h9v5P7XP6Qqpbj3Leav5vXPmxy0S1LI3a7TwsidgL+UMLCX2b3uoCHEViFeQ6Qpvt+4jTolKbPNGnTKxwQVMpFygVogj21+0UWBxUskcjBfyDUtYiQXazjTX1eGjeFcm6zxjpr8WjPl6K/NSL3ukc6SRxc95LnOOkkk1JKq8zrOqCmZmdZcLz8Rc+7n3VtvOS+OVZu3+1Ca2ntwz+S9nXfmJPEK7L+mXRbhLXhvcjmCp0K5DlJZXXu+90rD+19K9WfY+1Cb2vtwzt9/JXHmn+KV1ZPTPk6LcGuw4AqdCtuUZXLsNtPFm8c21uHgZC1AjkYT20jGgasoHH1eqrLs9z110njCa22frrp8YSsGq73UIOCQFjQVvvJ2nhfH/wCPWT2vLi1969pBDdU1bHo46ipUP3Dcxp0Qjd5n8OmFcKERgssiwwtzddayQ7PSXD+C6uHyR961rY+y0qxduppj/VMbOsxTzTMkNBJ4BpKktXa18y9+7KZO7yLv/cyukb1Gk0YPBAVRzX67zKv5LdVpl41qaxebcGIQ/Ke0LnzhX1vtv/NT/WEVl9Us9u+2tGx20Db6ZuvZXLPV71o7oRlwcHt6rCK05F73mD7tNPjDr2O5nFf5S2asr20v7aK7spmT28zQ+KWMhzXNPGCFV5rMTpK21tFo1h6Fh6EHiy+WscJjbnKZGQRWttG6SRx4SGiuq0cbjwAca90pNrREfF4veK11lqxtRtDPtTnLrNXDdQ3BAiirXUiYNWNleoOHqq14MMYqxVTNzmnLebSxC6HMnm6rbJmy+bNnfv1cZktWOZ7nUbFKDRkpropp1XHk5lGb7bzeuscYSnbtz9u+k8JbGRTRTRtlhe2SN4DmPaQ5rgeAgjQVXFqidXdGRB4Mxmcbg7GXIZS4Zb28QJLnuALiBXVaD3TjxAL3Sk2nSGvJkikay1Uz+bu9o8vc5i+drTXDyQ3iYwaGRt5A1qtmDFGOsVhS8+Wcl5tLHLe0Ll/2/wDDnv8AK/4qg+68a/qsHZ/8v0XNVQqfar7wPfbO/bJP0K2bP2q+Smb73reaOLqca7NwP8nm/O2/ivUD3X1VWPs/pst+qh041Y3ie/Gc+1O8VqtWy9qqm773reaNrrcSebotpbfAbUer3soisslH6u97jRjZg4Ohc4ngHdNr1VHdww9dNY4wle2Z4pk0nhLY4EHgVbWpyg1h3p//ALAzfnIf/toVatj7Nf8A98ZVPufvT5Qlu4L2pmfMQ+O5cXdfTV1dn9VvJeNVBLE1m3se/wDlueD0Eas3b/ZhUe5e9KGqQRwg+ttcz2dxFd2shiuIHNkhlboc17TVrgvF6xaNJeq2ms6w2f2G2vttrsHBehzG3zB0d7bNIqyRuguDeHVdwgqqbnBOK+nwXLa7iMtIn4pOud1iDhxogpLfJtzDeU2TxMrJYAWy5Gdjg5rnNOsyEEaO1I1nfAFNdv2+n77K/wBz3Wv7K8PiqIqcQD3YL25jftdv6Rq1ZvRPk3YfXHnDb1U5eVUb+/YeK+1v9EVLdr9c+SE7x6K+ai1Pq2LI5b3Q5x2V4v6Ze6cYbkReTZ3o7Cpi9xwdkZEBAQCgorbL3pynn/mNVW3nu2QW59yWEXK0CMMvs3tBNs3fPv4IWzufGYSx5LQA5zXV0d6ujb55xW101bsGacduCUfmvkPw+Hw3ru/J2+l1/wB6eSJ7QZqTP5N+SmibC97GsLGkkdoKcJXBnzfct1OTNl67asYtDUzuy+1FxsxJcyQQMnNw1rTrktpqE8FOddW23M4tdI4t+DP0apF+a+Q/D4fDeuz8nbk6f708kPzWUkzWTnycsYifOWlzGkkDVaG8J5lHZsnXebOLJk67TLwLU1pBsxtZcbMNuW29uyf1ksLi9xbq6leCnfLr2+6nFE6Rrq6cOf7evzZ/818iP/4+Hw3Lr/J2+l0f3Z5IPf3Tr6+ub17Qx1xK+VzRpAL3F1B11F3v1WmebhvbWZl8F5eCg4eOtfhCwJ9s3vJlsYI7HNROnjjGqy6YayUHBrtd3XPVS+37jpGlkhh3ukaWS2Pb/ZSSMSG+DNFS10cgcOpTVUh/dxc3ZG6x82GzW9CwhhfHhI3XFwdDJZGlsQ6tDRzlzZu4ViP2eMtOTeREftVrf313kruS+vpDLcSnt3nk4mjkA5FCXvN51nijL3m06y868aPIjCW4Db68wOMjxkVpFKyNznCRznAnXOtwDnUhg3846dOjsxbqa10iHuuN6V/cQSwOsIQJWOYSHu0awot09ymY00bZ3szHBAwKADkUTCOcoyl+D3g3mDxcOLhs4pWQa1JHucCddxfwDnUjh3846RXR2Yt3Na6aPbNvTv5oZITYQgSNcwkPdo1hRbZ7lMxwe/7sz4aIHwaFEwj4FkfW2ubiyuGXdrI6GeI1ZIw0cCs1tNZ1ji9VtNZ1hZOD3n2romQZ2N0UzRR1zENZjiOMsGlpU1g7lXTS/FJ4t5HCzPO2+2UbH0nr7To0NDJNbraq7P7mLTXV0Tuac0T2k3luvLeSywcb4RJQG8edV4HHqN005yo/cdw1iYp/9cmbdxMaVV+dJJOkk1JPCSeEkqI+aNEZEHaON80jIYxV8jgxo6rjQJEazoRGs6NhMZZR46wtrGIUbbxNjFP3QAT8JVwx16axCxVrpEQ8m0uQbjMFfXpPbMicGDle/tG/GVr3F+mky8Zb9NZlQYFAAqkr7lZZF5twYhD8p7QufOFfW+2/81P9YRWX1S8lVINSXbEbw8tsZI6GJou8ZK7Xlsnu1QHHhfE7Tqn4iuHc7OuXx4WSG13tsXhxhcOL3x7FX8LX3Ny+wlPdQzxvND38Yc0qFybDLWfCNU7TuWK0eM6OmS3y7F2UTn2k8uQlFQ2KCJ7QSP35QwBZpsMtp8Y0MncsVeE6qZ2y26zO2dxW9PQWEbta3sGGsbf3nn9d/VPwKa2+0pij5oDc7y+WfkjNV2uEQc8KwJzsLvNyWx7P9PniN9inOqIS4iSGvD0JOin7pUfu9jGSdY8JSm07hbFGk+MLZsN7+w17HryXzrR/HFcRPB4K8LA5vxqHtscsTw1TdO44Zjjo8eX307IWEbhj3S5Kf9RkTDGyv7z5Q2nwArZj7dltx8GvJ3PFWPDxUrtTtfmdr7xt3lnt1Iq+rWseiKIH9nldyuOlTe321cUaRxV/c7q+W2s8GCXS5RZYSzYfb272I9dNpaRXXrvR6/Suc3V6LWpTV5ddcW62sZdNZ00d+03c4ddI11Sz8+8v+E2397J8i4/xdebt/L2+lW+cysmczF7mJYxE+8lMzomklrS7iBKlMVOisV5InNk67Tbmx44VthpS/YjeDebERXkVpZxXXrjmPeZHubq9GCBTVHVXDudpGaYmZ00SG13s4YmIjilP5+ZimjE21fOyfIuX8XX6nb+Xt9Kt89lpM9mLzMyxthkvJTK+JpJDSQBQE8yksOOKVisfBEZ8v3Lzbmx63NJoOgioRnVZGx2+HK7P2zcdl4XZSzjAED9fVuI2jRqazqh45K9dRW47bFp1r4JjbdztSNLeKVXG/vENjPquKupJaaBI9jG16pGsfiXJHar6+Mw7J7vTTwhT+0WbuNo83eZu6iZDNePa50cdS0BjGxtAr+6wKaw4vt1ivJBbjNOW/VLLbEbb3WxNxd3Npax3Ru2Mjc2VzmhuoS6o1edad1toy6Rrpo27TdzhmZiNdUwO/vMcWJtq+dk+RcX4uv1O/wDL2+lX20+em2mzdznJ4WwSXWprRMJc0ajGx6CeXVUngwxjp0orPm+5ebMQtzQIFUGQwmbyWzuRjyuJm6C6j0VpVrmnhY9v6zStOXFW8aWbsWa2O2tZXVs9vvwV3BHHtBFJYXfBJJGwyQE/tDVq9vMQoLN269Z/b4wsOHulJj93hLPT72dg4IjKMoJTSojiilc89ShYPjK0Rss0/wCLpnuGGPirjbXfJdZq1mxez8DrOzmaY5rmU/Tva7QQwN0MqOrVSW37d0zFrTqitz3Obx018IVdQDgAHMpfSELqIw+1lcmzvLe8a0Odbysla06ATG4OANOZeb11iYe6W6bRK0/z7zHD/pFsP7WT5FER2yvNNT3e30ozttvGvdtrO2s7uyitW20pla+N7nFxLS2hDh1V2bXZxitrEuPdb2c0RExpohi7YRwsjlvdDnHZXi/pl7pxhuRF5NnejsKmL3HB2RkQEBAKCitsvenKef8AmNVW3nu2QW59yWEXK0CAsAsMCRDIvQLzMMCaAsgssixowICAssixLAsGosyCM6iyCAsMSIaiGgsgjIvLB8KaMwL0wIyICxowIzqIwLLIgIwz+xOMOU2ltIzXooD6xLx6ItIHwuouzZY+vJHy8XTtqdV4XiFZ04rzerk3R21niY3UE7nTTDlbH2rB4R+JQ/c8kxEV5o/fX8IrzVkoRFiAvNuDEIflPaFz5wr6323/AJqf6wisvql5FINRXQgV0IOUHBWAWQQEHKahVYBBwEiGRZYEAICAsAgcSAFkFiAWQCwOSU0HHKsgg5CwOFkcrGg4WQQEBBzVYHCyFViAWQQEDjqsBxpPiCyCDlvdDnHZXi/pl7pxhuRF5NnejsKmL3HB2RkQEBAKCitsvenKef8AmNVW3nu2QW59yWEXK0CAgICAgICAgICAgICAgICAgICAgICAgICAgICAgICAgICAjCyd09jSPIZNzdLnMt439Ro130+EhTXa6eE2Sewr4TKx1MpJS28HJjI7STsZ5KyaLZp5XNJc/wDrOVZ7hk6snl4IXd26r+SMLhcgssi824MQh+U9oXPnCvrfbf8Amp/rCKy+qXkUg1CAgICAgICAgICAgICAgICAgICAgICAgICAgICAgICAgICAgICAgICAgIOW90OcdleL+mXunGG5EXk2d6OwqYvccHZGRAQEAoKK2y96cp5/5jVVt57tkFufclhFytAgICAgICAgICAgICAgICAgICAgICAgICAgICAgICAgICAgLDC7NgcecfsxaB+iS41rh45OkPa/1QFaNnj6Mcf/AFO7aulISC4mZbwSXEhoyJrnvPUaKldVp0jVvmdIa8XVw68up7t4o64lfKR1ZHF36VUL26rTPzV206zMvkvLAgLzbgxCH5T2hc+cK+t9t/5qf6wisvql5FINQgICAgICAgICAgICAgICAgICAgICAgICAgICAgICAgICAgICAgICAgICDlvdDnHZXi/pl7pxhuRF5NnejsKmL3HB2RkQEBAKCitsvenKef8AmNVW3nu2QW59yWEXK0CAgICAgICAgICAgICAgICAgICAgICAgICAgICAgICAgICDlhaJGl7dZgcC5vBUV0hInxIWJHvWETGxx4sNYwBrQJaAACgHcqZjucaaaJGN9EfB5MvvLlyeMusfHY9CbmMxdL0mtQO0O0UHEteXuPVWYiOLF951RMRCCqJhHCyyIC824MQh+U9oXPnCvrfbf+an+sIrL6peRSDUICAgICAgICAgICAgICAgICAgICAgICAgICAgICAgICAgICAgICAgICAg5b3Q5x2V4v6Ze6cYbkReTZ3o7Cpi9xwdkZEBAQCgorbL3pynn/mNVW3nu2QW59yWEXK0CAgICAgICAsAjAmoICAmoICyyICAgICAgICAgICAgICAgICAgICwwLGjIsgsggIC824MQh+U9oXPnCvrfbf+an+sIrL6peRSDUICAgICAgICAgICAgICAgICAgICAgICAgICAgICAgICAgICAgICAgICAg5b3Q5x2V4v6Ze6cYbkReTZ3o7Cpi9xwdkZEBAQCgorbL3pynn/AJjVVt57tkFufclhFytAgICAgICAgVWBy0Od3LS7vRXsL10TPwZisy+os7w8FtMeWkbvkWYpbkz0W5S7jHZFwBbZXBHKIn/Is/bvykiluUuhsr4Eg2k4pw/RP+RPt35MdFuUujoZmaHxSN75hHZWOi3Jnol89YdbQRo4V5mNHnRysAsggICAgICAgICAgICAgICAgICAgICMCMiAgLzbgxCH5T2hc+cK+t9t/wCan+sIrL6peRSDUICAgICAgICAgICAgICAgICAgICAgICAgICAgICAgICAgICAgICAgICAg5b3Q5x2V4v6Ze6cYbkReTZ3o7Cpi9xwdkZEBAQCgorbL3pynn/mNVW3nu2QW59yWEXK0CMC8zLIdArxJqPXY4rJ5N4ZYWktxXjY06vhcC3Vw3twhsrjtbhCS2G7TaK6o656K0adP0jtd3WZVdtO25J4uiuyvPGdGfs91Fk0A399JKa6WxNDBzVdrFddO2VjjLprsqxxlmbXd5stbAa1oZzw600jndghdNdjij4N1drjj4MrBs7grYfQ462YRwERNJ65FVvrgpHwht+1Xk9zLa3Z3ELG8zQP0LbFY5PekPoBRZiGXKyCDo6KN3dMa7nAKx0wxo88uLxs/lrSGSvDrRtPZC1zipPGIeZpWfgx9xsdszc+UxkArxsb0fiELxO2xz8HicFJ+DE3O7LZubWMInt3HgLJKgcwcCue3b8ctNtnSWGu905oTYZGrv1WTx9lzD+hctu1x8JabbHlLB3m7nae0q6KKO6aODongE8zX0XJft+SOHi0W2l44eLAXmKyePNL20mg6r2EDr0ouW2C9eMOe2K0fB5KjhC1PEyLESCyCyCAgIwIyICAgICAgICAgICMCAg+kFtcXc8dtaxulnldqxxtFS49RZrWbT0xxlmleqdISR+4q8vHG6ny7IJZu3fCIS8MJ4W6+uK0X0Tab/7WKtJjhDbPaZtOurr+QU/44z7sfrF0/lf4sfh5+o/IKf8AHGfdj9Yn5X+J+Hn6j8gp/wAcZ92P1iflf4n4efqPyCn/ABxn3Y/WJ+V/ifh5+o/IKf8AHGfdj9Yn5X+J+Hn6j8gp/wAcZ92P1iflf4n4efqPyCn/ABxn3Y/WJ+V/ifh5+o/IKf8AHGfdj9Yn5X+J+Hn6j8gp/wAcZ92P1iflf4n4efqPyCn/ABxn3Y/WJ+V/ifh5+o/IKf8AHGfdj9Yn5X+J+Hn6j8gp/wAcZ92P1iflf4n4efqPyCn/ABxn3Y/WJ+V/ifh5+o/IKf8AHGfdj9Yn5X+J+Hn6j8gp/wAcZ92P1iflf4n4efqPyCn/ABxn3Y/WJ+V/ifh5+o/IKf8AHGfdj9Yn5X+J+Hn6j8gp/wAcZ92P1iflf4n4efqPyCn/ABxn3Y/WJ+V/ifh5+o/IKf8AHGfdj9Yn5X+J+Hn6j8gp/wAcZ92P1iflf4n4efqPyCn/ABxn3Y/WJ+V/ifh5+o/IKf8AHGfdj9Yn5X+J+Hn6j8gp/wAcZ92P1iflf4n4efqPyCn/ABxn3Y/WJ+V/ifh5+o/IKf8AHGfdj9Yn5X+J+Hn6j8gp/wAcZ92P1iflf4n4efqPyCn/ABxn3Y/WJ+V/ifh5+o/IKf8AHGfdj9Yn5X+J+Hn6j8gp/wAcZ92P1iflf4n4efqPyCn/ABxn3Y/WJ+V/ifh5+o/IKf8AHGfdj9Yn5X+J+Hn6j8gp/wAcZ92P1iflf4n4efqPyCn/ABxn3Y/WJ+V/ifh5+o/IKf8AHGfdj9Yn5X+J+Hn6j8gp/wAcZ92P1iflf4n4efqPyCn/ABxn3Y/WJ+V/ifh5+o/IKf8AHGfdj9Yn5X+J+Hn6j8gp/wAcZ92P1iflf4n4efqPyCn/ABxn3Y/WJ+V/ifh5+o/IKf8AHGfdj9Yn5X+J+Hn6j8gp/wAcZ92P1iflf4n4efqPyCn/ABxn3Y/WJ+V/ifh5+o/IKcUIzjNBB/lj9YsT3TWNOlmvaNJ9S6GN1WNbyADrKFT0RpDsjIgICAgorbL3pynn/mNVV3nu2QW5n/0lhDoFTxLliWhlMXs3m8yQbC0e+N3BM8akdO/d+hdOPbXvwhtx4bW4QmuL3Uw1bJmLsvI0uggGqObpHaesFJYu2RHqduPZRHqSyz2O2ZsdUwY2AvZpEkjBI+vLrPqVIU2uOvCHZXBSPgzDImRtDI2hjRwNaKDrBdERo26O6yyICAgICAgICAgICAsBRB1dG17S14DmnhBFQeukxqMXc7LbO3jzJc4y2fI4ULzE0O64FVptt8duMQ1ThpPjMMFf7sNnrirrMy2TiNAY7XZ4L69lcuTt+OeHg57bOk+MeCL5Ddfmrcl1hNDdsHAPJP6xq341wX7beOHi5rbK0cEXvsNlsY7Vv7OWD95zTq6P3hUfGuG+G9eMOW+K1eMPF2Fp1axZYFgFkEZEBAQEBAQEBAQF5mWBZGUwezmT2hn6Gwj+iaR0tw7ybBXTp4z1AujBt7ZZ8G/FhtefBb+A2SxGz8bTaxB91Sj7t4BkNeGh/VHUCsWHa0x8I8Uviw1pwhnaLqbyiBRAogUQKIFECiBRAogUQKIFECiBRAogUQKIFECiBRAogUQKIFECiBRAogUQKIFECiBRAogUQKIFECiBRAogUQKIFECiBRAQEBAQEAoK1yG77J5vaPI308zbSylm1o3015HDVaO1boA4ONQuTYTfJNtdIR+Taze8zPBIMNu+wGK1ZJozfXDf+rcULa8rYx2oXbi2VKfNvx7alfmlDWNa0MaAGgUDRoAHUXZo6XaiAsggICAgICAgICAgICAgICAgICBQIOHMa8FrgHNOgg6QViYGCyOxmzWRqZrFkch/6kP0TtPH2tB1wubJtcd+MNFsFLcYRm53T2jtY2eSljP6jZI2PaOcjVJXDbtlfhLmnYxzR/I7t9pLKrrdsd6z/wBE0d4L6dlcl+3ZK8PFz22d4Ru7sL6wfqX1vLbu00EjC3g5CRpXFbFavGNHLakxxh59C1vAgLLIsMCAssiAsMCAsj243DZTMP6PG20k5rQuAowd886AtuPDe06RDZTFa3BPcRusij6ObNXZlcKF9rCNVleQvPbH4FLYu2xHjaUhj2Uf5SsC2tre1hbb20TYomCjY2ANaBzBS1axWNIjRIRERwfZemRAQEBAQEBAQEBAQEBAQEBAQEBAQEBAQEBAQEBAQEBAQEBAQEBAQEBAQEBAQEBAQEBAQEBAQEBAQEBAQEBAQEBAQEBAQEBAQEBAQEBAQEBB85oY52mOZjZGHha8Bw6xXmaxPFiY1YO+2I2ZvyXy2LI3nhfCTEf6tAue+0x2+DTbb0t8Efu91Fi8udYX0sP7LJWtkA+EapXHftlJ4S57bKvwYO63X5+Ek20tvcN4u2LHH4HCnxrlt228cJaJ2dvhLEz7E7VW9dbGySebLH9grntscsfDVonbZOTz/wDiu09K/wCkXWj9wV7K1ztMsf4y8RgyTPpl1/8AGNpfwi7/ALv/AIrH9bJ9Ms/YvycjZbaYioxF1y9x/wAUjbZZ/wAZLYMkRwl97fYvam5IDcZLHXjl1WD4yvddnln/ABeq7fJPwZux3XZqejr24htW8bRWV/xUb8a6qdtvM+MuiuytPGdEpxe7XAWJ6S7D76QGo6U0Z4DaA/Cu/F2+lePi6abSlfmldvbwWsQgt42xRN7ljAGtHwBd9axWNIdcREeEPqvTIgICAgICAgICAgICAgICAgICAgICAgICAgICAgICAgICAgICAgICAgICAgICAgICAgICAgICAgICAgICAgICAgICAgICAgICAgICAgICAgICAgICBRBxRAog5og4ogUCDmiAgICAgICAgICAgICAgICAgICAgICAgICAgICAgICAgICAgICAgICAgICAgICAgICAgICAgICAgICAgICAgICAgICAgICAgICAgICAgICAgICAgICAgICAgICAgICAgICAgICAgICAgICAgICAgICAgICAgICAgICAgICAgICAgICAgICAgICAgICAgICAgICAgICAg//Z;" vertex="1" parent="1">
                    <mxGeometry x="26" y="453.9" width="145" height="52.2" as="geometry"/>
                </mxCell>
                <mxCell id="27" value="" style="shape=image;verticalLabelPosition=bottom;labelBackgroundColor=default;verticalAlign=top;aspect=fixed;imageAspect=0;image=data:image/png,iVBORw0KGgoAAAANSUhEUgAAAQMAAADCCAMAAAB6zFdcAAAA0lBMVEX////wGjwAAAD4zdLvACjuLUrtCDX+6OrwACzwETjwTmHtUGL8///52NjtCzTrACjzW2v3t7+5ubnU1NT39/eampqPj4/l5eXNzc2EhITu7u6urq5zc3N8fHz3vsIXFxftKkMQEBDg4OChoaH0m56SkpJXV1f+9fT3sbvFxcXziZE+Pj4rKytmZmaxsbF2dnYoKChHR0dqamodHR1SUlI5OTn4qazuQlfrAB/xfYZFRUXytK/wTVr3e4HuO1D1yMnza3n0k57/7u/4o6XoAA/xg4weuDc9AAALP0lEQVR4nO2deUPiSBPGQ4uCMzFo7oN4JIIbgSBBFJ313He//1d6q7o7B+c6f4wi1LM7S47urqpfd1d3OHYUhUQikUgkEolEIpH+nNS9r5P51cFLqffT+hdp2vjq4HP9OKx9kQ6IATEgBsSAGBADYkAMiAExIAbEgBgQA2JADIgBMSAGxIAYEANiQAyIATEgBlvE4PDPa+MZ3B///MP6sekMtF+Nqz9sTT3fcAa1Zr1V+/vfl5nvRqgq/lH5IT9TVzSk8sKqWqmpymtloauNZ8BzglZ/rsR59NfT8f3z8/n5+f7z8/2P46fLk70rZZYEsrl6uXv6iQUv8zvqK9b4+Xp50hBlUN+DAWi6V8RxPG1plYymaVqz2ZrWXu+qk0a9uruf1pvaASRV7bi4PD2QNaba04uE8G0Y1E9zBnvThZsiczS16ysZlqr+ozWLRrTjYoS0KuXr9y/82rdh0DrJb542lzOAKdO6l2lDfa1X6SxlAAG3rvHat2HQLBnUF26W0b6KRPk6w2kVAxhd1+rWMajV93iR2emymgFMse1joD3ggrA/W38Ng8NndesYHNwvKbGGQa3+om4bg5r2DtlA+zgDyCBbx6B+BGN7rvo6BrXa1s0F3EfszRdYy2Da+IYMTlbuD3i5O+VyvsBaBs1Tc9sYaNfKkzZ/bR0D7U7ZDgZaETbkuPvfY/Cg7m8DA+3h7Tk/XvI23PqceP5UOfm+DOoN5XjNW5DrGdQOtoPBkXJ8sHD1owxmeHxfBg1iQAxgn/NODPaVnWcwPdl5BvUndecYTLWKmi3tDiPcLQZ7/15X9HZ6xQPcLQbLtVsM5j9XE+e7xeDosqK3O/lJ5G4xOJk2q2qd36m7ty7Mr42tB2JAeyTQIe2V6ZkJRe+h0PsHxIAY5Dp8eNtfuLhjDCqfsewug/XaPgarv5MldLiQGXaOwcGPhY+ctpDB2u8f1JqnC5B2jsH0aCFh7BwDTf1r1xlo18RAa+w8g+k/irLjDOr4ttpuM6hfqzvOQNNOeYGtZdAqfsOxnMFhs3YtCywyeM0bVtevqxvOoP6SM3ifLjwkHmqt/bf3vPYSBsXvgNY+X246g/81ijiOHg6n9eIzlnp9Wv/7cs8sf6m2wGBa/qbr+T8gbCYD/AWW1qrdVe+r73unp79+3YF+ne69z9UuGfCqrfPr8l7juNZqNbWV7zdsJIPD49fXh7eXq7lPWlf9oBGVMzj8+fr07+Xp0Uw1wHf39vD0+rz8+4wbyUD7dXTUOPotvUkGzbtGY3lVuP6wfCRsJIOa1vxdFe+haK368hL1enP5MNhQBp8rYkAMiAExIAbEgBgQA2JADIgBMSAGxIAYEANiQAyIATEgBsSAGBADYkAMiMG3Z/BfXxf5UzrUNobB8fn+V2ljGKz7hsW2WiaRSCQSiUQikUgkEmm3NOhNxv1+/+am9zga9c/6/bPoE607N/3++OZxAg5MHrl14xOtlzJdBnLw0Lfg6DO9iMBe6Cg6vFiKb8OL+4nWqwLTF/Iw+HQGbXgRDBTF+noGETgw+GwGvlIyUPqfar2qnIEOfhjSCzNue7avpDw7+FboDRN+5Hm2beH/CdLFIy/E+5EXeh6vZoRw0bZEswkcQqEYC+KRLkt4qaJ0RJGIZdxwzqDDdI8X97xOwg9iUVAX1/K2eMM2ehRBex1fsavxmNYgA2sGN+J3snbm8TCsLGu327ooE8JhOwzmGXhoUDBwWeabUde4wcoB83zTuOjhsZNCabRoRjFjsQM4PJaaps4yODSdDiYXkVZv4ShxHN+JeowNnAh73Ga6aaYD9zFnoM8wMJjrOEFezysSldLDVIHXjD5jQwcENyFGvW+YpvuYsQqC6GbkK2bHypBBwgamYnoMQzP9LjRzqwhL4JPvF3/DYM6giwUzgyOY8DuPGI7FusJfEZteZK6QX+/y9gHUhDfYveXOQQdMLhgTNtoyRCXMQ+3mDJwZBgq27DB25vOz0YiJxiOI/ExUgTBE58VQxREu+eMKA0fML3DbQgQi002ET06/L6laj4x5FXCSgcnteeCFfyFdisBGkoc8YGMMyYHQRGw4d6BnZaDAFV886MY+HqQem2cQSPcUb5QzUGYZ9GcYDGGo8ZKxPc8AII47MHdEQbfCoJcDHiMjJmYJjF6cOeYgk1Tb4QKDMx4N3hWjO89NowgQSo9i4ajjjWS4esAdlvEMRCU7kpPB0xcYMDaWfZXPhd4cgyypMggdORmG+hwDEypaNpzICT0ugtFlkPx+W4TO28SRbWZwG237bXuBActw9srK5kU+DSEi2D0IR3EKTTgD9CyQDDpFU3AUYg05U5XbaJ4B2JddZGby1ZljgEmjwsAX3WYOjDkGbg+zMp7Y3ERYBANx6NJfWyk8UETHgF3Gx2Kqe4vjwIySiWDgK6VBJYg6rJy8HI3j4ZjGFpHBpCAXC0ScGnSL0VlgMMxHJgwSpaqSgeyzgkHCG03ieQZeD1crtAnuWZWtrVnu8nwbd3/y+lgMnwyHKzjc9hcZXPAYeTQDpxx40C8wb7LCN2weGKAjfcGA5SkKwWC+sCPlAstZxgKDkcyWoOSDDExO24tmGIRpKCegOWZcvTSvnM9EvOnqJYMet2AO0Bbw6ymL+YBnzx5nMPLjkgHM0GUM0LVwjoEuXAcGIfZ3jy8/MwxuSgazWsnAQfOWMoGkV2Hg6TZnACsbThauvLpRMhAulQxszgBdd2CarGAw5Iso84Oyqul6MgEWiJEBLhYsSebHwY0YB+DwxMkWGUxKBq7/QQZgaBSFswzAoI05ynZhPPlxl0MwZ5wURpaNA6Qax+4qBoHFG/HB4IVs0onjfFfBm/clA1w6xnGKO4hKPsCMCwxM6HDYDC4wGJRmLeeDDPwzGHHJAgMDGbQNhbtWfdTzK099nlEyYDxVIgNYJrtdZRWDBP2AJdcsWRpxxOR+CbsETQoGsLXnrVpiNVD4RsESDDD5MX+RQYlT8T46DhAcU5T5nGgi7rGhSAOwZ8kftoB/nhw8uQjIGH2xHuGUzlYykCcO2pVJS09wsXHyIPGqI2KOBANf7oj4iECHcGvu8k3DAgO/7JZw5q/BXsdA5+BwHJgoZBAr8AKbdeaaLBFXbWAAe2J+BBOfXwRHPQQCF9EXfEA1uwXFNQzaGLFRdC48BBj5gtsTicGQ24VYXI/z9x5kYhjqvEV7CYNy7+WX6/k6BgOX32unKUR2EaD0Cbux0kSHfwZjO2HdRNcDXO3h1mAIJ3q3e4MviW5ZSTrptt00cHC4YpMm9lfAPV7JwGyLPUAgA0s63MOJcFRs7oI8/dwKNqHgFcomx0MEgbFGRbcXzwu3Mr8OZt+smmXgY58Lx6DJ5JFZug67lItUR/VYFrtOZBidXtgxvDBwI/jXGxipa1up4ySJN4EnLjeKYsM39PQ2coGB3O+7GJbPN32V/UFsdUaYVgcdy7JFhsXo3T5L/MgW3WX0ewYsFljFDKDuhaULX1MJZehEIQcSxZD7s9hxmZ/GuGx5cZrEFmwYJnGAQ6DDsshPupV3SgLL4s+HzLOsGIZzIOvpRgxTexiAwSBso4/dtue14WZ/2LY863bQDS3jNtGHQRpklmvo7dvbxE10F0aC5SbB0E1c3U0GnSB1R/z5N4J0eKMbSi803QQWil7i8r4wXNfgclH8SPSBYdlx0VtwEvCBYfIyrhjRRr4ZSTqdhNdy8LYLC5+hiNbwv6JZV9jz9U5HryYDIzeL9k00IOtF4lXXYx36Z154qZOmHbgdZsMYR0jcDXUhewCA0vykO8hEdktjmExxAH5HFh4GcawrJBKJRCKRSCQSiUQikUgkEolEIpF+T/8HNGJ0lwELXFMAAAAASUVORK5CYII=;" vertex="1" parent="1">
                    <mxGeometry x="230" y="440" width="106.8" height="80" as="geometry"/>
                </mxCell>
                <mxCell id="28" value="" style="endArrow=classic;html=1;entryX=0.5;entryY=0;entryDx=0;entryDy=0;exitX=0.5;exitY=1;exitDx=0;exitDy=0;" edge="1" parent="1" source="26" target="23">
                    <mxGeometry width="50" height="50" relative="1" as="geometry">
                        <mxPoint x="70" y="560" as="sourcePoint"/>
                        <mxPoint x="120" y="510" as="targetPoint"/>
                    </mxGeometry>
                </mxCell>
                <mxCell id="29" value="" style="endArrow=classic;html=1;entryX=0.5;entryY=0;entryDx=0;entryDy=0;exitX=0.5;exitY=1;exitDx=0;exitDy=0;" edge="1" parent="1" source="27" target="23">
                    <mxGeometry width="50" height="50" relative="1" as="geometry">
                        <mxPoint x="108.5" y="516.1000000000001" as="sourcePoint"/>
                        <mxPoint x="151" y="570" as="targetPoint"/>
                    </mxGeometry>
                </mxCell>
            </root>
        </mxGraphModel>
    </diagram>
    <diagram id="jhhCv8HvNsVw0E76rjpj" name="Create All the data into Chunks">
        <mxGraphModel dx="552" dy="763" grid="1" gridSize="10" guides="1" tooltips="1" connect="1" arrows="1" fold="1" page="1" pageScale="1" pageWidth="850" pageHeight="1100" math="0" shadow="0">
            <root>
                <mxCell id="0"/>
                <mxCell id="1" parent="0"/>
                <mxCell id="Juhrh1xm0XwwKIA4C4Ys-15" value="" style="rounded=1;whiteSpace=wrap;html=1;" vertex="1" parent="1">
                    <mxGeometry x="30" y="190" width="230" height="260" as="geometry"/>
                </mxCell>
                <mxCell id="Juhrh1xm0XwwKIA4C4Ys-1" value="" style="shape=image;verticalLabelPosition=bottom;labelBackgroundColor=default;verticalAlign=top;aspect=fixed;imageAspect=0;image=data:image/jpeg,/9j/4AAQSkZJRgABAQAAAQABAAD/2wCEAAkGBxMTEhUTExMWFhUXFxoYGBgYFxsfGhsdHhsfHh4gIB4dHyggHholHRoaITEhJSorLi4uGh8zODMtNygtLi0BCgoKDg0OGhAQGy0lHyUtLS0tLS0tLS0tLS0tLS0tLS0tLS0tLS0tLS0tLS0tLS0tLS0tLS0tLS0tLS0tLS0tLf/AABEIALcBEwMBIgACEQEDEQH/xAAbAAACAwEBAQAAAAAAAAAAAAAEBQIDBgABB//EAEYQAAICAAQDBQUEBggEBwEAAAECAxEABBIhBTFBBhMiUWEycYGRoSNSsdEUQnKSwfAVM1NigqLh8RaDstIHJDRDwtPic//EABkBAAMBAQEAAAAAAAAAAAAAAAABAgMEBf/EACwRAAICAQQBAwIFBQAAAAAAAAABAhEDEiExQVEEEyJxgSOhwdHxMkJSkbH/2gAMAwEAAhEDEQA/APouV7pTUai6CnSLNAmgT6Ek7n9YnrgxQ5JAAFHqbPy6fPAs2YoHoPkMewZlVKjUAXvSL3baz79t7xrRhsGfoN+2zH01ED5LggEDkP4YEhzyyFwpPgbQ21U1Buvoym/XCXiXF5PtVgEZkjElhiSVKqSmpBRCuao3yOEOzTfpI5ULwQZwFtiFWtySABjDvn5hIty+FxEy+Dw6TPpeyBYuKSLe9m35YnGzd0HJIlin7tXclrAkbLFzvzuUk78tJwmNM2eT4lG7aENkAkkA1saq+RN3y+6fLGe7UZ6TTKtnwNGDpJHgeTQxFG9So6Nd8x5GsNeFoom1Ip0NHV8wCkj9fXW/yxbnOHKQ7NbEknl02Ok+Y8K/uj1uey3wZpJWfL5d6OohA4DEHU8TR0D5iVUIPnvivKZkh1fUXTMJqRq9l+41Nt+qJNBYDoyP1bDTImCipUAatRBZR4gxbVWrY6/F7zfri5spFoIjCqL3ClSOp5AmhZP1wTelWEI6nQt4e5Jika2kiWTLSbUzG0Ksb3GpVD/8zFuedZHjO4KMeRBDKeamxyJCk/s445Ng1jrzIABO1bkbnahghMh6n5459c5Pbg61jhFfLdnn6JG0csdkCTvOQHh7zc17n8V+uBZMohZwb0ukiUDyDkNt7nBYeWthhvBttisy7nFNy8kpQ8FZhXQI96WUyKRQI8ZcLuCCBen3bYvy+ZVQFAJH957P+n4YDFbnY4FagDQF7Ylyn5KUMfgfyZ5RyF/HFEnEQdqPwOM/NMdVVgyFeWGpSfYnGC6L804bdkB95H8cLri6qfg5r6bYNlZi1AbYojyZ6r9R+eE3PpjSx9pFEOcVSAqkbb17v2cMxnQRsASfvM1f6YHXI+n1GCo8mo9Pj/pgXudsJe10iEeZkbYJDfvf+AwdDY9pbPmrsB9TeKYIwGPP54MR6G2L38mb0+CBajtt77P4nF0b/eIPwr+OBTd2TiWr/fD3E68F7TDyHyxUc/X3flgCXNqDRZfIeIWcLouIRGRoxJGZN/AHUvtz8N3t7sLcNjQz8QIF3WBo+LPdYT8R4tCjRxySIHk9hTuzfsqNzijMcbgjzCQM5757KJ3b+IAEkg6dJqj1wUO0aL+liLG94kvFPM4y+e41FGrO+sfaLEFK0zO1aQuqgb1c7rY2djicGYZmZGjdKCkMSpDXd1pJ3FCwa5jDFsaccVHnjjxIefP/AGxmMw9mhixIyepwrCkaaPiqkA3zx2MHPmijuhs07Ae7Ua+lY7C1D0gnDlKZkRspamSFmOo2Y2aeFiTzPc2Ga92UYN4U5CwIdROXzCgcmZopImCmlvZRKB/yrONAJYjdFWJ56Rqvp0vzrF6TVyR/kFH+Yj8MdVHEBcNMneOwiYLI0TkkBa8GhrDHVYCJ0/WHkaMkyOqUSEJak6WrxBSmkof7pbxVdbDaxYvDPXJFHmWJ+lAfXHugnnIf8Civrq/HCGLYeBoI4o3Z37uEwbWCynRzq21fZobBFEeuD8tFAhoIurc7nU3iIJoeJhZUHlzA8sSWBDzBb9piw+VkD5YJ7kFdOkBfIbfz8sA0XRZyzQ+pr6bt8wuLpI9SnULHkeXxH++I5WEDkB8sWZqMMKbl6nY/Ac/j8sQzRcGayc8cTODIo33BK7bgcgRQtgLrqMNInaRmqilLTDkTve9n0x5Dlo4v6tAPgBQ8gFAGJNOT1w5LUEHpCIYF5Fh/P8+uBJyQSD0xyjfFmbPh1eWxxDiktjRTbe5lsv2nWSWaGOKVpICBIv2Yq7qi0gBvSeWBZ+0YXMZeBoZQ+ZBK3oAWhbBqYkEeljyJwm4PC39KcQb7VEk7rS4UhX0rRpitEgk8j5487RZCUZ3hjossiw6xI4Rm0qQigsQNyfET7jiQtjHifa6PLZkZedGiDAaZiQYtyas819luYFUTy3wwizLtO0WgadAcPqu7JFaa57efUYhnchHPNLHLEzxSQxqSUbTau59rowDg2OXneAezXAMxkpZF1NPl1iPcC11qdV92SaHuN1V8uWCgtlg7QqmeTKPEQslqk2rZpAAxSq8mUar9o1WDu1HF58qY3TLiaMk6grESKALJAoggAE8+nlvgDjXZGWfJKF1/pKsJl8SgLMW1OdzQFlq3NbVdY0Hd5lxlHeELJG5aYB0r+pkQ6SDvburAGtgfi1QrZXk+MLOMvJl3jeKVyjeE6lIjZ69oU3gqiOt74H4JxZ85JmO7IjhhkMQNW7sPabfZU8hRJ52OWJydkUTOR5rLnuqctNGNkktWXVQ2DjUT5c+RJJ8yPZubLzTSZRlMUz63hkDeF97KuoNXfIr5eWDYNxf2uz2cyuTzEyyJqjdShEYooxRaZTfiBLbgi/LoG+Z4kY8oJdY1GNArNQBeTSEugABrYfDHnaLgk+Yys0TsF7xQLEbMqAG9hYZ228x0oefvCuDSmPLJ3hIy4Aa4XQvUZVSQzbbNfXxAeVYB1uJuwnHJJJMxlJ5RLNA5qRdP2kZNqw07WLFgctS9bx3ZbOS/0nxGCSWR1i7oxKzsQoZSxqzv7S7nyw1412c/83FnTKYnjUptpplokh75itXlXPpsPD2fUZubNpPKJJVCuF7vRSgACjGeWkb3fPBaCmOs7AJBoa6JUmiR7LBunSwLHUXjFyZZF48sehe7kyZIUgadQY2Qp2uk5+uNNFPHCO7MtnUbLsNRZjqPlftjYDYEDCbNpk2zK5h2JmjAVWV5fCCL2VTpoh+db6sKwaFXafKxwcW4U8aIq1LCKHIBKUe4d4aHTFPa/g8smYkzWX/9TlYcvJGPvDVPrQjrqWvfVdcaDORZSd42kTvGB+zLJJ4SSu4sUpvSb25DyxbxSWPLBp+6tmpSygazz0gsd66D1OE3W41FydIxHaPOBocnxbTorMxEKfaENGx6gsHIrmHGGnb3NIme4ZOJFADyKWUg0raBq6jSAx35YJl7XxBQVyxal2sqNIrpQO22Iw9uQzKoh0oQpJD+Z32C9MR70PJ0r0OdutP/AAP4xHl5oZIpnfMoSrnQNRSyqjT3Q3IOpqUE1qsHqt7O5PMQZruknlnyndMx71TcbX4VDkDUTv4RyHMDa9Pm55QfCiMAdiWPs0vQA77sPgD1rFccstEkRggb2WNGx6CxWry6ee2lnNQTpAwSjCgThLPmJOskYvmAvmfVvdtXPByMwVQdyKvpv7umEBn+P5WRp3ZORC/9Av63jsa2CNStnnv+OOxGg01k5aWi76efNq5CztZBoC/cDixGSyNQBFHqOfyB5HlizM5cOAGvmCK9PX1Fg+YJGKkyKUoANAUNyKG+3nyYjHYcCLI5kseROkHkC1kEWAOo+N4rObayO7uiwBFsDTBR4qsHzUj3WATgqKBVAAAFch9L/wBcERRHqfPc4RSQFE8xO6KoujvfxFHcX022325YZ5eFj1v4UB7v9ziAVffgmGb1wiki3RpGAc5mkWtbAWQBZ5k7bYC4hxtiWSIUVBLMw3oMFOlepthuaGMbnyh1SytqAIDPq1HnW1cufIcsTfg6IYb5NrngdJCkg1sQAT8jt88IcrmaZjpLvyHi1NXM6jsib1sD9cBcL7ZJK2Xh21sKkd/CuoDko5liaq6G/XDDiGWGo2dm5KTSXYvwLRZutn88UZuDi9xll5yQLFHqLuvjgtWsFTyIrCKGJ7vfnYLbD4KP/lhrG+AV0BxoQtOBqoXXIHrXPa8LuK58RRNJdgGgB1a6q/eD8jhlxTIo9SNt5n16fQf73jO5gxyKctEh8TEhyTpDb78jtdDyo4nHC5b8dizZNMHp56+pTwTjrsQ8r6EI2Wl09bJYjVtRJI2A+JGqzE5IXTKsftA2oYE9OoqqPXrjL5GHMXIssTi6ICoSG9qwGsoDZBBPIe4adFwLg0scZ1M2p3LsdqW/2ieVdL3PXF5Yrf8AKjLBOTpbvm72J5eSTcHMjfl9kAR4gRW52q138/THqM5H/qJD7o1B2Nn9TlW3xwxOXVfamdvRdP41zx7HnAuyrXqSSfrjFRZ1Whfn8pNKqd2L0HxCUEK4qjdgDV15V7tsOeDZR4otLMCSxIokgA1sCd6FYHEzMdyThmPZHuxouKMnFXqAXz0X9on7wwPLnV6OOQI8S7g8jz5HGay2ZFErm2RWYlUeMMftBrQA210rpQvkCKHQbMSlio/S4WLAqAY1ttyBQIonmCAAOvoUmypaejRSZonkWPuFj6YAk4gRtrr0Jr6HGbzyM76UbKs+g2CtsXUgOTp5Cyg6EWdsewPmgwDBSmogkMQQKWjV0bYuK6BR97Zk2aNc4edKb6lV/EDFsWbPkle9h/HCuJD1r4gX8+eCTtt+BP8AG8GlBqYe0o+6Pgw/iDgfiGUSaFomV6b9YMLBDagfZqwQMUo48v5+FYmMwthdQ1G6FmzVXV86scvPA4JjWSSdi/K9lYkfUC5FMKYKdj8v5OF0nYVaoZiqAUfZVsDYun3PS8aNM0p2Vwd2HhYc1NMOXMHYjoeeK81xGOIXI+n38/PYDc/AYxfp8S3a/M6oet9S5fF2+OL/AEJDhtoqmRCVUAsVbcgVe22CE4b5PF8E6fEYUZbtTlnYr3hXyLqQD8d6+NYeRsOYIP8APuxcVBrZmWaOXHL8SNX5VEE4RJqsshHkKGLm4c46A3z8Q/PEWkPSvr+WIGZv5P8AoMVoRjrOOTk8v8y/njsRE7fyR+eOwvbRXuhSSk727c9glHp9734ujyg/XFbn2ms1tvQ93Lbr54qkn0mlAW/IV8zzOBDxRO8WMuNbche5q/L3H5Y0MkkhwpjT2VA9awNms+qldbqupgq6mA1MeQF8zsdhhZxPjkUYkAPeSRqXaNKL6RVkAkA1Y6/XGf4xxQ5nLsGjACuqy6SXPdSLaSoQAasq2wvwMBgHZuxML02NVXV7151zq739MeS94ykRsEboxXVXwsb4yvZ2CdpI8zIisZIlDlmooy7F0FHwyKFOmxW3qMa6M4AT3Mjmso2TaSSd+975NIZRvqVlNHccxZ59MUpw980HYosUb8pH9o1R8I9ptxfMDf0xt8xlw60QrEHUupdQB8686Jx2XyhvUSSerN7XLoOSfLBsb+86EHB+FJlhpjU0TZLm3cgHcLyX34YTj0w1aIDkP59/XAsuWZt6oeZ2GEZO2xZeLI28sTMcammJY+mw+Z3+mPWzen+rUL68z8zgHRY+UZ43UkoGGz2VIPQ3YPPCIcCjU2+bzEnokjgfMsfphlK7NuST78VKlYTjfI7osyPdxUI0qv1nZnf95ySMFzy69yScBKwokUeflzHT33tis58GtO918j8LGxvlyvC2RShKXAbeIBxzvbqen5YGjkkNGgvofh/Cx7/PqBxPiOVhb7WRA4ANDd6FUSFtiBtudt/XBYaUuX/ocxZwGwm7USB0urG/xHzGHIkbQCRvRNfE17rH44xnCe0AZlK5aZYH3E9Jpu68SqxdRd2WAojeumzl9nz8Pp64EKTVUkYybL5lV01liVIKkodzqLHkgAFUooXsTd74W51nDMTBlgAwrZQ1XZJJIFihy5mvLGjz03MVyB6fH7owhzWZHLcb+dG7/aB/3xVGTZ854v2xlhzUyxxQ0ssqg6WBIL73TVZKg8ufvwbwjttNJLHG8AUOwXUC219aIOM/BkBNxGaxaCeVm92tq+Z/jjY5bLxxmJQoP2go7WN9vfQxnqdmqxpqzVxv6nFqH3nFCjF8Y9fyxsYFsubjjAMjqgPKzufcOZ+GFXEc8hmyLp4lkaaMWK2YopNH3HbDZokZSrqrqehoj64z/FsvEJcqEeONYHZyrONVMwIoMbqwd8Zy1dcHRjeGlqu7+1U/vfBLh8VQlAAPtOIhSpIK1M1aaIr/AExVJw+IrGGj5HK+Is/i79qk61ew3FHlinh+cHds9rpWTPljqGwMr78+Xrj0jV+jzEuV/wDILGNbd2WMlP4QaLAEHcbUPLA4p8onHlnD+mTX7lAy2WkEyJEQ8ZzIJDSEJ3TkR3fhOvnXpi/OTHU3dM8QEXD3Cggr9pOQ21WPCKNEauuDMnrCyAA6TPnNdXVnURq+lXhWGOlmrY5HIG+lrKx+YsfMYUccVwisnqMuRJSk39XZsU4z4woXm062edxHoBzDfTE8hxZZiVAqo4pf8MuqvjaN9MJIJCJkBHPMZkcvOPVhJwbJyzywOkhiK8PyZYi7N95tXI8jzxUm0tlZnijGcqlKl5/g+h47FUELhQCSxrdiACfgABj3FGbW4o4zCudibupJVIBCka0px4lJFAtzBHMb3jK5bLTKVMURV2CZxI1GwmQBJo9th3iOKv1w+45w2TLwLGJXMItVSOlc83q+bKFDct6HLmcCcH4jLHGkGXyyx1l2mTWw+1ojVoVNtyRuxB8amumG0aOFRUrGy8H0TfpDSLHCGaXS1BlLppdGNlO7J8R/vDnvY84XncmkkccO5KiJZa8O41omo76WBbTQ0+BhdgDCfiufheYtMe+ysqxvoZS3co8RUTLsdCg94GJr2gRuNzoeGPP3YkUsdLZXMN7JYIdUM6n7wYBgV5d6fLCJKsrmMxmu8hew0kUUsaaV7hVpWIkPttcivCwBO29b42PZvOPIrJIkaPEwQiJtSVpDLpPMbGtJ3FYW5LsnaRfpDs7x9541YxB1d9eltJFrsvhurGNTk8tGi0iqBZNKAoJPM8tyfPCGkWwjpi/lzwO7n3e7FRk6YBl8k33R8TipyTzxANuBe/8AP5jEJsyBsLJ8gD50eQ9D8qwthpN8C3N7HA7TAAnnQO3U+71xDPQyHmdPX152Rt0308xyvC7Id026yByL3B63udved/XBbL0xXLGbZkMp7s2wWx5HnQ386P8ANY9l1sfD4RXM87ry+vwA6nC3iGdmjeGHLxIzSayWYkJGqBQWIAtvaUBbH5Z3tBNP+mZbLnMudTRs6rSLvJqoBfFpMcMwpmbmMINaXCNLPm8vEwEktyE+FASXJroiWxNAk7fe6XituMSI6qMjMIifFLcdjbn3asZCOV7AgdOmEf8A4gZQqYc3EB3iuFNbWbDRX/zAI/dM2GcnHmlSJ8tl5ZEcoxcgKAhILUHKs5qwNII9eQLqiZTcuRZ2wz8uXzGXn75zly1slqFGndvZALAxl5BZO8PrjQf0NExzOoA/pW0h6le7CAA+QAJHqTgbtRw4z5V1UW61JGDtbLvpN8tQtD6McV9g8+Jcog1ami+zJ6lQAY2Pq0ZQ+8nB2SBf+GucdGmykh8cbluVWb0yV73Ak904x9LzZ8P+H+HuOPmvE8hLFxOLMZeF5NagyBQAP7NrZqUFk0MATuYB543vHM4I8u8jD2YixGxOy2Rzon4164AEHEGH43akeVfqDywnnnH3hfowv/rH8nHvGOLIgkYlG7oqHCK9+IqBVGidxsCcLI+Lo4BVkojrKy2Q1WuoUyEkUetjzwWJxohluFQxO8iJTSbubc3ZJO1kXZJ288Uf0RGcxFMzSa0PhF+Hl5GMfjgqOUMxAUMbPJ4ze/rV11rlywwy2TAO5v3gfwrDoVtCmXtFImYOX/RXZwhkBEkdGMNp1eIgDfpzwz4LxuOdmX2XXRQZkOrWmsaCrHVQO9be/FOSycM2ZmnRzaRPk2XRQDateoG9+Y2+uAk7LCLuo+/Wmky5Dd0+q8vGAKYMQurSTZ5ctzg3Fsa0AG9xtsaPL3+RxTGiuzoASUoGwwG4sUTs3wujscZZ+wcgh0a49giiQuy61EyyHUCtBqBrdtydxZw94X2fETZsrJGkc2jutJZtIEYU2Bprezs3ywWFDL+jI+san3qD+N4T8T7J5eQ6lXQ/RgBQPuqvlWLsrwSCMFTJPIpYNp7wolhdOwSmA61q577nDYZ9VrQoFCrNk172s/HClFS5RePLLE7g6MXD2KzOoqJAqWTalhZIonSK3rnv8cOcp2QhRakkkkGkJpMj6dI5LoVgNPobGG7ZrUTzJ54kstUBiY4Yo2zetyZVTr7JIi/C4zIJTr7xQQh72QKuoUSF1UprbYY8yuTjjAVDpCxpEum9QRL0rqYkkCzQPmcWSNiCg400o5NTJHLx+bf5f+3HYpLnHYelBqZmII8wwleA3Ix74wMdu9jYLJoPR0lXccmSVRh5wbg0pSJgpiEM3eQGTb7GRbeJgaKldbJR/s0O9YcFtDMY0VCzFmKjckgAmzZshV5VyGKtbE2ST7ziTSkF8M4FDFrKsSGsEcwFLu+kXsFBketjsawyaTSKQBenmfn+WBsm22JT5lVNMQDRPwHPbr8MHBSTb2PdybJs+ZwbA9bYWmfelBJsj02YKflZ2/unE2gZyjHwkcx8Qw99UR8TVbYTfgpQ/wAthpNKoG5/k1X4j54BkkfUdK2Ol8rrz8iSP3W9LD4xxjL5NA8gdrB06ULaqUsd9kDUGO5BNdcQzozsqgwywQA7jwGYkcx4iVUWOYAPPY9cG7C4rjf6jCWHw3I1hfEfgKPL57cjhcO0ib0hU6t7Fij1tb3sgdefXBxzTLGHlWiPa0bqPMgmjp9++M/nMkEQGtP2QRwmwYKyagQOTFrUHe7vbTucEuTfIq4pxhn0qXaiQh0+R9rkPW+p8FbXingPhtgTsTq+73YIogdDbMw89LD3PJozlix0/ZtsoSiL6WzeKqHUmyT5YzyZkLKSppWBZL2YG/Zv9pvZ8gLvbAI1HDsxrUNQ1Cwa6b8voMZCH7bjDvW0Qaj+xGiD/NPN8sOOFZxWmOnfbT4B4ANibPUaht+0aws4JwLMxSSyySxRGZiPvuAZJHoXShrlA5OPCPPZiH3E40zCy5XVTNHvXNNVhG9DqUkfs4z3YfjL9w0ZikdlclQi2vi3ddZpBpkLqAW9nTV4Z8Ny0GWaQp3ksshuRmYszEbC+SgbmgoAq6GwGDZ+IFFuUxwpsFLMB5UNzuSbFCtiK3wCO4TFmBJNNmSiBxGscasSEVC/tEgAuxfp5AdBinhXD8tlixhV3kcWSXO/UeHkB4tqWt6GB4s0WvuopZyQQWkHdx+63HeFb6hWHXywZFkMw+zzCJb9iBQPgXayd+qhDhDHX9IRxorzOsQNe2wG/lvzN7bYM4/KwiYoAx0igeRuuYJHTzwv4NwOGNtSx2/IyMSzkersSxHvODOPIkqshdaJHUnkQR7PuwDfBhJzmGUMEgKkxm0ApgKPU71zHKjVXzwGIpbUnJxq21lSNrvbbyIG/qPhov8AhjKqjJ9oVbRelq9k7bmzz9cNOHZDLxG44h1NsWc2eZ8ZNfCsFE2jF5LIPqiMWSk1UGJXUQpdW1KTysMNydtwausarhXCJmUGYLEaFgsGN1v7Njn5nB+a4vvz5dMDf0gWOGkJyFn/AADlWdmlkeXVJLJoIQJclA7EMbAWgwII3ojDrNPGgWOEUEFBt2c0K9tiW+N74DknO9n0wOxAHLDUROTK8wgc2xJ9++IMDex2rFbsOZ22uzyxVDmFLsgYFlCkqOYDXXzo4Yg2Fd8WRD2vfiuFjeAs1x/LxCzKGLI8ihPEWCbNprYm+l+fkaYg1Lv3nEo82hkdFcM8dB16qWFi/eN8I/8AiqLTO4RyIUSUGtnRxsy73p2N2Nq64oPFcwzQJNUazrLCWi5rIt6ZEZv1XQEqKNbc8Kwo1i3iqLNrIoZWVlPIqQRzo7j1x89yvEZX1RSTvrnjlyzksaTMRbKwGwXXGQaFWR5nGh7HZ+OSDUi0xYmVaIqU+2KPLfp7vPDTBqjVBxjsAmY47FURY2lGF+adxstbq1E9GFUPcd/lg3MTry1W3kLJ+Q3wDmM4EUsxVFHNpGAA+R+hIxmzphKnbQfkWkY/dH16+h/u/M+QxZns/BFpjkkDPZIjALSHe9o0BY151gWB2Uo2okFgG5BaawKA/v6OZPM4zfbCBcpmYM3GoVSdThQACUvXsOZaCSU/8sYVDc30aPM9plhP2mWzCJYAcomjyHJ7B5CiLPQHAHbUrmcmJ4Zm7sNpfS7BdLXG2pdvFGzBiG3Ggg41DorKVYBlYEEHcEEcj5gjGK7KZCps7lGJaFldGvfk2lT+0YnVCeZ7nATY9zN5zhYZVHeCNZFXyliNlNv76FPcTgPszm8xmMmIYGRO7HdCZiWYLpDRkIKs90ybsw36HEP/AA7zjL32Wf20bX8bKS16d4hf/mjzxHs3lMxl8xmEihLQklVZm0R7NqTeiSArmM6VP9UvwANLMrd0Ijp1sunSCaIFaqJ3AK7emoYT5zNIw0tRZlChU8VkM24YCrNrV/rEHkNy8pw1lzP6RPPrlKNGqKNMcasyk0LLWSqguTvtsNgCcu2xKQrEoVjrKgaTWxOwHO7q8DBCaWLONH3cixJGABqcrY9eZG1UBXUbnCgcIhiIkdTM7HagSo51sbNVsOY8PSsPc1nlc/ZCTNHbddotro62Ok89xHfTw7YBfhuZceKVMuuxKwiz63I4JN+YRT64AKDm+6TU3dwR8/EwQC/NvvXXL/auPPFt4o5Z238bgxRX4TfiGqrUUUVh64OyXActE2vSXk5a2tn5/fclq9OWGYzajZVA9+/+mAQkiyGakPjlEY+7Am/LkXayR6qEOGGQ4JDGdQC6yK1sxeQ+hYkv8zizPZkvQB2xQstDDoVjKN4x1J9wA/PHZrMgAaVHx3/Hb6YChI54s1A88FBqLTnnI8R9cAWbBOLZvTECtk+hwCsK1XtiZfoBgfLHGQz/AGplEecbQoWCVYm0ajIqlyHcECv6sgjyN35YBGkb2j78SeUIAWZVBIAs1uTQG/UkgAeuM5meNpliyFZGMQh1F2s6ZG0ly1nVRvUfP54F4ycxmv0zLEqphUPEEHiY2JI21HlujIQBzPxJY6NlmF2JOFmfjhzULxLICLXXob1DaSVN0w50eTeuEBzK5jM5Yu/2T5dJ4bbYEBlljN+0WDrqu7C4N7M/ZZefL6CDlpHA2PiQ+JCDXiOk15+H3YdioSZWARtLw9ye6lRzASbIXdXTffwnxDmaxHgOacy5OZtmljfKSk9JIySpI8yVf54nmMlNMmp4ky0yy64jqDEnn4io5USpG/ImtsN8n2eQq6uzEPOuYAXwhJBVlSN9yPkfPfCSG2IckZZdcTSMJMzBNGfEds1lyQa6KGXSSBWw5Vg1GWbKRT5aMmaKcTSRqKOttp4wGoeyx2HkPPDTiXA43kMoKRW8cupLEmtCdbXdEMh01XWzeHHfht+eGkJsy/DezkqsobR3aibLsCSS+XY64/8AEpLLR6YZ5PgP2EUU0hk7p0ZHA0kd2fD1O9Cib3s8sNy9csVGWyaOHRLZVLkYgzMES2YSE6ReoCg3oa6/nizLygYqlJIry/npgCLNbnfcbaVBLD6X9MMQ4D47C39Jf+zc+tgfQsD9MdgsKGnDWZnCkGhdivCAwN+nPb+TjPzcOVZWjhyzyMlRhnNRqpcyCgtXosbWtgJdnk8yvEoHIbUWb7qiSRlYcxoRSRpaxR8sUcXz2ac1BlT+3mGAX4RoSx+NcuuMqOuclJro8eZoY2lzM0cSBWVFWyFNgpQFW6FRQF/rb1VMO0hTMcPM6+IKq5hb6qBbL8Yy6/HGZi7ES5mQPm8yzAfqqAPgo3CD5k+mNrk8vAsawKgaJQAFostDzJ2O+5uz1xRkxZ2b42xycaxo08sYMQrZToOhWaQ+EAqFY7ltzQOG3AeFDLK8kjBpZDqlfkLstQvfSGZz/iPIUAXm81HEtyOkadCzBR7hf4DC/McQ74AQ5ZpaJIeW4owRt+sO8I67IVNc+WAROHI5dJGlSAyTFyxdt2DGroHdDVCgq8sW57iGltM0oUkbRR28h9yKuqq23sb4lluFTSCppyq/2cAMa/FrMhPqGUG+WCsvDl8uCqBEs2aG5Pma3J9eeEMXLDNIbigSEdJJwHfn0jQ0NhsS9+YJuy4uBx+3mHadgbuYjQu9ghABGpH3gt7Dc4nmOIMbEa9OexP5D6/jS2V3JBZg3x2+uAA/iHGI0U6QXr7vL5/kDzwlh4uzyd2w0hrFefl67mugxdIDZ5XzHPb157f6/DCPOOysrgnYgj3g9PxOADQSA6bO1jYYA174OzkwPs+zQI9zAEfQ4DK1ucUSERkab+GKJTdHFsTWtDEZkwCLEHLC7j3D2nCp308Sb33B0ux2oaqOlefoep2wxEm17YhmZtMbyEEhFZjQskAXsOpocsAGQ7POgJbLz5nNuUfR3spaOMqfYb7jsa5jkDXrdJ2gnly8TRaEOZEhiZfFpKJqVG1CizFXUkChp23xrOx3Y+LW+dnyqwTG1CxzEqwYAkuFAXXd+Y2vfY4s4j2PyndCKMyxaJe+RkcEo+osdOpTtbNsfvHEWaaT57xWd51SRZJAMxlTNCoYgLmIAJABW26s4IN2Rf6opnEVnnkoEw8RyYbUASokUFTZApToYc+q15Y0cHZqCJVWLkjs6axZQtd6TZoUx2/jviz9EkUBUMekcguwA9AQAMFhpZhxwybMw5d2XQTl3y2Y17NXJWA6+JNQ89Yw84PwtxLFM8hMqwCGQAeB6Ng772DZ+PQbYZSZOVQfC1bnYWPPphfrfq1HyW/S/Wtj88NNEuLDIuC5aNY41iQiNi8erxFGLavCWsjfy8hgzv12G5uum3v93rhTFmVvcW2x3O5rlsPy8sezcWG2+55DYH902x+AxVktFEsOl7EYU1V9QDzA8hsPIfTF6BmJBfy9n6+nz9MCZiVmohT7yK/6jqH7uPYonPtOAD8T8CaX/LgEMZ0RV6E+u529BfTAUedA8PWuW11+zu3yGLxlUrc6hypjt+6KW/hjo6XZQAPQUMMRWzueSH/FsPmfEP3cQWBz7b7elk/M+E/uYLlfl5YWZ2mpjrGm9gdIYdedXyv+TgAsl7lLEjA+jmx05J7N7jYDqMThzYYhUDaR100o2sc65+gwuiVVNiMKBZuvOtwWoevI4KklJBOrawbPL3A+Fa+eBAwkIDzP1x7gGLOEACh/PuWsdhkn0B+HaLP2dnfr9TpxTmWFVrAvyWz9cQ4p2gy3d9938fd2F16hps8hfn+GBcxJstDpjM6NSCYREni1Fj6gn/bAoMkrlf0gxr0EcPir1dmb6KD64itdfPBOUcDkMFMdoMyPAsujaxbSV/WOCz/vsxavS8NUiXlqP7o/PCVOLQjUTIngZUbxDwsxAVT5Ell29Rg5swFBJ5AE/LAK0MJEQKRbGxXT/XC45OK9+9P+Iflit+LJTGztqvY7aRZ+gv1FHriEXEF1UbG6ry2tha7+vL3keeCgsO/QolFgOSfNh/AeePI8jCRqKEt6t+QGBX4opNb10NftbefNGHvGOTiqbjcbqNx94HSfcSCvvBwUGosPcnbuRQse234XWJxZLLnb9Hj01vdn8Tyxl+Odp48rpLJK5cFgsSamCirY8gFGoDn1xb2a7a5XNSrDCzM7KxI0MNOmvasVW9WCd6wUFmimeNQB3MdDYDfpimfPRn/2IviuKeMZtI01SuEXUFtjQsmgN+pOE78Uj/Sf0bfve7MtVsFDBbs+Z8vI4VDsf5fORjnDEPcv+uDlzcB5RxX6oMZttVbD+fniBDdQf5+OCgs0M/EAB4Y4v3cX5fPeaxj3L/rjKCRvI/z8cE5KNmazyvb+bwUNM2eZl+zB238sfOO9z0R8amQMRzNgXRJvVe2ojy+zFc8b7PNQAPRR+GPluR4hK/Es9H30vcw6AiatQDMovdgTzV9rrf0xpCWlVV2Y5I6nd1RZmO0bqpLwMp8fn0FjYgXZ26fC6wRluNq4cjX4DRtSb3I2qydwfXBs2YBwvmRG2obmztzI3+eHJxfQoqa/uChxhVJHeKCOmoDy/MfMYOHF7Hiph60R9cY3iqQLIC6yMz2bQO3slNyovyQXXTC/MSwFo1XMJHoQKoktHXagwDafF7PyxOmD7L1zXRu2MD84kr+6SoPvCkA/HHn6Hl6pAUHkpFfKsZGLLThfs5wwqhuDzv8APY3+qMWJms0lWisLUbA3VLZsHmST0/VPmMP2/DD3fKNHNwpiPs5FJ6BwR8yt4Xy8BzR5ugPP7MjY/wCKjVX53fpWBf6eaKOMyqdTIGatq2F7ee/K9qxcnaZd9SspBqjRNBbJ26jfb0+R7cxe5ApOXkhIqCd2OxJUlTys2Nr5m/U4tizR3aSlHIA7fGzXyrDPKcajaqkAJoaSaayLqvPflgqXiCMdL6XNGgwDbCr2PvGJqSH8X2JIs8j+FTfuBrbzNVgSZ6NLueXL02vSL8uZGNHJ3Lc41+BK/wDSRgebhkDbgyKferD5MMFsNIgINDle3LnVbcrPLzOJs4rf2ruuvLyGo9fTnhpmOB6gQJlKnoyn8yB8BgSThEvLwuK/VYX8m0j/AC4dkuDF0k1Gq+v5yXjsGPw+cEjuWPrpJ/6VrHYLQtLA+2Usj5DJo8VpJJGzSlxu7M9po9rkb1cumHnH+0XcOYIIDI0SI7ImwEZYLSAe02/s0B69MNe0vZKWfKxRGaNJIZUkUpGdACDSootZoG/U/PC/N8Cdc9+lLKtNF3ciFLuuRU34d/O/jeyKBF45mHzEuWigQtH3bankIGlxZJAU7jbw+/BEHHpVzkMEkKKs3ekESWy93v4hVWR5E7nntvHh3BWXNT5gSjTKipp0+JSuwIN1VenM9K3A4d2VmRss75hXbLl0B7v2o3BFHxe36+vWtwoXRTQLlOLmdGeH9OmtUNNZdQpB5CmKn4cjyxrOxfEJicxkcyRI+WCDvb/rEkW1sc9Wnmfx5lfB2KDZfN5d5jWZmaYFUAKEsrAbk2LUeW3leHOX4G0QlmDM+ZmWMSsoVVPdoEFKx8I6nmbJ5ChhUA+k7oAk6aJo9btaI25nTt7sL+KzhVuIeK6or7RHIlj0G3rgB8pmt6jF04suvVWr3eLSdruq2x7DlMzpFwhmFk63ADHXY5EigNuW94ADYc6iKzOo11q0FVDDZiSTy3LNyJ2JO1tRORzkbqCyhCSCFNHYix6evwwojymZfxGIRtRRhalWUg8jYN3RNr0+OLYOFzt7ZUWPFTkUfQAEbj12oYYhbx/iejNpCjaPsJ5QVA8TKPCu45A25HUqvSwZdm8zmUyTSPoSY5XUGcHvDIO8Yh1obAAEC/PbpjzjHZiKYKryyLIjaklV/Gh9Cemwsennvg7g/A1XWZsxJO7IU1SMopDzChaAvq3P1wgsScS4nmzwxs+0sT+CCVYjANKkMurcsSSW3B2reqNEAdpC5zxeORo3/o52VlAO6yBqpgdjy8/XG2TgOWXJ/oJcvHpK0zjVV2OVVRqtugwp4jwLKv3RLEmFaD96dRStJDNdshve/wCJwUOxRlePTs3DGLgLmUk71Qoq9AYEXuCCOXLC+Lj+Z/o2DMGY96uYCyHQtOvelNJFbbVyxqM1wvLSmEUPsWDR922nTQ5DTyWqse7A03ZrLdy0GhhG8neECRvau9t9h6D8d8FBYrj43NDFxIs/etlnuLWtbOAwDaasCzVVy+A0/Y9Jizd9J3iu4aLamCsASDQAoMTXp8gEOD5cNO/dgmcAS2SQwAobHbDrsRw+OIpHGCEQbAsTy35nf64VDTNNxaRRd8sfIewhWU5/MWD3ubejf6o8S/CpNsbXtvxlI9CSRCRJNROoqB4ar2hRJv6YxDzZE2Ugkhs7mLw38YH3xqsUmk6MnmgpOIx7RyosTKcyIGJXxbFqJOyjzbSQDR5HywgyTkcQ7pGk7r9H7xlcyHxaqBAk8Smq/LHmbyeTlVAuYMbLIJVd2OosNgSZd2Gwq/IYJyvCnXMtmVnEmpAjCgTtXIqQANvL88S4yXJSlEbtEbJ61WMvwzx8SzbnfQiR/MAkfNTjSSZp1Hs6vQVf1IGM92W1pLmnljdWml1CxY0jUQLFrtZHPCGqL/6Yy0E0qkiM0HcaCBttY28RNgbXeCc5m4pljC5oREsrLpdQzjotHcgnavMfDCzhc8cvEsw9ghIlRevOixH1HxxdxuNGzuRiFBQZHIG1aVBHu5HCGFcOzbtxCeMyMY440Og1QZ6bagOQ875nD98jG12qm+fhG+xH4MR8TjMdn+HLPmM+xZwO9EXgcr7AI5qQT+GFuYz2Zgy+aVJ2LZfMLEjkKzMG/VOoGyP44adCas2b8GhtTo9k2NzzsH8VHywDneB27SI5Vib3AP3fIg14R1xHtHnZsucuE0MJZkiIYG7PUHVXntWPM3xopmhl+7c2pcMN7A8gLPtCt6GLWRrshwi+iWZgzACd1IPChB1E7mtjyPXzOKjnM2lalB5bhR1O5OlrsLvpC71zxZkOOCSV4WjeORBqKvVlfMUSCNx1wXFxKFuTqbJVfJiOinkx9B5YevyhOHhi09pJFBLxVtfPrQNHYeoFE3WDn42FYB1ItFaxZHiJAAAF9D8sEThaOwwkkmDc41c10ZCefKtj0wao9oEpdMeJxiMiw147GedYwTcE9/3Vevo1Y7CvGP8AEPs2fl1KdIJ9QVP/AMsZzPsbPhb6fnh/m3b+xl+DRD8JMZvOyNZ+yl/fT/7cShsFEeqwQwNdGA2335+vP0GIpli2rZ+f3v8AXEjM1f1Un76//Zjsu7b/AGT8/wC0H/fgGH5bK78m6n2/P05Vi9cr4Suk1d+0b5VgNs33cckjRyHQhYqramIF8hrAJ2O14LyWZSVA6FirKrK2rY6hqA2Y70QfjgAu/RwACV2UH9duXwG+KW0ONJUEVp5vdb/3b898UcK4rHMgZWIJRZNLMdQViQCQGI3Kn5YLjza2wa1CmgS4pvCGJHi5C63rkem+ALI/ZlfYFA1+vfiNn9W+ePNSKpCx7eE1Tb0bGxF7E8vXEeJcQWN4Y+7DGcsqknYFUL77HalPxrC7h3Fop1DqqhSt+LQCCGKlSLvZlIvkehwAFRxhuSAA2dJUj05H3YMymW33VNtha31sdfPfCxs3AG9uLa78S7ULP0IPuOCsjmkLSD7OlYAEMpJBVWsgDw+115ij1GAVjJssOgjH+Afn78BZhKPOMbfd/wD1i85mIVbKLO3Lfl9PEu/LxDzwBxzOiLLzToA3doz0QQDS6vkR1HngApsA+1GPh/8ArFcsu/tr9PzwHDxq55EYqFWOJwwvcyMVA69QAPPVj2TjcO1yfqa7pq0+Lcmth4G59RWEUi2WUf2g+mNL2SQUx1XSny93TGQ4Vnu97zUQNMzIuxFgBSLBN34sajsPn2lyJlfSGZmXwggeF2XqSf1R1wrKSLOO8QVaVmCg8rB38/xGMrmspl5DemFj5gLf0F/XE+2KiRwpK7Amm99ddv1fPGTl4fIB4V1daVy1mvTUKJrHTCHxTujknlepqrG0/BY+gdeQ2ckbctiSKHuwrn7NLdrJR52yi/8ALpxR3siRe0yOSK3OxAPlVjxDy5DFCcdnU+0G87FfWj67Xh/NcMSnB8oJPDM0nsTEj/8Ao34OGH1xSM1n09qMOPcD/wBBGDOF8VM5NhaAUgr1s/kDgyHNNdGKW9z4RqGwv+FbemM3kp7pG0YWrQqbtLpI73LkEddwR7gw/jjxOLZKSQSsjLIDs9G/mhuue3WzjW5Ph8so8McgH99Co+ZoYL/4QiJ+1WAHrtbfQfxxDy4u0aLDkfBl8hDlo3kaLMd2ZW1Mr7DV5gOLB39R6Y7iXZwSZfu4HGoSifUTqDvvZcjnd9PIY1EvZzKbgtLuK8B/79WBjw3IxEFctqYfrOxJ333C0Ph05CsZyy4urNI+nzd0IuJZPNSzZVmRCsTl3CtyIA0m2q+u1bVz3xZHkZn4p3vcyiP9H7tXKHSW12d+Q2J3NcsaGTixUARqqD0GJtxaQgb7+mMnm8I1Xp65ZkeNdmM1LPmWUBNcKQxsx5jUpf2bI2sb1hzP2TD5aOFp9GnQQQEtSlUVr+IvB8uZ1GyfrinvumM3kmzVYsa5D2y2XHMFvia8+ldcLvsVahEK6cq+VY4yG8CyrTenTEtzfLLSxx4Q0XidCgtD0LD6A1jzC8MMdh6WTrRuszxSZtQES7EA23skqh38/acbfdHnjO5zPTliBGuzAHfpqr7w33U/vc9r7HY7UecwLNNM4iIGk6ndlDbMoVgFux7RKtfTTviUGanA/q12I5nmNZUn2iQFUB97JuqBx7jsAD7Jsw51q0Lfle/v2wk4X2aMSwqzBhEpAA1AX3olDCjzsAVy8K+7HmOw6AhkezTIuky/+zDGSmpGuJnYEMrWt6/Xl1vEj2aOonvQfGXspvZywy/QgXtq2rnXrjzHYdInUxkeEEnKHvAP0YGrSwxMRj+8K2N9cKouy6ABQ50hNNeIMT3jOW1IysCWYnavltjsdgpDtlidmRq1d4SdbPuATbQdxub38Iv3+m2CYOzUd2zFt0YdCpSNIwVIIIOmMeYsnY7AdjsKkFl+U7OQo6uoorr2oafGF1eE7AkxqbFb3ti5+z0IgmgAKpMGD6aBOoUxqtIYjmax7jsKh2LZ+BprdtcgYrGhIK8o21L+r1JIIOxBIrAjcAiVWXxFWjMRBI9gszVsAdi5o+7HY7AykdkOExq16dR194GcAlWKhSVNeHZRy8sazIcPSDKpClhS7vub3Y6jv+0WPxx7jsSWZLtBweWZiyqGFDrv53zFG7whh7KZxwRHHenezMK6V7RY115Y9x2NZZpRjsYR9PGU975Gb9lpVVQ+ZSM2SQA7jeunhHT6nBMfAcqqgyF5T+yqA/u+L648x2OJ55vs9GHpcaXAZlsvloge6y6Anq1sfT2j64JPEXoAEKPJQB+GPcdjNtvk1SUVsiwZ9iN2JrzxT+l2WPXHY7FKKM5TaBjPteMpxntVl4nKO51DmArflX1x5jsWooyeSRXm+OgGFYkMrTC4xekEAXZJ5YO4BxpcyhIUqytpdSboj15EY8x2CkCk2xqR6Y4KcdjsIqjBdq+0+ZhzEkKlABVHTbEFQepq9z0xn5u0eYZKaZ7vpQobeQHPf5DHmOxaWxk+Re+adjZZiT1J3x2Ox2GI/9k=;" vertex="1" parent="1">
                    <mxGeometry x="50" y="250" width="195.36" height="130" as="geometry"/>
                </mxCell>
                <mxCell id="Juhrh1xm0XwwKIA4C4Ys-16" value="" style="rounded=1;whiteSpace=wrap;html=1;" vertex="1" parent="1">
                    <mxGeometry x="300" y="130" width="220" height="430" as="geometry"/>
                </mxCell>
                <mxCell id="Juhrh1xm0XwwKIA4C4Ys-3" value="Chunk 2" style="rounded=1;whiteSpace=wrap;html=1;" vertex="1" parent="1">
                    <mxGeometry x="350" y="230" width="120" height="40" as="geometry"/>
                </mxCell>
                <mxCell id="Juhrh1xm0XwwKIA4C4Ys-4" value="Chunk 3" style="rounded=1;whiteSpace=wrap;html=1;" vertex="1" parent="1">
                    <mxGeometry x="350" y="300" width="120" height="40" as="geometry"/>
                </mxCell>
                <mxCell id="Juhrh1xm0XwwKIA4C4Ys-5" value="Chunk n" style="rounded=1;whiteSpace=wrap;html=1;" vertex="1" parent="1">
                    <mxGeometry x="350" y="500" width="120" height="40" as="geometry"/>
                </mxCell>
                <mxCell id="Juhrh1xm0XwwKIA4C4Ys-6" value=". . ." style="rounded=1;whiteSpace=wrap;html=1;" vertex="1" parent="1">
                    <mxGeometry x="350" y="400" width="120" height="40" as="geometry"/>
                </mxCell>
                <mxCell id="Juhrh1xm0XwwKIA4C4Ys-2" value="Chunk 1" style="rounded=1;whiteSpace=wrap;html=1;" vertex="1" parent="1">
                    <mxGeometry x="350" y="150" width="120" height="40" as="geometry"/>
                </mxCell>
                <mxCell id="Juhrh1xm0XwwKIA4C4Ys-8" style="edgeStyle=none;html=1;exitX=1;exitY=0.5;exitDx=0;exitDy=0;entryX=0;entryY=0.5;entryDx=0;entryDy=0;" edge="1" parent="1" source="Juhrh1xm0XwwKIA4C4Ys-15" target="Juhrh1xm0XwwKIA4C4Ys-3">
                    <mxGeometry relative="1" as="geometry"/>
                </mxCell>
                <mxCell id="Juhrh1xm0XwwKIA4C4Ys-9" style="edgeStyle=none;html=1;exitX=1;exitY=0.5;exitDx=0;exitDy=0;entryX=0;entryY=0.5;entryDx=0;entryDy=0;" edge="1" parent="1" source="Juhrh1xm0XwwKIA4C4Ys-15" target="Juhrh1xm0XwwKIA4C4Ys-4">
                    <mxGeometry relative="1" as="geometry"/>
                </mxCell>
                <mxCell id="Juhrh1xm0XwwKIA4C4Ys-10" style="edgeStyle=none;html=1;exitX=1;exitY=0.5;exitDx=0;exitDy=0;entryX=0;entryY=0.5;entryDx=0;entryDy=0;" edge="1" parent="1" source="Juhrh1xm0XwwKIA4C4Ys-15" target="Juhrh1xm0XwwKIA4C4Ys-6">
                    <mxGeometry relative="1" as="geometry"/>
                </mxCell>
                <mxCell id="Juhrh1xm0XwwKIA4C4Ys-11" style="edgeStyle=none;html=1;exitX=1;exitY=0.5;exitDx=0;exitDy=0;entryX=0;entryY=0.5;entryDx=0;entryDy=0;" edge="1" parent="1" source="Juhrh1xm0XwwKIA4C4Ys-15" target="Juhrh1xm0XwwKIA4C4Ys-5">
                    <mxGeometry relative="1" as="geometry"/>
                </mxCell>
                <mxCell id="Juhrh1xm0XwwKIA4C4Ys-7" value="" style="endArrow=classic;html=1;entryX=0;entryY=0.5;entryDx=0;entryDy=0;exitX=1;exitY=0.5;exitDx=0;exitDy=0;" edge="1" parent="1" source="Juhrh1xm0XwwKIA4C4Ys-15" target="Juhrh1xm0XwwKIA4C4Ys-2">
                    <mxGeometry width="50" height="50" relative="1" as="geometry">
                        <mxPoint x="240" y="320" as="sourcePoint"/>
                        <mxPoint x="290" y="280" as="targetPoint"/>
                    </mxGeometry>
                </mxCell>
                <mxCell id="Juhrh1xm0XwwKIA4C4Ys-17" value="Splits" style="text;html=1;strokeColor=none;fillColor=none;align=center;verticalAlign=middle;whiteSpace=wrap;rounded=0;" vertex="1" parent="1">
                    <mxGeometry x="365" y="90" width="60" height="30" as="geometry"/>
                </mxCell>
                <mxCell id="Juhrh1xm0XwwKIA4C4Ys-18" value="Documents" style="text;html=1;strokeColor=none;fillColor=none;align=center;verticalAlign=middle;whiteSpace=wrap;rounded=0;" vertex="1" parent="1">
                    <mxGeometry x="100" y="150" width="60" height="30" as="geometry"/>
                </mxCell>
                <mxCell id="Juhrh1xm0XwwKIA4C4Ys-19" value="" style="rounded=1;whiteSpace=wrap;html=1;" vertex="1" parent="1">
                    <mxGeometry x="570" y="120" width="220" height="430" as="geometry"/>
                </mxCell>
                <mxCell id="Juhrh1xm0XwwKIA4C4Ys-20" value="" style="shape=singleArrow;whiteSpace=wrap;html=1;" vertex="1" parent="1">
                    <mxGeometry x="520" y="330" width="50" height="60" as="geometry"/>
                </mxCell>
                <mxCell id="Juhrh1xm0XwwKIA4C4Ys-22" value="" style="aspect=fixed;html=1;points=[];align=center;image;fontSize=12;image=img/lib/azure2/storage/Data_Shares.svg;" vertex="1" parent="1">
                    <mxGeometry x="627.63" y="290" width="93.09" height="80" as="geometry"/>
                </mxCell>
                <mxCell id="Juhrh1xm0XwwKIA4C4Ys-24" value="" style="rounded=1;whiteSpace=wrap;html=1;" vertex="1" parent="1">
                    <mxGeometry x="840" y="110" width="220" height="430" as="geometry"/>
                </mxCell>
                <mxCell id="Juhrh1xm0XwwKIA4C4Ys-25" value="" style="shape=singleArrow;whiteSpace=wrap;html=1;" vertex="1" parent="1">
                    <mxGeometry x="790" y="310" width="50" height="60" as="geometry"/>
                </mxCell>
                <mxCell id="Juhrh1xm0XwwKIA4C4Ys-26" value="Retrival" style="text;html=1;strokeColor=none;fillColor=none;align=center;verticalAlign=middle;whiteSpace=wrap;rounded=0;" vertex="1" parent="1">
                    <mxGeometry x="910" y="70" width="60" height="30" as="geometry"/>
                </mxCell>
                <mxCell id="Juhrh1xm0XwwKIA4C4Ys-27" value="Vector DB" style="text;html=1;strokeColor=none;fillColor=none;align=center;verticalAlign=middle;whiteSpace=wrap;rounded=0;" vertex="1" parent="1">
                    <mxGeometry x="644" y="80" width="60" height="30" as="geometry"/>
                </mxCell>
                <mxCell id="Juhrh1xm0XwwKIA4C4Ys-28" value="Chunk 1" style="rounded=1;whiteSpace=wrap;html=1;" vertex="1" parent="1">
                    <mxGeometry x="890" y="260" width="100" height="40" as="geometry"/>
                </mxCell>
                <mxCell id="Juhrh1xm0XwwKIA4C4Ys-29" value="Chunk 2" style="rounded=1;whiteSpace=wrap;html=1;" vertex="1" parent="1">
                    <mxGeometry x="890" y="320" width="100" height="40" as="geometry"/>
                </mxCell>
                <mxCell id="Juhrh1xm0XwwKIA4C4Ys-30" value="Question&lt;br&gt;" style="text;html=1;strokeColor=none;fillColor=none;align=center;verticalAlign=middle;whiteSpace=wrap;rounded=0;" vertex="1" parent="1">
                    <mxGeometry x="910" y="190" width="60" height="30" as="geometry"/>
                </mxCell>
                <mxCell id="Juhrh1xm0XwwKIA4C4Ys-31" value="TextLoader" style="text;html=1;strokeColor=none;fillColor=none;align=center;verticalAlign=middle;whiteSpace=wrap;rounded=0;" vertex="1" parent="1">
                    <mxGeometry x="70" y="470" width="60" height="30" as="geometry"/>
                </mxCell>
                <mxCell id="Juhrh1xm0XwwKIA4C4Ys-32" value="UnstructuredURLLoader" style="text;html=1;strokeColor=none;fillColor=none;align=center;verticalAlign=middle;whiteSpace=wrap;rounded=0;" vertex="1" parent="1">
                    <mxGeometry x="100" y="520" width="60" height="30" as="geometry"/>
                </mxCell>
                <mxCell id="Juhrh1xm0XwwKIA4C4Ys-33" value="CharacterTextSplitter" style="text;html=1;strokeColor=none;fillColor=none;align=center;verticalAlign=middle;whiteSpace=wrap;rounded=0;" vertex="1" parent="1">
                    <mxGeometry x="380" y="580" width="60" height="30" as="geometry"/>
                </mxCell>
                <mxCell id="Juhrh1xm0XwwKIA4C4Ys-34" value="RecursiveTextSplitter" style="text;html=1;strokeColor=none;fillColor=none;align=center;verticalAlign=middle;whiteSpace=wrap;rounded=0;" vertex="1" parent="1">
                    <mxGeometry x="380" y="630" width="60" height="30" as="geometry"/>
                </mxCell>
                <mxCell id="Juhrh1xm0XwwKIA4C4Ys-35" value="FAISS" style="text;html=1;strokeColor=none;fillColor=none;align=center;verticalAlign=middle;whiteSpace=wrap;rounded=0;" vertex="1" parent="1">
                    <mxGeometry x="640" y="580" width="60" height="30" as="geometry"/>
                </mxCell>
                <mxCell id="Juhrh1xm0XwwKIA4C4Ys-36" value="RetrievalQAWithSourcesChain" style="text;html=1;strokeColor=none;fillColor=none;align=center;verticalAlign=middle;whiteSpace=wrap;rounded=0;" vertex="1" parent="1">
                    <mxGeometry x="920" y="580" width="60" height="30" as="geometry"/>
                </mxCell>
                <mxCell id="Juhrh1xm0XwwKIA4C4Ys-37" value="" style="rounded=1;whiteSpace=wrap;html=1;" vertex="1" parent="1">
                    <mxGeometry x="1120" y="100" width="220" height="430" as="geometry"/>
                </mxCell>
                <mxCell id="Juhrh1xm0XwwKIA4C4Ys-38" value="Retrival" style="text;html=1;strokeColor=none;fillColor=none;align=center;verticalAlign=middle;whiteSpace=wrap;rounded=0;" vertex="1" parent="1">
                    <mxGeometry x="1190" y="60" width="60" height="30" as="geometry"/>
                </mxCell>
                <mxCell id="Juhrh1xm0XwwKIA4C4Ys-39" value="Chunk 3" style="rounded=1;whiteSpace=wrap;html=1;" vertex="1" parent="1">
                    <mxGeometry x="1170" y="250" width="100" height="40" as="geometry"/>
                </mxCell>
                <mxCell id="Juhrh1xm0XwwKIA4C4Ys-40" value="Chunk 4" style="rounded=1;whiteSpace=wrap;html=1;" vertex="1" parent="1">
                    <mxGeometry x="1170" y="310" width="100" height="40" as="geometry"/>
                </mxCell>
                <mxCell id="Juhrh1xm0XwwKIA4C4Ys-41" value="Question&lt;br&gt;" style="text;html=1;strokeColor=none;fillColor=none;align=center;verticalAlign=middle;whiteSpace=wrap;rounded=0;" vertex="1" parent="1">
                    <mxGeometry x="1190" y="180" width="60" height="30" as="geometry"/>
                </mxCell>
                <mxCell id="Juhrh1xm0XwwKIA4C4Ys-42" value="Answer based on the below text" style="text;html=1;strokeColor=none;fillColor=none;align=center;verticalAlign=middle;whiteSpace=wrap;rounded=0;" vertex="1" parent="1">
                    <mxGeometry x="1170" y="210" width="130" height="30" as="geometry"/>
                </mxCell>
                <mxCell id="Juhrh1xm0XwwKIA4C4Ys-46" style="edgeStyle=none;html=1;exitX=0.5;exitY=1;exitDx=0;exitDy=0;entryX=0.5;entryY=0;entryDx=0;entryDy=0;" edge="1" parent="1" source="Juhrh1xm0XwwKIA4C4Ys-43" target="Juhrh1xm0XwwKIA4C4Ys-45">
                    <mxGeometry relative="1" as="geometry"/>
                </mxCell>
                <mxCell id="Juhrh1xm0XwwKIA4C4Ys-43" value="LLM" style="rounded=1;whiteSpace=wrap;html=1;" vertex="1" parent="1">
                    <mxGeometry x="1180" y="610" width="100" height="40" as="geometry"/>
                </mxCell>
                <mxCell id="Juhrh1xm0XwwKIA4C4Ys-44" value="" style="endArrow=classic;html=1;entryX=0.5;entryY=0;entryDx=0;entryDy=0;exitX=0.5;exitY=1;exitDx=0;exitDy=0;" edge="1" parent="1" source="Juhrh1xm0XwwKIA4C4Ys-37" target="Juhrh1xm0XwwKIA4C4Ys-43">
                    <mxGeometry width="50" height="50" relative="1" as="geometry">
                        <mxPoint x="1210" y="580" as="sourcePoint"/>
                        <mxPoint x="1260" y="530" as="targetPoint"/>
                    </mxGeometry>
                </mxCell>
                <mxCell id="Juhrh1xm0XwwKIA4C4Ys-45" value="Answer" style="text;html=1;strokeColor=none;fillColor=none;align=center;verticalAlign=middle;whiteSpace=wrap;rounded=0;" vertex="1" parent="1">
                    <mxGeometry x="1200" y="680" width="60" height="30" as="geometry"/>
                </mxCell>
            </root>
        </mxGraphModel>
    </diagram>
    <diagram id="Dg1aW2yU7tAfHtq_AGUG" name="LLD-Diagram">
        <mxGraphModel dx="552" dy="763" grid="1" gridSize="10" guides="1" tooltips="1" connect="1" arrows="1" fold="1" page="1" pageScale="1" pageWidth="850" pageHeight="1100" math="0" shadow="0">
            <root>
                <mxCell id="0"/>
                <mxCell id="1" parent="0"/>
                <mxCell id="g50Br0eVsBcSSy89ylNF-13" style="edgeStyle=none;html=1;exitX=0.5;exitY=1;exitDx=0;exitDy=0;" edge="1" parent="1" source="g50Br0eVsBcSSy89ylNF-1" target="g50Br0eVsBcSSy89ylNF-11">
                    <mxGeometry relative="1" as="geometry"/>
                </mxCell>
                <mxCell id="g50Br0eVsBcSSy89ylNF-1" value="Web Scrapper" style="rounded=1;whiteSpace=wrap;html=1;" vertex="1" parent="1">
                    <mxGeometry x="310" y="280" width="120" height="60" as="geometry"/>
                </mxCell>
                <mxCell id="g50Br0eVsBcSSy89ylNF-2" value="" style="shape=image;verticalLabelPosition=bottom;labelBackgroundColor=default;verticalAlign=top;aspect=fixed;imageAspect=0;image=data:image/jpeg,/9j/4AAQSkZJRgABAgAAZABkAAD/7AARRHVja3kAAQAEAAAAOAAA/+IMWElDQ19QUk9GSUxFAAEBAAAMSExpbm8CEAAAbW50clJHQiBYWVogB84AAgAJAAYAMQAAYWNzcE1TRlQAAAAASUVDIHNSR0IAAAAAAAAAAAAAAAEAAPbWAAEAAAAA0y1IUCAgAAAAAAAAAAAAAAAAAAAAAAAAAAAAAAAAAAAAAAAAAAAAAAAAAAAAAAAAAAAAAAARY3BydAAAAVAAAAAzZGVzYwAAAYQAAABsd3RwdAAAAfAAAAAUYmtwdAAAAgQAAAAUclhZWgAAAhgAAAAUZ1hZWgAAAiwAAAAUYlhZWgAAAkAAAAAUZG1uZAAAAlQAAABwZG1kZAAAAsQAAACIdnVlZAAAA0wAAACGdmlldwAAA9QAAAAkbHVtaQAAA/gAAAAUbWVhcwAABAwAAAAkdGVjaAAABDAAAAAMclRSQwAABDwAAAgMZ1RSQwAABDwAAAgMYlRSQwAABDwAAAgMdGV4dAAAAABDb3B5cmlnaHQgKGMpIDE5OTggSGV3bGV0dC1QYWNrYXJkIENvbXBhbnkAAGRlc2MAAAAAAAAAEnNSR0IgSUVDNjE5NjYtMi4xAAAAAAAAAAAAAAASc1JHQiBJRUM2MTk2Ni0yLjEAAAAAAAAAAAAAAAAAAAAAAAAAAAAAAAAAAAAAAAAAAAAAAAAAAAAAAAAAAAAAAAAAAFhZWiAAAAAAAADzUQABAAAAARbMWFlaIAAAAAAAAAAAAAAAAAAAAABYWVogAAAAAAAAb6IAADj1AAADkFhZWiAAAAAAAABimQAAt4UAABjaWFlaIAAAAAAAACSgAAAPhAAAts9kZXNjAAAAAAAAABZJRUMgaHR0cDovL3d3dy5pZWMuY2gAAAAAAAAAAAAAABZJRUMgaHR0cDovL3d3dy5pZWMuY2gAAAAAAAAAAAAAAAAAAAAAAAAAAAAAAAAAAAAAAAAAAAAAAAAAAAAAAAAAAAAAZGVzYwAAAAAAAAAuSUVDIDYxOTY2LTIuMSBEZWZhdWx0IFJHQiBjb2xvdXIgc3BhY2UgLSBzUkdCAAAAAAAAAAAAAAAuSUVDIDYxOTY2LTIuMSBEZWZhdWx0IFJHQiBjb2xvdXIgc3BhY2UgLSBzUkdCAAAAAAAAAAAAAAAAAAAAAAAAAAAAAGRlc2MAAAAAAAAALFJlZmVyZW5jZSBWaWV3aW5nIENvbmRpdGlvbiBpbiBJRUM2MTk2Ni0yLjEAAAAAAAAAAAAAACxSZWZlcmVuY2UgVmlld2luZyBDb25kaXRpb24gaW4gSUVDNjE5NjYtMi4xAAAAAAAAAAAAAAAAAAAAAAAAAAAAAAAAAAB2aWV3AAAAAAATpP4AFF8uABDPFAAD7cwABBMLAANcngAAAAFYWVogAAAAAABMCVYAUAAAAFcf521lYXMAAAAAAAAAAQAAAAAAAAAAAAAAAAAAAAAAAAKPAAAAAnNpZyAAAAAAQ1JUIGN1cnYAAAAAAAAEAAAAAAUACgAPABQAGQAeACMAKAAtADIANwA7AEAARQBKAE8AVABZAF4AYwBoAG0AcgB3AHwAgQCGAIsAkACVAJoAnwCkAKkArgCyALcAvADBAMYAywDQANUA2wDgAOUA6wDwAPYA+wEBAQcBDQETARkBHwElASsBMgE4AT4BRQFMAVIBWQFgAWcBbgF1AXwBgwGLAZIBmgGhAakBsQG5AcEByQHRAdkB4QHpAfIB+gIDAgwCFAIdAiYCLwI4AkECSwJUAl0CZwJxAnoChAKOApgCogKsArYCwQLLAtUC4ALrAvUDAAMLAxYDIQMtAzgDQwNPA1oDZgNyA34DigOWA6IDrgO6A8cD0wPgA+wD+QQGBBMEIAQtBDsESARVBGMEcQR+BIwEmgSoBLYExATTBOEE8AT+BQ0FHAUrBToFSQVYBWcFdwWGBZYFpgW1BcUF1QXlBfYGBgYWBicGNwZIBlkGagZ7BowGnQavBsAG0QbjBvUHBwcZBysHPQdPB2EHdAeGB5kHrAe/B9IH5Qf4CAsIHwgyCEYIWghuCIIIlgiqCL4I0gjnCPsJEAklCToJTwlkCXkJjwmkCboJzwnlCfsKEQonCj0KVApqCoEKmAquCsUK3ArzCwsLIgs5C1ELaQuAC5gLsAvIC+EL+QwSDCoMQwxcDHUMjgynDMAM2QzzDQ0NJg1ADVoNdA2ODakNww3eDfgOEw4uDkkOZA5/DpsOtg7SDu4PCQ8lD0EPXg96D5YPsw/PD+wQCRAmEEMQYRB+EJsQuRDXEPURExExEU8RbRGMEaoRyRHoEgcSJhJFEmQShBKjEsMS4xMDEyMTQxNjE4MTpBPFE+UUBhQnFEkUahSLFK0UzhTwFRIVNBVWFXgVmxW9FeAWAxYmFkkWbBaPFrIW1hb6Fx0XQRdlF4kXrhfSF/cYGxhAGGUYihivGNUY+hkgGUUZaxmRGbcZ3RoEGioaURp3Gp4axRrsGxQbOxtjG4obshvaHAIcKhxSHHscoxzMHPUdHh1HHXAdmR3DHeweFh5AHmoelB6+HukfEx8+H2kflB+/H+ogFSBBIGwgmCDEIPAhHCFIIXUhoSHOIfsiJyJVIoIiryLdIwojOCNmI5QjwiPwJB8kTSR8JKsk2iUJJTglaCWXJccl9yYnJlcmhya3JugnGCdJJ3onqyfcKA0oPyhxKKIo1CkGKTgpaymdKdAqAio1KmgqmyrPKwIrNitpK50r0SwFLDksbiyiLNctDC1BLXYtqy3hLhYuTC6CLrcu7i8kL1ovkS/HL/4wNTBsMKQw2zESMUoxgjG6MfIyKjJjMpsy1DMNM0YzfzO4M/E0KzRlNJ402DUTNU01hzXCNf02NzZyNq426TckN2A3nDfXOBQ4UDiMOMg5BTlCOX85vDn5OjY6dDqyOu87LTtrO6o76DwnPGU8pDzjPSI9YT2hPeA+ID5gPqA+4D8hP2E/oj/iQCNAZECmQOdBKUFqQaxB7kIwQnJCtUL3QzpDfUPARANER0SKRM5FEkVVRZpF3kYiRmdGq0bwRzVHe0fASAVIS0iRSNdJHUljSalJ8Eo3Sn1KxEsMS1NLmkviTCpMcky6TQJNSk2TTdxOJU5uTrdPAE9JT5NP3VAnUHFQu1EGUVBRm1HmUjFSfFLHUxNTX1OqU/ZUQlSPVNtVKFV1VcJWD1ZcVqlW91dEV5JX4FgvWH1Yy1kaWWlZuFoHWlZaplr1W0VblVvlXDVchlzWXSddeF3JXhpebF69Xw9fYV+zYAVgV2CqYPxhT2GiYfViSWKcYvBjQ2OXY+tkQGSUZOllPWWSZedmPWaSZuhnPWeTZ+loP2iWaOxpQ2maafFqSGqfavdrT2una/9sV2yvbQhtYG25bhJua27Ebx5veG/RcCtwhnDgcTpxlXHwcktypnMBc11zuHQUdHB0zHUodYV14XY+dpt2+HdWd7N4EXhueMx5KnmJeed6RnqlewR7Y3vCfCF8gXzhfUF9oX4BfmJ+wn8jf4R/5YBHgKiBCoFrgc2CMIKSgvSDV4O6hB2EgITjhUeFq4YOhnKG14c7h5+IBIhpiM6JM4mZif6KZIrKizCLlov8jGOMyo0xjZiN/45mjs6PNo+ekAaQbpDWkT+RqJIRknqS45NNk7aUIJSKlPSVX5XJljSWn5cKl3WX4JhMmLiZJJmQmfyaaJrVm0Kbr5wcnImc951kndKeQJ6unx2fi5/6oGmg2KFHobaiJqKWowajdqPmpFakx6U4pammGqaLpv2nbqfgqFKoxKk3qamqHKqPqwKrdavprFys0K1ErbiuLa6hrxavi7AAsHWw6rFgsdayS7LCszizrrQltJy1E7WKtgG2ebbwt2i34LhZuNG5SrnCuju6tbsuu6e8IbybvRW9j74KvoS+/796v/XAcMDswWfB48JfwtvDWMPUxFHEzsVLxcjGRsbDx0HHv8g9yLzJOsm5yjjKt8s2y7bMNcy1zTXNtc42zrbPN8+40DnQutE80b7SP9LB00TTxtRJ1MvVTtXR1lXW2Ndc1+DYZNjo2WzZ8dp22vvbgNwF3IrdEN2W3hzeot8p36/gNuC94UThzOJT4tvjY+Pr5HPk/OWE5g3mlucf56noMui86Ubp0Opb6uXrcOv77IbtEe2c7ijutO9A78zwWPDl8XLx//KM8xnzp/Q09ML1UPXe9m32+/eK+Bn4qPk4+cf6V/rn+3f8B/yY/Sn9uv5L/tz/bf///+4ADkFkb2JlAGTAAAAAAf/bAIQABwUFBQUFBwUFBwoHBgcKDAkHBwkMDgsLDAsLDhEMDAwMDAwRDhAREREQDhUVFxcVFR4eHh4eIiIiIiIiIiIiIgEHCAgODQ4aEhIaHRcUFx0iIiIiIiIiIiIiIiIiIiIiIiIiIiIiIiIiIiIiIiIiIiIiIiIiIiIiIiIiIiIiIiIi/8AAEQgBDgLuAwERAAIRAQMRAf/EAL0AAQACAgMBAAAAAAAAAAAAAAAGBwUIAQIEAwEBAAIDAQEAAAAAAAAAAAAAAAUGAQMEAgcQAAEDAwAEBQ4KBggFAgYDAAEAAgMRBAUhEgYHMUFRcRNhkbEiMnKSsjNzsxQ1NoGh0cIj03SUVRfBQlJiUzSCooOTw4QVCOHSQyQWY0TxVGS0JTdFdSYRAQACAQIEBAUEAwEBAQADAAABAgMRBDFREgUhcTIzQWFSExWBImIUQnI0I5HwseEk/9oADAMBAAIRAxEAPwDZFAQEBAQEBAQEBAQEBAQKhAqgICAgICAgICAgICAgICAgICAgICAgICAgICAgICAgICAgICAgICAgICAgICAgICAgICAgICAgICAgICAgICAgICAgICAgICAgICAgICAgICAgICAgICDiqD4XF9Z2ordTxwilfpHtbo+Erxa8Rxl5m0c2HududlraofkI3kcUQdJ4gIWi27xR8Wq24pHxYqfejs+wHoY7iYjgowNB+FxXPbuOOGm28pDwyb2bUD6HGyk/vyNA+IFabdzr8IeJ30cnmfvZnr2mMZT96Y1+Ji8T3T5PM775Pn+bF7+HRfBI7/lXn8nbk8/3p5OW72Lsd1jIzzSuHzSs/lJ5M/3vk+8e9oV+mxhpx6ktey0L1+Tjk9f3vk9kO9bEO8vZXEXNqv8A0hbY7nTlL3G9ryZCDeTsvN3c0sHnInfN1lvjf4p+L3G7pLKWm1Wzt6R6vkYCXaQ1zww9Z1FuruMduEt0Zqz8WVjmjlbrRPa9p/WaQR8S3RaJbNXaq9MuUBAQEBAQEBAQEBAQEBAQEBAQEBAQEBBxU8iBU8iBU8iBU8iBU8iBU8iBU8iBU8iBU8iBU8iBU8iBU8iBU8iBU8iBU8iBU8iBU8iBU8iBU8iBU8iBU8iBU8iBU8iBU8iBU8iBU8iBU8iBU8iBU8iBU8iBU8iBU8iBU8iBU8iBU8iBU8iBU8iBU8iBU8iBU8iBU8iBU8iBU8iBU8iBU8iDlAQEBAQEBAQcErA+F3fWdhEZ72eO3iHC+RwaPjXm1614zoxNojiimT3mYG01mWIkvpBxsGpH4bvkXDk7hSvDxcd95SvDxRTI7zM9dktsmxWUekdqOkf4TtHxKOydyvPDwcl97aeHgjV9mcrkiTf3k04P6rnkN8FtG/EuK2e9uMua2W08ZeKgNK1NOCpr2Vqm0y1iAgICAgLILALILAEA8OlGYANXuSW8xI7CzFpGSs9oc5j9X1S/njDeBmuXM8F1Qt1dzkrwlsrmvHCUgst520FuQLtkN2zjq0xu67dHxLrp3HJHHxdNd5eOPikdhvTxM1G5C2mtncb20kZ1xQ/Eu6ncqTxjR0U3tZ4pNYbS4LKAeo30Ujv2C7Uf4L6FdtNxS3CXVXNW3CWUBW9tcoCAgICAgICAgICAgICAgICDglBBtsNvosc12Owr2y31dWWYdsyIcdOJz+woreb6KRpXxlxZ91FfCOLX7LXd0/JXT3TylzpHFxL3VJOknhV57dWJ29JmOMKrkyW6p8Xj9YuP40nhu+Vd/RXk1/ctzPWLivlpPDd8qdFeR9y3M9YuK+Wk8N3yp0V5H3Lcz1i4/jSeG75U6K8j7luZ6xcfxpPDd8qdFeR9y3M9YuKeWk8N3yp0V5H3Lcz1i4p5aTw3fKnRXkfctzBcXH8aTw3fKnRXkfctzBcXH8aTw3fKnRXkfctzPWLj+NJ4bvlToryPuW5nrFxTy0nhu+VOivI+5bmesXH8aTw3fKnRXkfctzPWLj+NJ4bvlToryPuW5nrFxXy0nhu+VOivI+5bmesXFfLSeG75U6K8j7luZ6xcfxpPDd8qdFeR9y3M9YuP40nhu+VOivI+5bmesXH8aTw3fKnRXkfctzPWLinlpPDd8qdFeR9y3M9YuP40nhu+VOivI+5bmesXH8aTw3fKnRXkfctzPWLivlpPDd8qdFeR9y3M9YuK+Wk8N3yp0V5H3Lcz1i4r5aTw3fKnRXkfctzPWLj+NJ4bvlToryPuW5nrFx/Gk8N3yp0V5H3Lcz1i4p5aTw3fKnRXkfctzPWLj+NJ4bvlToryPuW5huLj+NJ4bvlToryPuW5nrFx/Gk8N3yp0V5H3Lcz1i4r5aTw3fKnRXkfctzPWLivlpPDd8qdFeR9y3M9YuP40nhu+VOivI+5bmesXH8aTw3fKnRXkfctzPWLinlpPDd8qdFeR9y3M9YuKeWk8N3yp0V5H3Lcz1i4/jSeG75U6K8j7luZ6xcfxpPDd8qdFeR9y3M9YuK+Wk8N3yp0V5H3Lcz1i4r5aTw3fKnRXkfctzPWLj+NJ4bvlToryPuW5nrFx/Gk8N3yp0V5H3Lcz1i4/jSeG75U6K8j7lubkXFxUVmk4R+u7l515vSvTPg9VyW1jxbhxeTZ3o7Cp08V4rwd0ZEBAQEHBc1oLnGgHCToCwIpmd4WBxhfDC83tw0kGOHuQRyyHtetVcOXfY68PGXLk3VK/NC7/AHmbQ3kbo7dsNmxxNHxgukA5NZ5Ir1aKLydyyTwjSHBbe2nh4IrdXd1eyme8mknkJrrSOLj8a4b3tbjLltaZ4y+NV4eRZBYBZZEBAQEBAQEBAQEBYYEhkRgQP/iCsxMxwI8GTx20ecxWixvpWMrUxl2uyvevqFupuMlOEt1c968JSK23pZ+LUbPb2s7R3TqPY49Z2qOsu2nc7xxiJdEb28cYhJMfvQwlwAL6KWzeeOnSMrzt0/Eu2ncsc8fB1U3lZ4+CU2OaxWSbrWN5DP1GPBdp5W8K7qZa24S6q3rPCXuqtj2VWQQEBAQEBAQEBAQKhBjsvnMZhLcz5CdsQoSyOtXvI4mN4StWTLWkeLXfJFY1lV+f3iZXLMltLJrbKzk0azSTO5vIX8Da9RQWbuFr+ERpCLy7u1vCPCEQUZPBxIdlPaFz5wr612z/AJqf6wicvql5VItYgICAgICAgICAgICAgICAgICAgICAgICAgICAgICAgICAgICAgICAgICDlvdDnC8X9MvVOMNyIvJs70dhUxfI4OyMiAgIBQUvtzmspcZ2/wAdLcv9Tt5dSOBp1WU1WntgKV4eNVveZr/cmuvgh9zlt1zHwRcaOBR7iEZFkEBAQEBAQEBAQEBAQEBAQEBAQEBYYEBABLHB7CQ4EEOaaEEcYKRaYnwZi2nBnMftntLji3ob58jG/wDSn+kbTk7bT1iuzHvMtfi313F4+KT2G9eZva5OwDx/Et3UPgv+VdtO5z/lDqrvucM7BvN2Yl1Q908Tjw68JIHO5tQuuvccUuiN3SWcstpcFkKep38EjjwM1w13guoV013FLcJbq5qzwlkg4OFWkEHjGkLdE6trmqyOUBAqsDiqyOsk0cTS+VzWNGkucaD415m0RxYmUeyO3uzOOeY33fTvHC22aZqfC3R8a5cm8xV+LRbcUj4ojl96d3OHRYS39WYagTz0dJzhg0D4aqPzdymY/ZDky736UGuLq5u5TPdzSTzO0OklcXOPwlRNsk24uC15nxl8l50eBYtwIQ/Ke0LnzhX1vtv/ADU/1hFZfVLyKQahAQEBAQEBAQEBAQEBAQEBAQEBAQEBAQEBAQEBAQEBAQEBAQEBAQEBAQEHLe6HOOyvF/TL3TjDciLybO9HYVMXuODsjIgICAUFFbZe9OV8/wDMaqtvPdsgtz7ksIuRziyyICAgICAgICAgICAgICAgICAgICAgLDAgLILDIjB1UNCg01HCnxZ8XptsjkLOhtLqaGnAGPcB1q0WyM144S9RltHBlINt9qrdoazIyOA4Oka1567mldFd7lj4t0bnJzZCPeXtRGAHPgk6r4uHwS1bvyOT5Nkb277jehtEANaK2J4zqOHzln8lk+TP92/J8n7zdpnghvqzOQiIkjruK8/ksnyY/u3eG5262quah1+6MckTWs+MCq1W32Wfi8TusnNhbq+vb12veXEs7jxyPLuyue2S9uMtE3tPGXwpyLU8CyyLLAjIvNuDEIflPaFz5wr6323/AJqf6wisvql5FINQgICAgICAgICAgICAgICAgICAgICAgICAgICAgICAgICAgICAgICAgLALI5b3Q5x2V4v6Ze6cYbkReTZ3o7Cpi9xwdkZEBAQCgorbL3pynn/mNVW3nu2QW59yWEXK0CAgICAgICAgICAgICAgICAgICAgICAgICAgICwwIFAEHFAsjlGRAWGDQgICxoCyCyyIC824MQh+U9oXPnCvrfbf+an+sIrL6peRSDUICAgICAgICAgICAgICAgICAgICAgICAgICAgICAgICAgICAgIPVi7eO7yllazAmKe4iikANCWveGu0jqFa8k6VmY5NmKNbRHzbCfkzsGf/az/AHiX/mVb/v5ea0/jcPJAt62wmzmyeMsLnCwyRy3Fw6OUvlfJVoYXUAcTxrv2G4vktMWRvcdrTFWJrzVcphCCyOW90OcdleL+mXunGG5EXk2d6OwqYvccHZGRAQEAoKK2y96cp5/5jVVt57tkFufclhFytAgICAgICAgICAgICAgICAgICAgICAgICAgICAgICAgICAgICAgICAgLzbgxCH5T2hc+cK+t9t/5qf6wisvql5FINQgICAgICAgICAgICAgICAgICAgICBoXmZlk0cRFedZApDAsggICAgICAgICAgICD3YL25jftdv6Rq1ZvRPk3YPXXzht6qcvKqN/fsTFfa3+iKle1+ufJC949FfNRasKtCDlvdDnHZXi/pl7pxhuRF5NnejsKmL3HB2RkQEBAKCitsvenKef+Y1Vbee7ZBbn3JYRcrQICAgICAgICAgICAgICAgICAgICAgICAgICAgICAgICAgICAgICAgIC824MQh+U9oXPnCvrfbf+an+sIrL6peRSDUICAgICAgICAgICAgICAgICAgICAgubcdi8ZkMZlnX1nBcuZcxhhmjZIWgx1IBcCoHuV7ReNJ08Fh7Vjrak6xr4rJyWzuAZjrtzcXZgthkIIt46ghh4O1UbXLfXjP/ANS18GPpn9sNT21LQTyK3wpMuVlgQEBAQEBAQEBAQEBB7sF7cxv2uD0jVqzeifJuw+uvnDb1U5eVUb+/YmK+1v8ARFS3a/XPkhO8eivmotT6tiyOW90OcdleL+mXunGG5EXk2d6OwqYvccHZGRAQEAoKK2y96cp5/wCY1Vbee7ZBbn3JYRcrQICwwICAgICAgICyCAjIgICwCyCwwLIIyICwwLILAICAgLLIgLDAgURkRgWWRYBGBAQFlkWGBNQWJ4EIflPaFz5wr6323/mp/rCKy+qXkUg1CAgICAgICAgIFEBAQEBAQEBYCiyCAgBYF5bg2kYjLupoN1GAeaPT2VAd09ceSy9n9E+az8p7NvPMS+IVF14wl7+mWnw0tHMrmociyCwCyCAgICAgICAgICD3YL25jftcHpGrVm9E+Tdh9dfOG3qpy8qo39+w8V9rf6IqW7X658kJ3j0V81FqfVsWRy3uhzjsrxf0y904w3Ii8mzvR2FTF7jg7IyICAgFBRW2XvTlPP8AzGqrbz3bILc+5LCLlaBGCiwFOdDUonyH1t7S7vX9HZwSTuHC2Jjnn+qCvdaWnhGr1Wtp4Q73OPvrKnrlrNb14OljczxgFm+K1eMM2pavGHnWuHgQem2xuRvGl9nZzzsHC6KNzx12grbXFe3CJe4xWnhD53Ftc2j+juoZIHngbK0sPWcAvE1tHGJgtS1eMPkvLyLIICMAFaNaCSeADSSnjLMRqyEez+dkj6VmOuXMIqCIn6R1NC3RgycpbPtX5PHPBPavMVzE+F44WSNLD1nLXak14w8TWY4w+a8PIssiwFKowLGoaBpWfAemDHZG5Z0ttaTSx/tsje5vXAXuuK88IlsjHbk+D2PjcWSNLXDha4UPWK8aTHGHiY0dUYFlkQcUWB9be1ubqTorWGSaT9iNhees2q9VpaeEasxWZ4Q9k2BzdvGZpsdcsYBUuMT6AdXRoWydvkiPTL3OK0cYY+lD1eRaZhr00Flgpz9dYZKc6aMFEY1EZEZKLzqxLinP8a9BRYkhD8p7QufOFfW+2/8APT/WEVl9UvKpBqcmgqSUGQsdns7k4xNjsbdXURrSWKF7maOHtgKLRfPSs+Mw31wZLcKy+d7hsvjG62Ssbm1HBrTxPjb13ABZplpPCYli+G9eMS8ehbZhqcIwLIBBzo4SVjw4jJWWze0GRj6awxd3cRDR0kcLy2vPSi0znxxxmG+uC9uFZfC/xOUxZDclZXFoTwdPE+MHmLgAvVctLcJeb4r14xo8mgLZwa3CywIAWNBzQLGgU4kmIkei0x19kHObYWk9yW8IhjdJSnLqgrzOSteMttcV7cIdbqzu7GTobyCW3k4NSZjoz1nALNclZ4Tq82x2rxjR8Dyr28OaLAAfH101iOLOjZLdNs9c7P7JxNvWGK6vpXXckbqhzWvAbG1wPAdRoKq++zRkyeHCFu7fhnHijXjPil2U9mXnmJfEK5K8Ydt/TLT1o7VvMFc4USeLlZYKLA5osaBSulZ08RwdUcdEnWA0HgRkWWDQsTGo+9pY3l/IILG3luZToEcMbpHdZoK8XvWvGdGyuO1uEashNsptNbQG5uMPexwgaznut5AABpq7RoWuNxj4dUNk7bJH+MsRTi4CNBBW6dJaJjQWWBZHuwXtzG/a4PSNWrN6J8m7D66+cNvVTl5VRv79h4r7W/0RUt2v1z5ITvHor5qLU+rYsjlvdDnHZXi/pl7pxhuRF5NnejsKmL3HB2RkQEBAKCitsvenKef+Y1Vbee7ZBbn3JYRcrQIwle7zG2OVzc1vkIGXELbZzwx4qA4PYAfjXf2/HF7zFuTr2lItbSeSyjsbsx+FweCpv+rj5JP+vTkhL9iYsttlfW0DBa4izMXS6gpUujY7o4+QmtSVGTsovmn4VhxTtotln6YWNjsbZYq3baY+FsELeBrRw9UnhJ51MUxxWNISNaRWNIfa4t4bqJ8FxG2WJ4o+N4q0g8RBXq1YtGkvU1ieKodt9kDgLgX1iK425fRsekmF506lf2T+qq9vdr9ueqOCH3WDonWOD37D7DMyUUeZzDda0dptrQinSAfrvP7J4hxrdstnFv32bdttomOqy0o42RMayNoYxoo1rRQAcwU5FYjwhJxGjyZPFWOYtXWeQhbNE4cDhpB5WnhBWvJireNJeb0i0aSpvavZS52YuY2ukE9pcF3QTUoRq/qPH7VFXNztJxT8pQufB9ufkwC43OJIyOCwl7tBfCxsgAaa0krq6sbBo1nU7C3YcFslumG3Fim86QuDZzZHGYCCPUjbNe6v0145vbOdx6la6reoFY8G1pjrpprKZxYa0hn11t7xZTE2GYtnWl/C2WN3LocOq1w0grVkxVvGloeLUi0eKpdrNirrZ6t7A/1jHOfqh9CHxV7kScvOq/u9lOLxj0ojPtpp4xwRZcDkE1Fp7DbOYTI7OQXV/Ywz3Dnyh0jm1JAeQPiU/ssFLYomYS22xVtSJmGWy2yezcGLvZosbAySOCV7HhukOawkFdGXbY4pPh8G6+CnTPgjuw2wtvNawZrNN6UygSW1o4HVa3idID3RPCAuLZbKNOuzn2+2jTqssdjGsaGMAa0CgaBQADqKZ00SMRoxGf2ax20Nq6C8jDZR5K5aAJGHqHjHKFz5tvXJGktWTFW8aKWzWJu8HkJMdeAF8elrx3L2HuXt6hVazYZx2mJQeTHNLaS8K0tYgkWyWyNztNNJIZOgsYHBs01Kuc6gOozq0PDxLt2u0nLPydWDb/c8fguHF4mww9q20sIWxRNHF3TjxlzuElWLHirSNITFMdaRpD2EVWx7RzaXYvGZ+CRzWNtr86Y7trdNeR7RTWC48+0pkjlLny4K3j5qfy2Lu8LkJcdegCaI8La6rmnuXNrxEKu5sU47dMobJSaW0d8G+0jzNk6/jbNaGVrJ43irS1/a1PNWqzgmOuNeDOKY6o14LlGx2y54MXb+CrL/AFcfJM/YpyYbazY3EDA3c2Ls4ba6t29M2RrdJbH2z28PG2q5t1tafbmYjxhqz4K9E6QqRV1DCyyzex+JbmdoLW0laHW7SZrhrhUGOPSWnvjQLq2eLryRHwb9vj6rxC2v/DtmPwuDwVYP6uPklvsU5IVvIxmHxFpYw42yht5riVxfI1vbakY4Bzlyi+446UrERDi3lK1iNIUdlPaFz5wr6H23/mp/rCs5fVLzxxySvbFEwvkeQ1jGirnOJoAAOMrvmdI1l4rEzOkL22A3RWeLZHltp42XeQeGvis3CsUFQDR4NQ+QcvB2VXd1vptOlfCFm2nbq1iJt4ytGONkTGxxtDWNFGtAAAHIAFGz4paI0dZ4IriJ0M7GyRPFHxvAc0jkIKRMxwJiJ4qb3h7ora1tbrP7MfQxwRma5xeqXNLW6XGAjuaCp1dPUUxtN/bWK2+PxQe87dGk2qp3RzqcV1wsj72VndZC8gsLKMy3Nw8Rwxt4XPcaALxa8VjWWylJtMRHxX7sPulx2AYL7PNhyWTJDo6tPQwUHAxridZ1f1iOZVzc762SdK+ELPte30xxrbxlYzWhooBQDgAUfKTiNHyubW3vIXQXUTJoXijo5GhzSOqCsxMxwYtWLcYUtt7ue9RhmzGygc6CMF8+MdVz2tGlzoHHSQP2T8Cmdr3Cdem//wBQO87bpE2p/wDFRqcQIjC0tzGzmD2gOYGasYr3oPV+h6VtdXX6TWpz6oUR3LNenT0zpxTfa8NL9XVGvBaX5c7Dfgdr4Cif7WX6kz/TxfSrLZ3dla7RbV5ye5b6tgcffywR28YLTKWuJ6Nj/wBVjRTWpp4lJ5d7NMdYj1TCIw7CMmS0z6YldOOxlhibVljjbeO1to9DIomhrR1uPqqFtabTrMp+mOtY0iHTK4fGZu0fZZW1jurd4oWSCtOq08LT1Qlb2rOsSxkxVvGkw1x3hbCz7F5FgicZsXdlxs5iNLSNJhkP7TRwHjCsuz3UZY+cKpvdnOG3hwlEToC70e2P2D2P2ZOzuDzLsXbHIm2imNyWVd0hb3enjVX3We85LRr4arftNvj+3WdPHROgKLhSDiWNssbonjWY8FrmngIIoQjEwjX5cbDU9h2vgf8AFdH9rL9Tl/p4vpa/7w8fZYrbXLY/HQtt7SGSIRQRijWh1vE40HVcSVZNpebYqzPH/wDuVb7hStMsxEeGiTbmsBh8/kMpDmbOK8jhhidE2VtdVxcQSOcBcncclqRXpnR0drw1va3VGq2vy42G/A7TwP8Aiof+1l+pOf08X0qdOwD9pN4WZweK1LDG2M5dLI1ms2KLtQGMboGs7TRTEbv7eGtp8bSg/wCn9zPaseFYW/iN2+x2GgbFDjIZ5AAH3Fw3pZHHjJL6gV5AofJuslp8ZTWPZYqRpoqPfTjcfjNpLSHHW0VrG+za97IWBgLjI8axA46BTPbb2tSdZ18UJ3THWt40jTwV2FJohYG73dhPtaxuWyUptsOyQsDWgiacs7rUdwNaDo1usozeb77c9McUvsth92Oq3BfeIw2NwdkywxVsy2t4xRrWDSeq53C49UqAvktedZlY8eKtI0rD38S8NqH7ZbuMHtXbySCJlnldX6G/jbQ63/qtaRrt59PVXXt93fHPOOTh3GypljlLXjaHAZHZnKzYjKMDZoqOa9pqySN3cSMPIVZMOaMleqFWz4LY7dMsWt7ne7Be3Mb9rg9I1as3onybsPrr5w29VOXlVG/v2Hivtb/RFS3a/XPkhO8eivmotT6tiyOW90OcdleL+mXunGG5EXk2d6OwqYvccHZGRAQEAoKK2y96cp5/5jVVt57tkFufclhFytAgmu6z3hn+yP8ASMUn233J8nbsvXPkttWBLvlFBHE+R7BQyu13nldQN7DQsRGmrERo+qyyIPBmsVBmcbPjrjyc7aa3G0g1a4dUFasuOL1msvGSkWrpL02tvDaW8VtA0MhhY2ONo4A1ooB1l6pWIiI5PVY0jSH2qvbIgjm3OHGX2fuGtFZ7b/uIKcOswHWHwtJC495i68cxyc+4xxenkpJVhBOCQBU8CwLp2E2fGFwrJJm0vLyk05Io4AjtI/6I+NWbZYPt0+cpzbYuivzShdzpKoCDyZPHW+VsJ8fdCsM7Cx1OEcYI6oOla8lIvWYl5tXqjRQ2Wxs+HyVxjbnykDtUOpQOadLXDnCqmbHNLzWfggMlOm2jxrTPF4XPu591bbv5fHKs3b/ahNbT24SW4hZcQSQSiscrSx45Q4UK7pjWNHTMau0bGxtDGijQAABxAaAkRpDLssggr3etYB1lY5Jre2ilMMjgP1HtLm1PUc341Ed0r+2LfNH76msRKsVBIp9rO0uL+7hsrVpfPO4MjaAeE8ZpwAcJK90xze3TD3SvVOi+8Ni7fDY6DH2zQGRNAcR+s89289VxVsxY4pWIhP0pFY0h76ra9uKoOeFBCd5eFhusOcu1v/c2RbVwFS6J7g1zT3pOsozuOGLU6vjDi3mPqrr8YVLxUVe1Q+q9tkss3M4Czu9bWlDOin6kkfau+VWzbZOvHEp/BfqpEstPEy4hkgkFWSscxw6jhQrfMaxo2zGvg15vbR9he3FjLokt5HROGn9U0+NVDJTptMK9evTMw+K1vCxd09mC/IZBzdI6OBjuer3/ADVM9rp6pSexrxlZampSSm94uUbkNonwRO1orFgg0cGue2k+PR8CrfccvVk05Ibd36r6clR5Qf8A5C584V9L7b/zU/1hXcvqlZO5HZoXuUuNobyDWt7FvR2bnjtTcO7pza8Oo3j4iVzdyz6R0QmO17fWeuY4cF7AUUCsbmqyCDhzQ4EEVFOAoNaN6Gy7Nmdp5RaxGPH3w9YtKDtAT5WMH913FyFWbY7j7mPSfVCpdw2/28msemUM4FII1cu47ZRpFxtZdsqTrW1gHN4KU6WVpPL3AI6qgu5bjWeiP1WLtW38OuY8lzKGTogIOpFeqjDWjeZsh/4nnyLZpGMv9aazOkhhr9JDX90nR1FaNhuPuU0njCp7/bfbvrHplDV2o1cv+3/hz3+V/wAVQndeNf1WDs/+X6LmUKn3wtbSCzY6OBoa1z3yupxvkcXvceqSVmZmZeYrER4PusPQgie8zEsy+xWUj6PXltojdwaKuD4O37XqloI+FdO0v0ZIce9xfcxTDWDiVtUxtVsD7l4P7FD4qqO59y3mu209qvkkK53SICDWHen/APsHN+ch/wDtolatj7Nf/wB8ZVLufvT5Ql24L2pmfMQ+O5cXdfTV19n9VvJeCgliYnDYS3xU+SumAGfJXb7qeTjNQGsb/RaFsvebREcmnHjiszPOWWWtuUHv396LH7C30sin+1+ifNWu7+5HkhGyuz9xtRnbXDW7izpnEzSgV6OJmmR/W0Dqru3GaMdJlHbbBOW8VbUY3G2mJsLfHWLBFa20YjiYOJo/SeNVO1ptMzPxXOlIrGkcIetYeyqAsCvt72ysWb2ckykEWtksWOlic0ds6Go6aM04e17YdUKQ2OfoyRE8JRvcdtF8czHqhrrwqzqm92C9uY37XB6Rq1ZvRPk24fXXzht6qcvKqN/fsPFfa3+iKlu1+ufJCd49FfNRan1bFkct7oc47K8X9MvdOMNyIvJs70dhUxe44OyMiAgIBQUVtl705Tz/AMxqq2892yC3PuSwi5WgQTXdZ7wz/ZH+kYpPtvuT5O3ZeufJbasCXY7N5i0wePkyF4T0bNDWN7p7j3LW9UrTly1x11lryZIpGsoGzexces1lxzBaV0hryZQ3l0jVqouO5+PDwcEb7x4LBxWTtMxYxX9i/XglGg8BBGgtcOIgqVx5IvXWOCQpeLRrD2La9sZnc3Z4CwffXjtA7WOMd09/E1q05ssY66y15MkUjWUDh3r3XTg3OPj9Xr2wZIdcDlqRQqJjuk68PBwRvvHgsq1uYby3jurZ4khlaHxvHAWnSCpqlotGsJKJiY1h9HAOBB4DoXqWWut1H0N1PDwdHK9lO9cQqdeNLTCuWjSZhmdisUMxtFbQSN1oIP8AuJgeAtj4B8LqBdGzx9eWI+DftsfVeF4gK0px5clkrPE2kl9fSiKCMaXHSSTwNA4yVryZIpGs8Hm14rGsq4n3r5B0xdaWMTbevatlc4vLeqW6Aoae5zr4R4I2d7OvhCZ7M7WWG0kB6GsN3GKzWzjUtH7TT+s1Se33NcseHF24c0Xj5s+upvVpvWxzGyWGVY06z9a3lIGjQNdlfjUL3PHwsjN7ThKueNQko5dG7n3Vtu/l8cqzdv8AahNbT24Sld7qRXazba22bc20ii9Zvnt1xHXVYxtaAvPV5FwbneRi8OMubNuIp5sTgt50d5dMtcvbtthK4NjuI3EsDjoAeHaRzrRg7jFraWjRoxb2LTpKwFLJBg9s7MXuzORip2zYjK3vou3HYXLu6dWKYac9daSouvGqrCATvdVZNmyt7fOAPq0LWMJ4nSk1p8DFLdspraZd+xrraZWrxKeSyududuLm0uX4bDSdFLEaXVyO6DuHo2V+MqH3u8ms9NUfuNzMT01Qq12n2gspengyE5fUuLZHmRhJ09s11RRRdd1krOurgjPeJ4rj2YzsW0OKivmAMl0suIga6kjeEcx4QrJt80ZaaprDki9dWSvLaK8tpbWca0UzHRvaeAhwoVuvXqiYbLRrGjXu7tn2V3PZyd3BI+N1eVhLVT706bTHJXbV0nRY26nI68F7ind1E4XEfev7V3xtCmu2X8JrySWyv4TCxFMJFTe8mzNttM+agDbqGOQU4y0GN1fBVc7jXTLrzQ29jS/mifEo5xrs2Bx/+n7MWgcKSXINy/8AtO5/q0Vn2WPpxx807tqdNISCeVkEMk8hoyNpe8niDRUrstOkat8zpDXi5nddXM1y81dNI+Qk/vkuVMyW6pmVdmdZ1QvKAnI3AAqTIaDlPIvrPbp021P9YROSNbS2m2UxDMHs7jcWxuoYIGdKP/VcNaUnneSq/mydd5lctvj6McVZg6AtTeq7avfTZYa/mxmGsvX5bd5jmuJH6kOs3Q4M1dYuoeNSmDt1rxrM6aofcd0rS2lY1ejY3fBYbQ30WJylt/p97OdWCQP1oHu4maxoWuPFXhXncbC2ONYnWHra9xrknSY0lZXCo1LIBvkxUV/sZPduH0uOljuIncdHOET2/CHrv7fk0yxHNG9yx9WGZ5NfMfZTZO/tcdb+Wu5WQR99I4NB+NWO9orWZnkq2Ok2tER8W2+Kx1tiMda4y0bqwWsTYYx1GClec8Kp97TaZmV4x0itYiPg9EsrIWOllcGRsBc97jQAAVJJXnTV6mdPFT20W/N1vfSW2zVnFc2sZ1fXLguAkPGWRt1e15CTpUxh7ZMxradJQmfusVtpSNWe2F3s2W09y3FZWFuPyb9EGq6sMx/ZYTpa7qHhXNudjbHGseMOja9xrlnSfCVjDSKrgSiD728FHmNjrucD6fGD1yF3UjH0o+FlV2bLL0ZI5S4O4YfuYp5w1sVpU9cv+3/hz3+V/wAVQndeNf1WDs/+X6LmUKn0e2y2vx2xuL/1C9a6WSR3R21swgOkfSp0ngaBwlb8GC2W2kObc7iuKusq1sN/Vy69aMnio22TnUc63kc6VjeWjxqu+JSd+1/t8J8URTu86+NfBcWOv7TKWUGQsZRNa3LBJDI3gLSoa1ZrOk8U7S8WiJjhL7SxsljdFIKseC1wPGCKFYepjWNGoOTszj8jd2BFDbTyw/3by39CuWO3VWJ5wouSvTaYXRsvvb2Tw+zmNxd3616xaW8cUupDrN1mih1TraVB59hkteZjTSVg2/ccVMcVnXWIWHs3tJjtqsY3LYvpPVnPfGOlbqO1ozR2ipUblxTjt0zxSuHNXJXqrwZKeZtvDJO+upE1z3U4aNFStbbM6K+G+7Yoiv8A3n9wP+ZSH47KjJ7pi+al9uMxZ7QbV5LM4/X9Vunxui6Ruq7tIY4zVummlhU7tcc0xxWeMIHe5q5MnVXgnu4L2pmfMQ+O5R/dfTVIdn9VvJeCglicGgQeK+zOKxlP9RvYLXW7kTSNYTzBxXutLW4Q12y1rxlRe+27tb3aOwns547iI2LR0kTg9tRLJxtJU72ysxSYnmrndbRa8TE/BItwuGLLXJ5+Vo+ncy0t3EadWPt5aHkLnNHwLn7pl1mKw6+0YtKzZcCh04hu3G8bF7GRiAt9bykjdaKzYaUaeB8rtOq3k4yuvbbW2Wfk4d3vK4fnKA4/fxkm3Tf9XxkLrQntzbOcJWN5Rr1DqfApG/a408J8UZTu86+MeC5MXk7HMWMORx0zbi0nbrRSt4D1DyEcBChb0ms6SnqXi0axwetzQ4FrhUHQQeAheXuWqu3OCGzm1OQxbG6sDZOltvMy9uwf0a6vwK2bTJ144n4qXvMX28swxuC9uY37XB6Rq25vRPk1YfXXzht6qcvKqN/fsPFfa3+iKlu1+ufJCd49FfNRan1bFkct7oc47K8X9MvdOMNyIvJs70dhUxe44OyMiAgIBQUVtl705Tz/AMxqq2892yC3PuSwi5WgQTXdZ7wz/ZH+kYpPtvuT5O3ZeufJbasCXVVvUyDpsra41rj0dvF0rm10F8poOs1vxqB7nfW0VRW9t4xCCKJ8UetDdRdl9hf2LiSIZmyN6gkbQ/GxTvbLftmPmltjP7ZhYCl3eqLeffPuc9HYh56K0hb2le115O2J59Wir3cckzfTkiN5fW+nJDCoxw6LV3V3s02JurKRxcy1mBiqa0bIC4jmqCp/tuSZpMckvsra005J2pV3Nfs6wR5zJMHA26mA/vCqjnjS9vNX8vrnzTTdPaB1xkb81qxscDeTtiXu7AUl2usa2l27GPGZWaVNpNUO8fOTX2YdiY3kWllQOYOB01KuceYGgVf7jmm1+n4QiN5lmbdPJDVGOJ7cNkpcRlLbIwvc0wyN6TVPdRFwEjSDytW7Bkml4n5tmK81tEw2BjkZKxsjDrMeA5rhxgioVtidVgRreFaMutlrxzq1tyyZhHK1wB/qkrj31YnFPyc26rrjlS3GqvohFz7ufdW27+XxyrN2/wBqE1tPbhKHENFTwDSeZd0y6mveVvpMlk7u+lcXGeV7gSakNqQwfA2gVQy3m1plXsluq0y8mkcBoeI9Va9WqF/bO3zsnhLG+eavmgYZDyvAo74wrdgv1UifksWK3VWJenJMEmPuo3cDoZAfhaQveT0y9W4S13HAAqcri3d19k23wEl3T6S7ncST+zH2jR16qxdurpj15pnZ10przTC5lbbwSTv7mJrnu5miqkLTpGrrmdIa8XV1Je3U97M6stxI6V5J43Gqp97Ta0zzV29tZmXyXnV51TfdbfSQ5qew1j0VzCX6nFrxkUPgkqU7Zb98x8nfsrz1TC2VYEspDb23bbbV3wYKCQsl+F7AT8arG9rpllB7qNMku+wORdjtprUVIju620reI6+lhPM4BZ2OTpyx83ra36b6c12A1VmTSv8Aeri+lsbXLMB17Z/QyEfsScFf6Q+NRPc8etYtycG9prXXkrGKJ08jIG8MrmsFP3jqqCiNZiOaKiNfBsRawNtraK3Z3MLGxtryMAaOwrjWNI0WOI0jRgNvr71HZe9o4tkuA23jI0Gsh7b+rVcm9v04p+bRubaY5UoqvMeCDeDZbFszG8GxsZG60Ru+llbyshHSkf1V9QwX6djWf4uTb06s8R82z6hFvQHfBtFc4HZcQ2E7re8yEogZIw0e2MAulLTxaAG16q7thhi+Tx4Qje455x4/DjLXIaOBWfRU58XLS5p1muLXNILXA0II0gg8oSY1InRtFsntLBd7EWG0OWuGQNFtW8uJXANDoiY3ucTyltVUs+GYyzWIXPb5otii0yrfeJvZx+Zx13s7g7czW1yAya/kqwUDg76KPh4uFylNpsLVmLWRW87hW1ZrVEd2Foy829w7HgubHI+fRxGKJ7mk/wBIBdu/nTFLg7dGuaGzoVWW9VW+7ai5x1jabP2Eron5APku3sNCbdvadHXkeTp5lK9twRa02n4Ibumea1isfFRXArBHgrTtG+SORksT3MkjIcx7TQtc01DgeUFYmsTGks1to2q2IzZ2i2WxuVkfrzywtbcu0D6ePtJdA5XCqqOfH0XmF02uXrxxLLZCzhyFjc2E41obmJ8MjeVsjS09laqzpOrdevVWYagTRmGV8R4Y3Fh52miulZ1hRbRpOi4v9v8Aw57/ACv+KoTuvGv6p7s/+X6LmUKn2uW+PLyZHbSazDyYMbFHbsZWrQ946WV1OU6wB5lY+20iMevNVu6ZerJpyQGikkS2E3JZR17sm+xkNXY64fEyvFHIBK343OVb7jj0y681q7Xkm2LSfgsdRyVaqbexCHbTORt0D1yV3hnX/SrZtJ/8qz8lL3saZreaPrqcrYrcp7jxfarjxgqx3D3ZWztnswm+U9mXnmJfEK4q8Yd9/TLT0DtRzK5wokuVkW3uC9qZnzEPjuUN3X01TnZ/VbyXgoJYkI3qbW3OyuzofjpOjyN7IILWSgdqAdtJJQ8jdA6pXbssEZL6Twhwb7cTiprHGWuF3c3F/cPu76aS5uZCXSTSuL3uceEklWatK1jSIVO+S1p1l8gABQcCzo8atot21hHj9iMPHG2nSwC4fXhLpyZCf6yqu7v1ZbT81y2VOnDXySG+u4bCznvrk6sFtG+WV3I1jS49hc1YmZiIdV7dMTMtS85l7nP5e8zN2fpbuUyFtdDW8DGDvW0Ct+HFFKxCk58s3vMvAVuaVp7k9p57TLv2ZuJS6zvWultWHgZOwazg3v2DrhQ/csEdPXHFNdq3ExbonhK+AoFZFFb+bLos3i8gG0FxbPiceUwv1h8Uine12/bMK53en74n5K3wXtzG/a4PSNUpm9E+SJw+uvnDb1U5eVUb+/YeK+1v9EVLdr9c+SE7x6K+ai1Pq2LI5b3Q5x2V4v6Ze6cYbkReTZ3o7Cpi9xwdkZEBAQCgorbL3pynn/mNVW3nu2QW59yWEXK0CCa7rPeGf7I/0jFJ9t9yfJ27L1z5LbVgS6md5HvXP5mHxVW+4e7+iG3nuIquByLD3S/zOTHEWRdlymO18bJHY/FZqm0mpDbwk7WZCvLH6Nqq+996yD3XuSjy43MsndLXo8r30PYeprtfC36JTY8JWOppIqA2h9v5P7XP6Qqpbj3Leav5vXPmn+6aMjH5GX9udg8Fn/FS/a4/ZM/NI7GP2ysBSzvUFtK/pNoso7/6qYcvA8hVLce7bzV/L6582MWlrDpCxLGi9tj533OzGMll7voGtJ7ztP0K17W2uOs/JP4J1pEvrtRCJ9ncnGdINtKadVrS4dhetxGuO3k9ZY1pPkoPiqqir66N3Purbd/L45Vm7f7UJrae3CQZElthdOHCIZCPBK7L8JdFuEtd2mrQeoqcrurlJYXZu/JdslYE8QkHWlcrPsZ/8YTm1nXHDO3/APJXPmn+KV1ZPTPk6LcJa6juQqcra8th4hFsrjQNGtEXnne4u/SrTs40xV8k7to/84Z2WNk0bopGhzHgte06QQdBBXVMauhiv/FdnRwYy2/u2/ItH9bHyavs05H/AIts7+GW39235Fn7FOUH2acn3tMFiLGcXNnZQwTAECSNga6h4RUBeq4a1nWIZrjrE6wyC2tim95TdXaqV37UEJ6wI/Qq53H3f0Q289aLwTy2s8VzCaSQvbIw9VhDh2FwVnSdXJE6Tq2BxV/HlMdbZCLuLmNslAa0JGkV6h0K3Yr9VYnmsVLdURLz7R2AyeCvrKlXSQuLB++0azP6wXjPTrpMPOWvVWYVFsNjHZLaSzFAY7Ym4mrxCPuR4RCr2xxdWWPkh9tjmbx8l4K0JxWm9e/Dn4/GNPch9xIK8vaMqPCUL3O/CqN31+FVdKEngjGQ3UwdNvIml0fQQXD+vqs+cvpOv/8Ahp5Qx2+NdxLYBRazKH3830kufxuP/wCnb2hlGn9aaQg/FGFP9rr+2Z+at92treI+SrFLoQWB6ZMhfy2cWPkuZHWUBLorYuPRtLjUkM4KkrxXHEW108Wyck9Omvg81Vs1lrWJuSt+m216XR9BZzv8IsZo8JRvc50xfqlu0xrl/RsOq2tKgN+kwftZaQgeSsWVPfSSFWHtcf8AnPmrHdra5Yj5KzUqhxYF8bhryWXZ7I2L+4trvWjNeKVgJFOdqr3c66ZInnCz9ptrjmOUrTUWmGomfgNtncnbn/pXdwzrSuVxwzrSPJRs8aXnzWr/ALf+HPf5X/FUR3XjX9U12f8Ay/RcyhU+1X3gknbfO1/+bf8AEAFa9l7VVM33vW80cqutxrs3Al3qebb+qJYD8Ja/5FA909ULF2fXSy31Dp1qxvE9+M59qd4rVa9l7NVN33vW80bXW4mxW5T3Hj+1XHjBVnuPvStnbPZhN8p7NvPMS+IVw14wkL+mWno7kcyucKG5WRbe4L2pmfMQ+O5Q3dfTVO9n9VvJeCglia/78cpLdbU2+M/6NhbNIFeGSc6zjTvQ1WDtlNKTPNWe7ZNbxXkrRSqGD3J5ijMNu9n4Ba4LGWzeCK0gZ4MbQqbknW0+a9Yo0pHkj29a6fa7B5V0Zo6VscBP7ssjWO/qkrp2Vdc0OXf26cNmstVaVOFkZ7Yad1vtjg5W8Pr0LOTQ92oficubdRritHydeztpmr5trVUl0VJv9gri8NcCnaXMkZPHR8et8xS/ap/daPkhe7xHRE/NT2C9uY37XB6Rqms3onyQGH1184beKnLyqjf37DxX2t/oipbtfrnyQnePRXzUWp9WxZHLe6HOOyvF/TL3TjDciLybO9HYVMXuODsjIgICAUFFbZe9OU8/8xqq2892yC3PuSwi5WgQTXdZ7wz/AGR/pGKT7b7k+Tt2XrnyW2rAl1M7yPeqfzUPiqt9w939IQ289xFVHuNYe6b+ayfeRdlyme18bJLY/FZqm0mpDbz3syHfR+jaqvvfesg917ko8uRzrJ3S9xlO+h7D1Ndr4W/RJbH4rHUyklAbQ+38n9rn9IVUtx7lvNX83rnzWJupcDh7xo4Rc1PwsapjtnonzSWy9Mp2pV3Nf88KZ3J8vrc9f7wqo5/ct5yr2X1z5setTwLDC8dhhTZPG+bcf67ladn7VU9t/bh79oCBgskSaD1Wap/oFbs3onybMnpnya/DgCp8q8ujdz7q23fy+OVZu3+1Ca2ntwkGS9n3fmJPEK7L8JdFuEtd29y3mCp0K45SWV17vvdKw/tfSvVn2Pswm9p7cM9ffyVx5p/ildWT0z5Oi3CWuo7kcypytr22NcHbL4sj+A34qhWrae1XyT239uGbJAFSaDlXTLe6dJH+23rhY1jmxrB0kf7beuE6vmawdJH+23rhOqOZrB0sf7beuE6o5msKe3lOa7ah+qa0t4q0+FV7uMxOT9EPvZ/eiajnGtzdhf8ArOAfaF2s+zncynIx4D2/GSrF27J1Y9OSY2V9aackzPApJ2oVsNhRj8rtBK9uqW3boIhp0RkmUU+B7VG7PFNbXn5uPb4+m1p+abHgUk7FE7X5NuW2ivbqN2tCx/QwuGkFkXa1HOalVXd5evJKC3F+q8sKuS3Bzwy+6Igbwr8E0JtJqdXt4l9Hn/ix+UM9u9+fJfKjVka978WubtjE48D7GIt+B8gVi7ZP/nPmq/dvdjyVwpRECAgILK3FuA2uugTQusJKDl+liUX3T2480x2n3Z8mwKrqztd99zXN22BJ0OsoSObWeP0Kx9s9v9VW7r7v6K8UmiRBd+4Ef/jcyeL1iEdZhUB3T1V8lk7R6Lea3FEJtqXtY4P2pzTm6Qb+5IP9q5W7be3XyUjc+5bzWd/t/wCHPf5X/FUX3XjX9Ux2f/L9FzKFT7VfeB77Z37Y/wDQrZs/ar5KZvvet5o4F1ONdm4H+UznnbfxXqC7r6qrH2f02W+oZONWN4nvxnPtTvFarVsvaqpu+963mja7HE2K3Ke48f2q48YKs9x96Vs7Z7MJvlPZt55iXxCuGvGEhf0y09HcjmVzhQ3KyLb3Be1Mz5iHx3KG7r6ap3s/qt5LwUEsTWfe24u2/wApX9XoGjm6Bh/SrN2+P/GFS7lP/tKGKQRoTRpKwzDcDFEHF2RGkG3iof6AVMvxle8fpjyRDfEK7B33Ult/StXZsPehw9z9if0//lrcrQqIgzGyHvXhP/7C19K1c+59u3lLp2vu184bZqorsqzf09o2exrD3Tr2o+CF/wAqle1+ufJDd39uPNSuC9uY37XB6RqnM3onyV/D66+cNvVTl5VRv79h4r7W/wBEVLdr9c+SE7x6K+ai1Pq2LI5b3Q5x2V4v6Ze6cYbkReTZ3o7Cpi9xwdkZEBAQCgorbL3pynn/AJjVVt57tkFufclhFytAgmu6z3hn+yP9IxSfbfcnyduy9c+S21YEupneR71z+ah8VVvuHu/oht57iKqPcaw90381k+8i7LlM9r42SWx+KzVNpNSG3nvZkO+j9G1Vfe+9KD3XuSjy5HOsndL3GU76HsPU12vhb9ElsfisdTKSUBtD7fyf2uf0hVS3HuW81fzeufNPN0r/APtMpHXgmiNOdhH6FLdrn9to+aQ2M+ErDUskFD7WQvh2myjHggm4e8dUP7YHrFVXdV0y2j5oHPGmSWHXO0nNpJ0AdU8Cxoaar/wFkcdhbGxcKOggY1/fatXfGrdhp00iPksGOvTWIebbGboNmMm8cPQOb4fa/pXnczpjt5POedKSojjVSQK6N3Purbd/L45Vm7f7UJrae3DP5L2fd+Yk8Qrsvwl0W4S14b3I5gqdCuOUllde773SsP7X0r1Z9j7UJvae3DPX38lceaf4pXVk9M+Totwlrq3uRzKnK2uvd9cCfZWyFamLpIj/AEXmnxFWfY21xQnNrOuOGZzEDrrE3tsyuvLBIxtOHWLTT4105Y1rMfJuvGtZa/8ATT8cjweMazvlVRm9teMq/wBU8zp5v4j/AAj8qdVuZ1TzfSH1y4lbDbmWWV5oyNhcXE9QBeq9dp0iWY6pnSJdXyXMbix75GPaaOa5zgQeqCvM2tHhMyxM2jm+bnOcavJceVxqfjXmZmTjxcI8ptuvyXq2Zmxz3UjvY6sHF0kWkddpKlO25NLzXmkNlfS0xzW0FYEq4DQCSAATwnlQebKXAtMbd3JOr0UMj6ni1WkrXlt01mfk83nSsy15qSKnSTpPOqerkTqLFuA9G7O6ba7zImuNBcC4hr1THrj42L6VWuuxp8oh42NtNx5tiFFLQpjf3i362JzTGkspJaSmnAfKR/OUz2u/qqgO74/Tb9FNqdV8CCa4bdjm89sp/wCSYx7ZJS+QMsHDVfJHHo1o3nRrE10FR197WmTosksewtfH1x/8RG6tbmxuH2l9E+3uYzSSGRpY9p6rSu6l62jWJcFqWrOkxomu5y6Ftt3axE0FzBPCBynU6T5i4e5Rri1+aR7XbTN+jY/iVaWtQ2/iFzNosbcatGyWZYHcpZK4kfBrBT/a5/ZaPmrfd6/vifkq5SyEAswNhtyeMdY7HetyNo/IXEk7a/w20iZ4hKrPccnVl8lr7Xj6cWvNYnAo9KNP8pKZ8nezk16W4mfXvnkq44o0rEfJRcs63nzW1/t/4c9/lf8AFUR3XjX9U32f/L9FzKFT7VfeB77Z37Y/9Ctmz9qvkpm+963mji6nGuzcD/KZzztv4r1Bd19VVj7P6bLfUMnGrG8T34zn2p3itVq2XtVU3fe9bzRtdjibFblPceP7VceMFWe4+9K2ds9mE3yns288xL4hXDXjCQv6Zaet7kcyucKJPFyssLb3Be1Mz5iHx3KG7r6ap3s/qt5LwUEsTWbex7/5bng9BGrP2/2Y/VUe5e9KGrvRxSoosMts9krn1vZfD3J4ZLK3J5+jaCqfmjS8x81329tcdZ+UPJt/jH5fY7LWMTdaV1u6SJvK+EiVo67F621+nLWfm8bynVitHyascIryq3KU4WRKd2tjLf7b4eOMVEU/rEnIGQgvJ64AXFvr9OKfn4O7YU6s1W0Q4FVlxU7v9um9BhLId0ZJ5iOo1rWDxipftVf3TKC7xb9tYVLg/bmN+12/pWqazeifJB4fXXzht4qcvKqN/fsPFfa3+iKlu1+ufJCd49FfNRan1bFkct7oc47K8X9MvdOMNyIvJs70dhUxe44OyMiAgIBQUVtl705Tz/zGqrbz3bILc+5LCLlaBBNd1nvDP9kf6Rik+2+5Pk7dl658ltqwJdTO8j3rn81D4qrfcPd/RDbz3EVUe41h7pv5rJ95F2XKZ7Xxsktj8VmqbSakNvPezId9H6Nqq+996UHuvclHlyOdZO6XuMp30PYeprtfC36JLY/FY6mUkoDaH2/k/tc/pCqluPct5q/m9c+aT7q7zoszd2bnUbcQBzW8ro3f8riu7tltLzHOHVsbfumFsKfSyA7xdlX3rP8AXbBjn3UTQy5hb+vE2vbgcOs3sKJ3+2m0dUcXDusE2/dCrRp08SgNeaJSnYfZqfM5OK8mY5uPtHiR8uij5GHWbG2vDp7rqKR2W2m99Z9MOrb4JtbX4QucCisiaQ3ebkPVdnxaNNH3srWf0WfSO7AUd3G+mPTm495bSmnNUFFW5Q8Lo3c+6tt38vjlWbt/tQmtp7cM/kvZ935iTxCuy/CXRbhLXhvcjmCp0K45SWV17vvdKw/tfSvVn2PtQm9p7cM9ffyVx5p/ildWT0z5Oi3CWure5CpytrQ3UXrn2d/jnEkQSMmZXklBBHXYp3tl9azVKbG3hMLBKl0io/bPA3GFzU5MdLO6kdLavHc0calnO0qr7zBNLzPwlCbnFNbTylH1xuVON2mCmusn/rUoLbW0DmwkjQ+Vw1dHeg9dS3bsE9XXPB37PFrbqlP83sphc+w+vQUm4rmKjJRT96hr8Klcu2pkjxhIZMNb8VN7RY62xGausbZyvlhgcGh8lNauqHEHVAGgmirW4pFck1j4IXNSK2mIYxamt6sXeOx2StL9ji028zJCR+yD2w+EVWzFfpvFnvHbS0S2Eje2RjZGGrHgOaRxg6QrdE6rDDssiG7zMkbPAizjdqyX0gjNP4be2f8AoCju4ZOnHpzce8vpTTmqFVyEMLFuAjsOSkw21EWViJDrO7bNUUqWtcNcaa8LahfVtlXq2lY50cFb9GXX5tr4ZY54WTxEOjkaHscOAtcKg9ZV6fBc4nWNWF2w2XtdrsHNiLl7oiSJYJm8LJWV1HHhqNNCORbsGacV+qGjcYIy0mstXMnjbvD5G5xd+zUurWQxyt4qj9ZvK08IKtmPJF6xMfFTsuKcc6S74bD3+eyUOJxkZlu7g0a3iaON7zxNaNJKxmyxjrrJixWyW0q2q2dwsGz+EssLbEmO0iEeudJc7he7i4XElVHJeb2mZ+K6YscUrFY+CNb1sTibnZHJZG8tI5by1iBtbilJGPc5rW0eNNNPAurZXt9yIifCXJv8dJxzMx4wo3YK/GM2zw1252q31pkT3GlA2YGJ3D36sG9r1YrQrmyv05ay2qCqS5ojvF2Nj2wwZgjJZkLPWmsHilC/VoYn1/Vfwc9F1bXcTivr8HFvNtGWnzjg1nuLa4s55bW7ifDcQuLJYXgtc1w4QQVaaT1RrHiqF6TWdJZPZnZvI7U5WLF41hJcQZ5qdpDHXtpHni0cA41qz54x11lu2+3tktEQ2oxWNt8RjbTF2lfV7SFkEWsauLWN1QXHjJ41U726pmZ+K50pFYiI+Dy7T5F2J2dymTYQ19razSRk0HbtYdTh0d1ResVeq8R83nNbppM/JqTUkVcanjPKVclGlcv+3/hz3+V/xVB9141/VP8AZ/8AL9FzKFT7VfeB77Z37Y/9Ctmz9qvkpm+963mji6nGuzcD/KZzztv4r1Bd19VVj7P6bLfUMnGrG8T34zn2p3itVq2XtVU3fe9bzRtdbibE7kz/AP4iMcl3ceMFWu4+9K2ds9mE+uIW3EEkDu5lY5juZwp+lcETpKSmNY0aiZbGXOEyVzib5hjuLWQsc12irQe1eOVrhpBVww5IvSJhR82KaWmJeIadPEtrVMLc3Be1Mz5iHx3KG7r6apzs/qt5LwUEsTWbex7/AOW54PQRqz9v9mP1VHuXvShq70cINkd0GXGU2LtIS6s2Pc+0kHHRp1o/6jgqvv6dOWfmtvbcnVij5Jy4BwoeDjC4Ui1l3jbHXGyudnfFC4Yi7kdJYzDSxut2zoSeItJNByKz7LcxkpETP7oVPf7Wcd5mI/bKHmgbUld8+HFHRGsr/wB0Ow0mBsXZ7KRujyd83VjhfSsVvUOFRxPedJ6lFW9/ueu3THCFp7dtPt16reqVmKNSrXvfdkmXm10VlGa+oWrI39R8pMhHglqsXbKaY5nnKr92vrk05Qg+D9uY37Xb+lau/N6J8kdh9dfOG3ipy8qo39+w8V9rf6IqW7X658kJ3j0V81FqfVsWRy3uhzjsrxf0y904w3Ii8mzvR2FTF7jg7IyICAgFBRW2XvTlPP8AzGqrbz3bILc+5LCLlaBBNd1nvDP9kf6Rik+2+5Pk7dl658ltqwJdTO8j3rn81D4qrfcPd/RDbz3EVUe41h7pv5rJ95F2XKZ7Xxsktj8VmqbSakNvPezId9H6Nqq+996UHuvclHlyOdZO6XuMp30PYeprtfC36JLY/FY6mUkoDaH2/k/tc/pCqluPct5q/m9c+b5YnJS4bJW+TgGs+3eHFgNNZvA5leqFjBl+3aLPOK/TbqX7Z3UV7aw3cJrHOxsjD1HCoVspaLREwsMTrGr7kL0ywNzsXszd3DrmbHxmRxq/Vq0OJ4dZrSAuWdrjmddGmcFJnXRmYLeC1hZb20bYooxRkbAA0DqALorWKxpDbERD6HgXplUO8rM/6hmm46MgwY4FpINayvAL+sKBV7uGXqv0xwhD7zJ1W05Icov4uNc+7n3Vtu/l8cqzdv8AahNbT24Z/Jez7vzEniFdl+Eui3CWvDe5HMFToVxyksrr3fe6Vh/a+lerPsfahN7T24Z6+/krjzT/ABSurJ6Z8nRbhLXVvcjmVOVtJ9gs0zDZ1on8hetFvI+tNQl1WOPUro+FduxzfbyePCXXtcnTfzXUrOmnjyeLsMvaus8hC2aFxrqnQQRwOaRpBWrJji8aS82pFo0lFW7rtnxLruluXR1J6LXAFDxVDdb41wfjMerkjZU11S+ztLext47W0jbFBENWONooAFI1rFY0h2ViIjSHzyuQhxWOucjNpZbxl5HBUgaG/CdCxlv01mWL26Y1a/3dzLe3Ut5P5WeR0j+PS8kqo2tNpmZ+KvWtrMzzfJYYFiWF1bAZV2U2cg6TytofVZDWtejALT4JCs+yyzfHEz8PBObXJ1U8kmXa6VS70MiLnMwWDdIs4u3Nf15aOp8DWhV/uWTW8V5Ije31tEckJUY4hebcGIQ/Ke0LnvyvrfbP+fH/AKwisvqlsLuo2sj2i2cjspiG3+Kay2nbWuvG0UilA6oFD1Qofe4Jx31+Flp7fuIyY4j41TtcKRYjM7L7P7QAf6xj4bpzdDZHto8DqPbR3xrZTNenpnRpyYKX9Uau2G2bwWz8Zjw1hDaawo97G9u4fvPNXHrpfLa/qnUxYKU9MaMroC1tyqd+G0zbTFQ7M251rjIFs1yQe4gicC0EfvvHxFSvbsOtuvkh+6Z4rTo+MqLDnNIc00c01a4cII4Cp+YjTRWYnSdW0uwO0zdq9mrbJOGrcs+gu2Vr9NGAHO5nd0OdVTc4ft3mFy2ef7uOJSWgK5nYwGc2J2X2in9ay+OjnuKBvTirJCBwAvYQT8K3Y9xenCXNl22PJOto8Xuw+Bw+BtjaYezjtISaubGNLjyucdJ+FeL5LXnW06tmPFWkaVjRkeBeG1VO/DaQWmJt9m7d/wBLkD0tyAdIgjNWgj99/YUp23Drbq+EIbuu46a9EcZUVVWD4qyuX/b/AMOe/wAr/iqF7rxr+qwdn/y/RcyhU+1X3ge+2d+2P/QrZs/ar5KZvvet5o4upxrs3A/ymc87b+K9QXdfVVY+z+my31DJxqxvE9+M59qd4rVatl7VVN33vW80bXW4l+bir5k2zN3Y1pLa3jnOH7szGlp67Sq73OumTXnC0dptrjmOUrP4VGJdjr/A4TKStnyWPt7qVg1WySxNe4AcAqRWi2VyWrwlqvirbjGrW7eZBDbbd5i3t42xQxvhEcTGhrWj1aI0a0aArNsp1w1n/wDcVW7lWIzTEJluC9qZnzEPjuXF3X01dnZ/VbyXgoJYms29j3/y3PB6CNWft/sx+qo9y96UNXejhBZ25HaAY/PXGCmH0WUYHQv1gA2aAOdSn77T8Sh+54taxaPgm+1ZoraaT/kvwEUUCsjz32PsslayWV/BHc20opJDI0Oa4dUFZraazrDxekWjSY1YHG7u9jMVdNvbPEwtuGHWje/Wk1D+4HkgLffdZLRpMuem0xVnWI8UmAAXPDreHOZaDB4i8y9zpis4nSuaDQu1RoYK8bjoC90pN7REfFry5IpWbT8Gp2VyVzmMndZW8/mLuV00gBqAXHQ0HkaNCt2LH0ViI+ClZsnXebc30wftzG/a7f0rUzeifIw+uvnDbxU5eVUb+/YeK+1v9EVLdr9c+SE7x6K+ai1Pq2LI5b3Q5x2V4v6Ze6cYbkReTZ3o7Cpi9xwdkZEBAQCgorbL3pynn/mNVW3nu2QW59yWEXK0CCa7rPeGf7I/0jFJds9yfJ27H1z5LbqrCl1M7yPeqfzUPiqt9w939IQ289xFVHuNYe6b+ayfeRdlymO18bJLY/FZqnEmpDbz3syHfR+jaqvvfelB7r3JR5cjnWTul7jKd9D2Hqa7Xwt+iS2PxWOplJKA2h9v5P7XP6Qqpbj3Leav5vXPmxy0S1LI3a7TwsidgL+UMLCX2b3uoCHEViFeQ6Qpvt+4jTolKbPNGnTKxwQVMpFygVogj21+0UWBxUskcjBfyDUtYiQXazjTX1eGjeFcm6zxjpr8WjPl6K/NSL3ukc6SRxc95LnOOkkk1JKq8zrOqCmZmdZcLz8Rc+7n3VtvOS+OVZu3+1Ca2ntwz+S9nXfmJPEK7L+mXRbhLXhvcjmCp0K5DlJZXXu+90rD+19K9WfY+1Cb2vtwzt9/JXHmn+KV1ZPTPk6LcGuw4AqdCtuUZXLsNtPFm8c21uHgZC1AjkYT20jGgasoHH1eqrLs9z110njCa22frrp8YSsGq73UIOCQFjQVvvJ2nhfH/wCPWT2vLi1969pBDdU1bHo46ipUP3Dcxp0Qjd5n8OmFcKERgssiwwtzddayQ7PSXD+C6uHyR961rY+y0qxduppj/VMbOsxTzTMkNBJ4BpKktXa18y9+7KZO7yLv/cyukb1Gk0YPBAVRzX67zKv5LdVpl41qaxebcGIQ/Ke0LnzhX1vtv/NT/WEVl9Us9u+2tGx20Db6ZuvZXLPV71o7oRlwcHt6rCK05F73mD7tNPjDr2O5nFf5S2asr20v7aK7spmT28zQ+KWMhzXNPGCFV5rMTpK21tFo1h6Fh6EHiy+WscJjbnKZGQRWttG6SRx4SGiuq0cbjwAca90pNrREfF4veK11lqxtRtDPtTnLrNXDdQ3BAiirXUiYNWNleoOHqq14MMYqxVTNzmnLebSxC6HMnm6rbJmy+bNnfv1cZktWOZ7nUbFKDRkpropp1XHk5lGb7bzeuscYSnbtz9u+k8JbGRTRTRtlhe2SN4DmPaQ5rgeAgjQVXFqidXdGRB4Mxmcbg7GXIZS4Zb28QJLnuALiBXVaD3TjxAL3Sk2nSGvJkikay1Uz+bu9o8vc5i+drTXDyQ3iYwaGRt5A1qtmDFGOsVhS8+Wcl5tLHLe0Ll/2/wDDnv8AK/4qg+68a/qsHZ/8v0XNVQqfar7wPfbO/bJP0K2bP2q+Smb73reaOLqca7NwP8nm/O2/ivUD3X1VWPs/pst+qh041Y3ie/Gc+1O8VqtWy9qqm773reaNrrcSebotpbfAbUer3soisslH6u97jRjZg4Ohc4ngHdNr1VHdww9dNY4wle2Z4pk0nhLY4EHgVbWpyg1h3p//ALAzfnIf/toVatj7Nf8A98ZVPufvT5Qlu4L2pmfMQ+O5cXdfTV1dn9VvJeNVBLE1m3se/wDlueD0Eas3b/ZhUe5e9KGqQRwg+ttcz2dxFd2shiuIHNkhlboc17TVrgvF6xaNJeq2ms6w2f2G2vttrsHBehzG3zB0d7bNIqyRuguDeHVdwgqqbnBOK+nwXLa7iMtIn4pOud1iDhxogpLfJtzDeU2TxMrJYAWy5Gdjg5rnNOsyEEaO1I1nfAFNdv2+n77K/wBz3Wv7K8PiqIqcQD3YL25jftdv6Rq1ZvRPk3YfXHnDb1U5eVUb+/YeK+1v9EVLdr9c+SE7x6K+ai1Pq2LI5b3Q5x2V4v6Ze6cYbkReTZ3o7Cpi9xwdkZEBAQCgorbL3pynn/mNVW3nu2QW59yWEXK0CMMvs3tBNs3fPv4IWzufGYSx5LQA5zXV0d6ujb55xW101bsGacduCUfmvkPw+Hw3ru/J2+l1/wB6eSJ7QZqTP5N+SmibC97GsLGkkdoKcJXBnzfct1OTNl67asYtDUzuy+1FxsxJcyQQMnNw1rTrktpqE8FOddW23M4tdI4t+DP0apF+a+Q/D4fDeuz8nbk6f708kPzWUkzWTnycsYifOWlzGkkDVaG8J5lHZsnXebOLJk67TLwLU1pBsxtZcbMNuW29uyf1ksLi9xbq6leCnfLr2+6nFE6Rrq6cOf7evzZ/818iP/4+Hw3Lr/J2+l0f3Z5IPf3Tr6+ub17Qx1xK+VzRpAL3F1B11F3v1WmebhvbWZl8F5eCg4eOtfhCwJ9s3vJlsYI7HNROnjjGqy6YayUHBrtd3XPVS+37jpGlkhh3ukaWS2Pb/ZSSMSG+DNFS10cgcOpTVUh/dxc3ZG6x82GzW9CwhhfHhI3XFwdDJZGlsQ6tDRzlzZu4ViP2eMtOTeREftVrf313kruS+vpDLcSnt3nk4mjkA5FCXvN51nijL3m06y868aPIjCW4Db68wOMjxkVpFKyNznCRznAnXOtwDnUhg3846dOjsxbqa10iHuuN6V/cQSwOsIQJWOYSHu0awot09ymY00bZ3szHBAwKADkUTCOcoyl+D3g3mDxcOLhs4pWQa1JHucCddxfwDnUjh3846RXR2Yt3Na6aPbNvTv5oZITYQgSNcwkPdo1hRbZ7lMxwe/7sz4aIHwaFEwj4FkfW2ubiyuGXdrI6GeI1ZIw0cCs1tNZ1ji9VtNZ1hZOD3n2romQZ2N0UzRR1zENZjiOMsGlpU1g7lXTS/FJ4t5HCzPO2+2UbH0nr7To0NDJNbraq7P7mLTXV0Tuac0T2k3luvLeSywcb4RJQG8edV4HHqN005yo/cdw1iYp/9cmbdxMaVV+dJJOkk1JPCSeEkqI+aNEZEHaON80jIYxV8jgxo6rjQJEazoRGs6NhMZZR46wtrGIUbbxNjFP3QAT8JVwx16axCxVrpEQ8m0uQbjMFfXpPbMicGDle/tG/GVr3F+mky8Zb9NZlQYFAAqkr7lZZF5twYhD8p7QufOFfW+2/81P9YRWX1S8lVINSXbEbw8tsZI6GJou8ZK7Xlsnu1QHHhfE7Tqn4iuHc7OuXx4WSG13tsXhxhcOL3x7FX8LX3Ny+wlPdQzxvND38Yc0qFybDLWfCNU7TuWK0eM6OmS3y7F2UTn2k8uQlFQ2KCJ7QSP35QwBZpsMtp8Y0MncsVeE6qZ2y26zO2dxW9PQWEbta3sGGsbf3nn9d/VPwKa2+0pij5oDc7y+WfkjNV2uEQc8KwJzsLvNyWx7P9PniN9inOqIS4iSGvD0JOin7pUfu9jGSdY8JSm07hbFGk+MLZsN7+w17HryXzrR/HFcRPB4K8LA5vxqHtscsTw1TdO44Zjjo8eX307IWEbhj3S5Kf9RkTDGyv7z5Q2nwArZj7dltx8GvJ3PFWPDxUrtTtfmdr7xt3lnt1Iq+rWseiKIH9nldyuOlTe321cUaRxV/c7q+W2s8GCXS5RZYSzYfb272I9dNpaRXXrvR6/Suc3V6LWpTV5ddcW62sZdNZ00d+03c4ddI11Sz8+8v+E2397J8i4/xdebt/L2+lW+cysmczF7mJYxE+8lMzomklrS7iBKlMVOisV5InNk67Tbmx44VthpS/YjeDebERXkVpZxXXrjmPeZHubq9GCBTVHVXDudpGaYmZ00SG13s4YmIjilP5+ZimjE21fOyfIuX8XX6nb+Xt9Kt89lpM9mLzMyxthkvJTK+JpJDSQBQE8yksOOKVisfBEZ8v3Lzbmx63NJoOgioRnVZGx2+HK7P2zcdl4XZSzjAED9fVuI2jRqazqh45K9dRW47bFp1r4JjbdztSNLeKVXG/vENjPquKupJaaBI9jG16pGsfiXJHar6+Mw7J7vTTwhT+0WbuNo83eZu6iZDNePa50cdS0BjGxtAr+6wKaw4vt1ivJBbjNOW/VLLbEbb3WxNxd3Npax3Ru2Mjc2VzmhuoS6o1edad1toy6Rrpo27TdzhmZiNdUwO/vMcWJtq+dk+RcX4uv1O/wDL2+lX20+em2mzdznJ4WwSXWprRMJc0ajGx6CeXVUngwxjp0orPm+5ebMQtzQIFUGQwmbyWzuRjyuJm6C6j0VpVrmnhY9v6zStOXFW8aWbsWa2O2tZXVs9vvwV3BHHtBFJYXfBJJGwyQE/tDVq9vMQoLN269Z/b4wsOHulJj93hLPT72dg4IjKMoJTSojiilc89ShYPjK0Rss0/wCLpnuGGPirjbXfJdZq1mxez8DrOzmaY5rmU/Tva7QQwN0MqOrVSW37d0zFrTqitz3Obx018IVdQDgAHMpfSELqIw+1lcmzvLe8a0Odbysla06ATG4OANOZeb11iYe6W6bRK0/z7zHD/pFsP7WT5FER2yvNNT3e30ozttvGvdtrO2s7uyitW20pla+N7nFxLS2hDh1V2bXZxitrEuPdb2c0RExpohi7YRwsjlvdDnHZXi/pl7pxhuRF5NnejsKmL3HB2RkQEBAKCitsvenKef8AmNVW3nu2QW59yWEXK0CAsAsMCRDIvQLzMMCaAsgssixowICAssixLAsGosyCM6iyCAsMSIaiGgsgjIvLB8KaMwL0wIyICxowIzqIwLLIgIwz+xOMOU2ltIzXooD6xLx6ItIHwuouzZY+vJHy8XTtqdV4XiFZ04rzerk3R21niY3UE7nTTDlbH2rB4R+JQ/c8kxEV5o/fX8IrzVkoRFiAvNuDEIflPaFz5wr6323/AJqf6wisvql5FINRXQgV0IOUHBWAWQQEHKahVYBBwEiGRZYEAICAsAgcSAFkFiAWQCwOSU0HHKsgg5CwOFkcrGg4WQQEBBzVYHCyFViAWQQEDjqsBxpPiCyCDlvdDnHZXi/pl7pxhuRF5NnejsKmL3HB2RkQEBAKCitsvenKef8AmNVW3nu2QW59yWEXK0CAgICAgICAgICAgICAgICAgICAgICAgICAgICAgICAgICAjCyd09jSPIZNzdLnMt439Ro130+EhTXa6eE2Sewr4TKx1MpJS28HJjI7STsZ5KyaLZp5XNJc/wDrOVZ7hk6snl4IXd26r+SMLhcgssi824MQh+U9oXPnCvrfbf8Amp/rCKy+qXkUg1CAgICAgICAgICAgICAgICAgICAgICAgICAgICAgICAgICAgICAgICAgIOW90OcdleL+mXunGG5EXk2d6OwqYvccHZGRAQEAoKK2y96cp5/5jVVt57tkFufclhFytAgICAgICAgICAgICAgICAgICAgICAgICAgICAgICAgICAgLDC7NgcecfsxaB+iS41rh45OkPa/1QFaNnj6Mcf/AFO7aulISC4mZbwSXEhoyJrnvPUaKldVp0jVvmdIa8XVw68up7t4o64lfKR1ZHF36VUL26rTPzV206zMvkvLAgLzbgxCH5T2hc+cK+t9t/5qf6wisvql5FINQgICAgICAgICAgICAgICAgICAgICAgICAgICAgICAgICAgICAgICAgICDlvdDnHZXi/pl7pxhuRF5NnejsKmL3HB2RkQEBAKCitsvenKef8AmNVW3nu2QW59yWEXK0CAgICAgICAgICAgICAgICAgICAgICAgICAgICAgICAgICDlhaJGl7dZgcC5vBUV0hInxIWJHvWETGxx4sNYwBrQJaAACgHcqZjucaaaJGN9EfB5MvvLlyeMusfHY9CbmMxdL0mtQO0O0UHEteXuPVWYiOLF951RMRCCqJhHCyyIC824MQh+U9oXPnCvrfbf+an+sIrL6peRSDUICAgICAgICAgICAgICAgICAgICAgICAgICAgICAgICAgICAgICAgICAg5b3Q5x2V4v6Ze6cYbkReTZ3o7Cpi9xwdkZEBAQCgorbL3pynn/mNVW3nu2QW59yWEXK0CAgICAgICAsAjAmoICAmoICyyICAgICAgICAgICAgICAgICAgICwwLGjIsgsggIC824MQh+U9oXPnCvrfbf+an+sIrL6peRSDUICAgICAgICAgICAgICAgICAgICAgICAgICAgICAgICAgICAgICAgICAg5b3Q5x2V4v6Ze6cYbkReTZ3o7Cpi9xwdkZEBAQCgorbL3pynn/AJjVVt57tkFufclhFytAgICAgICAgVWBy0Od3LS7vRXsL10TPwZisy+os7w8FtMeWkbvkWYpbkz0W5S7jHZFwBbZXBHKIn/Is/bvykiluUuhsr4Eg2k4pw/RP+RPt35MdFuUujoZmaHxSN75hHZWOi3Jnol89YdbQRo4V5mNHnRysAsggICAgICAgICAgICAgICAgICAgICMCMiAgLzbgxCH5T2hc+cK+t9t/wCan+sIrL6peRSDUICAgICAgICAgICAgICAgICAgICAgICAgICAgICAgICAgICAgICAgICAg5b3Q5x2V4v6Ze6cYbkReTZ3o7Cpi9xwdkZEBAQCgorbL3pynn/mNVW3nu2QW59yWEXK0CMC8zLIdArxJqPXY4rJ5N4ZYWktxXjY06vhcC3Vw3twhsrjtbhCS2G7TaK6o656K0adP0jtd3WZVdtO25J4uiuyvPGdGfs91Fk0A399JKa6WxNDBzVdrFddO2VjjLprsqxxlmbXd5stbAa1oZzw600jndghdNdjij4N1drjj4MrBs7grYfQ462YRwERNJ65FVvrgpHwht+1Xk9zLa3Z3ELG8zQP0LbFY5PekPoBRZiGXKyCDo6KN3dMa7nAKx0wxo88uLxs/lrSGSvDrRtPZC1zipPGIeZpWfgx9xsdszc+UxkArxsb0fiELxO2xz8HicFJ+DE3O7LZubWMInt3HgLJKgcwcCue3b8ctNtnSWGu905oTYZGrv1WTx9lzD+hctu1x8JabbHlLB3m7nae0q6KKO6aODongE8zX0XJft+SOHi0W2l44eLAXmKyePNL20mg6r2EDr0ouW2C9eMOe2K0fB5KjhC1PEyLESCyCyCAgIwIyICAgICAgICAgICMCAg+kFtcXc8dtaxulnldqxxtFS49RZrWbT0xxlmleqdISR+4q8vHG6ny7IJZu3fCIS8MJ4W6+uK0X0Tab/7WKtJjhDbPaZtOurr+QU/44z7sfrF0/lf4sfh5+o/IKf8AHGfdj9Yn5X+J+Hn6j8gp/wAcZ92P1iflf4n4efqPyCn/ABxn3Y/WJ+V/ifh5+o/IKf8AHGfdj9Yn5X+J+Hn6j8gp/wAcZ92P1iflf4n4efqPyCn/ABxn3Y/WJ+V/ifh5+o/IKf8AHGfdj9Yn5X+J+Hn6j8gp/wAcZ92P1iflf4n4efqPyCn/ABxn3Y/WJ+V/ifh5+o/IKf8AHGfdj9Yn5X+J+Hn6j8gp/wAcZ92P1iflf4n4efqPyCn/ABxn3Y/WJ+V/ifh5+o/IKf8AHGfdj9Yn5X+J+Hn6j8gp/wAcZ92P1iflf4n4efqPyCn/ABxn3Y/WJ+V/ifh5+o/IKf8AHGfdj9Yn5X+J+Hn6j8gp/wAcZ92P1iflf4n4efqPyCn/ABxn3Y/WJ+V/ifh5+o/IKf8AHGfdj9Yn5X+J+Hn6j8gp/wAcZ92P1iflf4n4efqPyCn/ABxn3Y/WJ+V/ifh5+o/IKf8AHGfdj9Yn5X+J+Hn6j8gp/wAcZ92P1iflf4n4efqPyCn/ABxn3Y/WJ+V/ifh5+o/IKf8AHGfdj9Yn5X+J+Hn6j8gp/wAcZ92P1iflf4n4efqPyCn/ABxn3Y/WJ+V/ifh5+o/IKf8AHGfdj9Yn5X+J+Hn6j8gp/wAcZ92P1iflf4n4efqPyCn/ABxn3Y/WJ+V/ifh5+o/IKf8AHGfdj9Yn5X+J+Hn6j8gp/wAcZ92P1iflf4n4efqPyCn/ABxn3Y/WJ+V/ifh5+o/IKf8AHGfdj9Yn5X+J+Hn6j8gp/wAcZ92P1iflf4n4efqPyCn/ABxn3Y/WJ+V/ifh5+o/IKf8AHGfdj9Yn5X+J+Hn6j8gp/wAcZ92P1iflf4n4efqPyCn/ABxn3Y/WJ+V/ifh5+o/IKf8AHGfdj9Yn5X+J+Hn6j8gp/wAcZ92P1iflf4n4efqPyCn/ABxn3Y/WJ+V/ifh5+o/IKcUIzjNBB/lj9YsT3TWNOlmvaNJ9S6GN1WNbyADrKFT0RpDsjIgICAgorbL3pynn/mNVV3nu2QW5n/0lhDoFTxLliWhlMXs3m8yQbC0e+N3BM8akdO/d+hdOPbXvwhtx4bW4QmuL3Uw1bJmLsvI0uggGqObpHaesFJYu2RHqduPZRHqSyz2O2ZsdUwY2AvZpEkjBI+vLrPqVIU2uOvCHZXBSPgzDImRtDI2hjRwNaKDrBdERo26O6yyICAgICAgICAgICAsBRB1dG17S14DmnhBFQeukxqMXc7LbO3jzJc4y2fI4ULzE0O64FVptt8duMQ1ThpPjMMFf7sNnrirrMy2TiNAY7XZ4L69lcuTt+OeHg57bOk+MeCL5Ddfmrcl1hNDdsHAPJP6xq341wX7beOHi5rbK0cEXvsNlsY7Vv7OWD95zTq6P3hUfGuG+G9eMOW+K1eMPF2Fp1axZYFgFkEZEBAQEBAQEBAQF5mWBZGUwezmT2hn6Gwj+iaR0tw7ybBXTp4z1AujBt7ZZ8G/FhtefBb+A2SxGz8bTaxB91Sj7t4BkNeGh/VHUCsWHa0x8I8Uviw1pwhnaLqbyiBRAogUQKIFECiBRAogUQKIFECiBRAogUQKIFECiBRAogUQKIFECiBRAogUQKIFECiBRAogUQKIFECiBRAogUQKIFECiBRAQEBAQEAoK1yG77J5vaPI308zbSylm1o3015HDVaO1boA4ONQuTYTfJNtdIR+Taze8zPBIMNu+wGK1ZJozfXDf+rcULa8rYx2oXbi2VKfNvx7alfmlDWNa0MaAGgUDRoAHUXZo6XaiAsggICAgICAgICAgICAgICAgICBQIOHMa8FrgHNOgg6QViYGCyOxmzWRqZrFkch/6kP0TtPH2tB1wubJtcd+MNFsFLcYRm53T2jtY2eSljP6jZI2PaOcjVJXDbtlfhLmnYxzR/I7t9pLKrrdsd6z/wBE0d4L6dlcl+3ZK8PFz22d4Ru7sL6wfqX1vLbu00EjC3g5CRpXFbFavGNHLakxxh59C1vAgLLIsMCAssiAsMCAsj243DZTMP6PG20k5rQuAowd886AtuPDe06RDZTFa3BPcRusij6ObNXZlcKF9rCNVleQvPbH4FLYu2xHjaUhj2Uf5SsC2tre1hbb20TYomCjY2ANaBzBS1axWNIjRIRERwfZemRAQEBAQEBAQEBAQEBAQEBAQEBAQEBAQEBAQEBAQEBAQEBAQEBAQEBAQEBAQEBAQEBAQEBAQEBAQEBAQEBAQEBAQEBAQEBAQEBAQEBAQEBB85oY52mOZjZGHha8Bw6xXmaxPFiY1YO+2I2ZvyXy2LI3nhfCTEf6tAue+0x2+DTbb0t8Efu91Fi8udYX0sP7LJWtkA+EapXHftlJ4S57bKvwYO63X5+Ek20tvcN4u2LHH4HCnxrlt228cJaJ2dvhLEz7E7VW9dbGySebLH9grntscsfDVonbZOTz/wDiu09K/wCkXWj9wV7K1ztMsf4y8RgyTPpl1/8AGNpfwi7/ALv/AIrH9bJ9Ms/YvycjZbaYioxF1y9x/wAUjbZZ/wAZLYMkRwl97fYvam5IDcZLHXjl1WD4yvddnln/ABeq7fJPwZux3XZqejr24htW8bRWV/xUb8a6qdtvM+MuiuytPGdEpxe7XAWJ6S7D76QGo6U0Z4DaA/Cu/F2+lePi6abSlfmldvbwWsQgt42xRN7ljAGtHwBd9axWNIdcREeEPqvTIgICAgICAgICAgICAgICAgICAgICAgICAgICAgICAgICAgICAgICAgICAgICAgICAgICAgICAgICAgICAgICAgICAgICAgICAgICAgICAgICAgICBRBxRAog5og4ogUCDmiAgICAgICAgICAgICAgICAgICAgICAgICAgICAgICAgICAgICAgICAgICAgICAgICAgICAgICAgICAgICAgICAgICAgICAgICAgICAgICAgICAgICAgICAgICAgICAgICAgICAgICAgICAgICAgICAgICAgICAgICAgICAgICAgICAgICAgICAgICAgICAgICAgICAg//Z;" vertex="1" parent="1">
                    <mxGeometry x="255" y="173.89999999999998" width="145" height="52.2" as="geometry"/>
                </mxCell>
                <mxCell id="g50Br0eVsBcSSy89ylNF-3" value="" style="shape=image;verticalLabelPosition=bottom;labelBackgroundColor=default;verticalAlign=top;aspect=fixed;imageAspect=0;image=data:image/png,iVBORw0KGgoAAAANSUhEUgAAAQMAAADCCAMAAAB6zFdcAAAA0lBMVEX////wGjwAAAD4zdLvACjuLUrtCDX+6OrwACzwETjwTmHtUGL8///52NjtCzTrACjzW2v3t7+5ubnU1NT39/eampqPj4/l5eXNzc2EhITu7u6urq5zc3N8fHz3vsIXFxftKkMQEBDg4OChoaH0m56SkpJXV1f+9fT3sbvFxcXziZE+Pj4rKytmZmaxsbF2dnYoKChHR0dqamodHR1SUlI5OTn4qazuQlfrAB/xfYZFRUXytK/wTVr3e4HuO1D1yMnza3n0k57/7u/4o6XoAA/xg4weuDc9AAALP0lEQVR4nO2deUPiSBPGQ4uCMzFo7oN4JIIbgSBBFJ313He//1d6q7o7B+c6f4wi1LM7S47urqpfd1d3OHYUhUQikUgkEolEIpH+nNS9r5P51cFLqffT+hdp2vjq4HP9OKx9kQ6IATEgBsSAGBADYkAMiAExIAbEgBgQA2JADIgBMSAGxIAYEANiQAyIATEgBlvE4PDPa+MZ3B///MP6sekMtF+Nqz9sTT3fcAa1Zr1V+/vfl5nvRqgq/lH5IT9TVzSk8sKqWqmpymtloauNZ8BzglZ/rsR59NfT8f3z8/n5+f7z8/2P46fLk70rZZYEsrl6uXv6iQUv8zvqK9b4+Xp50hBlUN+DAWi6V8RxPG1plYymaVqz2ZrWXu+qk0a9uruf1pvaASRV7bi4PD2QNaba04uE8G0Y1E9zBnvThZsiczS16ysZlqr+ozWLRrTjYoS0KuXr9y/82rdh0DrJb542lzOAKdO6l2lDfa1X6SxlAAG3rvHat2HQLBnUF26W0b6KRPk6w2kVAxhd1+rWMajV93iR2emymgFMse1joD3ggrA/W38Ng8NndesYHNwvKbGGQa3+om4bg5r2DtlA+zgDyCBbx6B+BGN7rvo6BrXa1s0F3EfszRdYy2Da+IYMTlbuD3i5O+VyvsBaBs1Tc9sYaNfKkzZ/bR0D7U7ZDgZaETbkuPvfY/Cg7m8DA+3h7Tk/XvI23PqceP5UOfm+DOoN5XjNW5DrGdQOtoPBkXJ8sHD1owxmeHxfBg1iQAxgn/NODPaVnWcwPdl5BvUndecYTLWKmi3tDiPcLQZ7/15X9HZ6xQPcLQbLtVsM5j9XE+e7xeDosqK3O/lJ5G4xOJk2q2qd36m7ty7Mr42tB2JAeyTQIe2V6ZkJRe+h0PsHxIAY5Dp8eNtfuLhjDCqfsewug/XaPgarv5MldLiQGXaOwcGPhY+ctpDB2u8f1JqnC5B2jsH0aCFh7BwDTf1r1xlo18RAa+w8g+k/irLjDOr4ttpuM6hfqzvOQNNOeYGtZdAqfsOxnMFhs3YtCywyeM0bVtevqxvOoP6SM3ifLjwkHmqt/bf3vPYSBsXvgNY+X246g/81ijiOHg6n9eIzlnp9Wv/7cs8sf6m2wGBa/qbr+T8gbCYD/AWW1qrdVe+r73unp79+3YF+ne69z9UuGfCqrfPr8l7juNZqNbWV7zdsJIPD49fXh7eXq7lPWlf9oBGVMzj8+fr07+Xp0Uw1wHf39vD0+rz8+4wbyUD7dXTUOPotvUkGzbtGY3lVuP6wfCRsJIOa1vxdFe+haK368hL1enP5MNhQBp8rYkAMiAExIAbEgBgQA2JADIgBMSAGxIAYEANiQAyIATEgBsSAGBADYkAMiMG3Z/BfXxf5UzrUNobB8fn+V2ljGKz7hsW2WiaRSCQSiUQikUgkEmm3NOhNxv1+/+am9zga9c/6/bPoE607N/3++OZxAg5MHrl14xOtlzJdBnLw0Lfg6DO9iMBe6Cg6vFiKb8OL+4nWqwLTF/Iw+HQGbXgRDBTF+noGETgw+GwGvlIyUPqfar2qnIEOfhjSCzNue7avpDw7+FboDRN+5Hm2beH/CdLFIy/E+5EXeh6vZoRw0bZEswkcQqEYC+KRLkt4qaJ0RJGIZdxwzqDDdI8X97xOwg9iUVAX1/K2eMM2ehRBex1fsavxmNYgA2sGN+J3snbm8TCsLGu327ooE8JhOwzmGXhoUDBwWeabUde4wcoB83zTuOjhsZNCabRoRjFjsQM4PJaaps4yODSdDiYXkVZv4ShxHN+JeowNnAh73Ga6aaYD9zFnoM8wMJjrOEFezysSldLDVIHXjD5jQwcENyFGvW+YpvuYsQqC6GbkK2bHypBBwgamYnoMQzP9LjRzqwhL4JPvF3/DYM6giwUzgyOY8DuPGI7FusJfEZteZK6QX+/y9gHUhDfYveXOQQdMLhgTNtoyRCXMQ+3mDJwZBgq27DB25vOz0YiJxiOI/ExUgTBE58VQxREu+eMKA0fML3DbQgQi002ET06/L6laj4x5FXCSgcnteeCFfyFdisBGkoc8YGMMyYHQRGw4d6BnZaDAFV886MY+HqQem2cQSPcUb5QzUGYZ9GcYDGGo8ZKxPc8AII47MHdEQbfCoJcDHiMjJmYJjF6cOeYgk1Tb4QKDMx4N3hWjO89NowgQSo9i4ajjjWS4esAdlvEMRCU7kpPB0xcYMDaWfZXPhd4cgyypMggdORmG+hwDEypaNpzICT0ugtFlkPx+W4TO28SRbWZwG237bXuBActw9srK5kU+DSEi2D0IR3EKTTgD9CyQDDpFU3AUYg05U5XbaJ4B2JddZGby1ZljgEmjwsAX3WYOjDkGbg+zMp7Y3ERYBANx6NJfWyk8UETHgF3Gx2Kqe4vjwIySiWDgK6VBJYg6rJy8HI3j4ZjGFpHBpCAXC0ScGnSL0VlgMMxHJgwSpaqSgeyzgkHCG03ieQZeD1crtAnuWZWtrVnu8nwbd3/y+lgMnwyHKzjc9hcZXPAYeTQDpxx40C8wb7LCN2weGKAjfcGA5SkKwWC+sCPlAstZxgKDkcyWoOSDDExO24tmGIRpKCegOWZcvTSvnM9EvOnqJYMet2AO0Bbw6ymL+YBnzx5nMPLjkgHM0GUM0LVwjoEuXAcGIfZ3jy8/MwxuSgazWsnAQfOWMoGkV2Hg6TZnACsbThauvLpRMhAulQxszgBdd2CarGAw5Iso84Oyqul6MgEWiJEBLhYsSebHwY0YB+DwxMkWGUxKBq7/QQZgaBSFswzAoI05ynZhPPlxl0MwZ5wURpaNA6Qax+4qBoHFG/HB4IVs0onjfFfBm/clA1w6xnGKO4hKPsCMCwxM6HDYDC4wGJRmLeeDDPwzGHHJAgMDGbQNhbtWfdTzK099nlEyYDxVIgNYJrtdZRWDBP2AJdcsWRpxxOR+CbsETQoGsLXnrVpiNVD4RsESDDD5MX+RQYlT8T46DhAcU5T5nGgi7rGhSAOwZ8kftoB/nhw8uQjIGH2xHuGUzlYykCcO2pVJS09wsXHyIPGqI2KOBANf7oj4iECHcGvu8k3DAgO/7JZw5q/BXsdA5+BwHJgoZBAr8AKbdeaaLBFXbWAAe2J+BBOfXwRHPQQCF9EXfEA1uwXFNQzaGLFRdC48BBj5gtsTicGQ24VYXI/z9x5kYhjqvEV7CYNy7+WX6/k6BgOX32unKUR2EaD0Cbux0kSHfwZjO2HdRNcDXO3h1mAIJ3q3e4MviW5ZSTrptt00cHC4YpMm9lfAPV7JwGyLPUAgA0s63MOJcFRs7oI8/dwKNqHgFcomx0MEgbFGRbcXzwu3Mr8OZt+smmXgY58Lx6DJ5JFZug67lItUR/VYFrtOZBidXtgxvDBwI/jXGxipa1up4ySJN4EnLjeKYsM39PQ2coGB3O+7GJbPN32V/UFsdUaYVgcdy7JFhsXo3T5L/MgW3WX0ewYsFljFDKDuhaULX1MJZehEIQcSxZD7s9hxmZ/GuGx5cZrEFmwYJnGAQ6DDsshPupV3SgLL4s+HzLOsGIZzIOvpRgxTexiAwSBso4/dtue14WZ/2LY863bQDS3jNtGHQRpklmvo7dvbxE10F0aC5SbB0E1c3U0GnSB1R/z5N4J0eKMbSi803QQWil7i8r4wXNfgclH8SPSBYdlx0VtwEvCBYfIyrhjRRr4ZSTqdhNdy8LYLC5+hiNbwv6JZV9jz9U5HryYDIzeL9k00IOtF4lXXYx36Z154qZOmHbgdZsMYR0jcDXUhewCA0vykO8hEdktjmExxAH5HFh4GcawrJBKJRCKRSCQSiUQikUgkEolEIpF+T/8HNGJ0lwELXFMAAAAASUVORK5CYII=;" vertex="1" parent="1">
                    <mxGeometry x="459" y="160" width="106.8" height="80" as="geometry"/>
                </mxCell>
                <mxCell id="g50Br0eVsBcSSy89ylNF-4" value="" style="endArrow=classic;html=1;entryX=0.5;entryY=0;entryDx=0;entryDy=0;exitX=0.5;exitY=1;exitDx=0;exitDy=0;" edge="1" parent="1" source="g50Br0eVsBcSSy89ylNF-2" target="g50Br0eVsBcSSy89ylNF-1">
                    <mxGeometry width="50" height="50" relative="1" as="geometry">
                        <mxPoint x="299" y="280" as="sourcePoint"/>
                        <mxPoint x="349" y="230" as="targetPoint"/>
                    </mxGeometry>
                </mxCell>
                <mxCell id="g50Br0eVsBcSSy89ylNF-5" value="" style="endArrow=classic;html=1;entryX=0.5;entryY=0;entryDx=0;entryDy=0;exitX=0.5;exitY=1;exitDx=0;exitDy=0;" edge="1" parent="1" source="g50Br0eVsBcSSy89ylNF-3" target="g50Br0eVsBcSSy89ylNF-1">
                    <mxGeometry width="50" height="50" relative="1" as="geometry">
                        <mxPoint x="337.5" y="236.10000000000014" as="sourcePoint"/>
                        <mxPoint x="380" y="290" as="targetPoint"/>
                    </mxGeometry>
                </mxCell>
                <mxCell id="g50Br0eVsBcSSy89ylNF-6" value="" style="sketch=0;aspect=fixed;html=1;points=[];align=center;image;fontSize=12;image=img/lib/mscae/SchedulerJobCollection.svg;" vertex="1" parent="1">
                    <mxGeometry x="185" y="280" width="50" height="43" as="geometry"/>
                </mxCell>
                <mxCell id="g50Br0eVsBcSSy89ylNF-7" value="Cron Job" style="text;html=1;strokeColor=none;fillColor=none;align=center;verticalAlign=middle;whiteSpace=wrap;rounded=0;" vertex="1" parent="1">
                    <mxGeometry x="180" y="250" width="60" height="30" as="geometry"/>
                </mxCell>
                <mxCell id="g50Br0eVsBcSSy89ylNF-9" value="" style="shape=image;verticalLabelPosition=bottom;labelBackgroundColor=default;verticalAlign=top;aspect=fixed;imageAspect=0;image=data:image/png,iVBORw0KGgoAAAANSUhEUgAAATYAAACjCAMAAAA3vsLfAAAA/1BMVEX///8+f/3///3///v//v/H2/79//4+gPs8gP3///o+f//9//3E3P78/v/3/////vp4pPGaveUyef3j7/nG2Pny+P07eOrH3fbJ2P86fPfT4/fJ2u4wdvRcj+/d5P2syOaZueu30+6Ssuw9gfYyde7p9/3+//Tr8/3N2vc8gvQudPWDpuHZ6/Xx/f9Ng+E0c+4zd+JzoOOJreF8lbz0//lFfePF0+WkyOlEddTL6v1Je8yvx/RHb9vL3u5gleV+nOAxdP1TifVRht+CrOykvNslZ85jk+p3ldV/nuuNrOlgiunb8/yhw+pkj9hmoPCw0/FxmO3j6Plaj9OFpNaiuO+uEZZLAAAasklEQVR4nO1ciWLbNrYFAQokCJGKSZE0KSaWTGq1aMl+VjuZjNzW6bhpazfVvP7/t7x7AWrxEltxM9PXDk822+ICHNwdFyGkRo0aNWrUqFGjRo0aNWrUqFGjRo0aNWrUqFGjRo0aNWrUqFGjRo0aNWrUqFGjRo0aNWrUqFGjRo3/NtA/egB/Lmi6TML+4HH8+UCpoGYtbp8JyigXxKQ1b58DoMsLPVbT9nngLdn/H08AfTVx+4NdEHk279ML0FRu8j96OH8WuMINF/4Zl6Yree1P9wHwRDwxmM6T8TGRZou5L5K2P5Vy0w1e/AQmCflqyr/OnPGkR5YBa/31aZOcQ+hAKeeuCWHXS0C5JOnf3p4ajmGdvv17Kfe1bciTFNIlEkZhwh8hviR1FJeCSUlcgpH4F4WARaZS0hbjcjCQL3mECbcvo8JJ8rFlRFFfmns+Bucl4f2StSQ8A4KXLzw5fIVJGROC8y9rb2GNGQNFYxh3mS8ZNs6Yde2xY1m2YRuzHnCx3534Nu4Jod/q9aeBeMH7PwmkTDBUJUn5v8EE8HLaedc9u/pH/yV3Q1JleqdObtmWZeWW3yUtd787Tf2nnC6PDs4uT+eTb75o5AJMcSm9cBgEb4b8ywry1wcn14soKrLMz2flS5aEmsKczizHyXPbsRz/jIi9aaNkdXmqXg6wnFd73KJeudfjwyBN41Eb0DwM9qANVW5fAjI/c2zDceAvaxbqoSGevXF7lStJZ5Jbjg3U2U5+Sy72GKJ23pTEme2MLccAWMnZ0ze51CPLOI57gTCfs1WUk1W70Ww0mk38HewhxzQcDocejGoPwXSccW6pQdtWET5//SMAu5FGFj4EXKllnJN9HQvSBoQnjo8DMOxnaKNiQMJFVmSzngA39NyzSdpuNCramsEeYkSX7fYoZHQfYf5b8W1i/y7aIP6Q4alj5CCvtuPMlszc02uZ8Gt6vZgXVkXb00pqCiF6mWMZWY/RZ2jDmYfBKk07SuD2oY27cbPRDuletA2n7YPvnN9Fmysk+Toy8sTIDT/7wduHtrWSwgjLfhxp2oxnaJOE/ZKA70l64Bqf1CSKI5AMohtvtC9tJADpRNroHqtOB4ScadrsijaISe5bArr+C+wZ17VIzjFSVmvT4i3vJANRy43JVX/g0UcMibnzt5qXYFTIVoswQb05DsBB2vSLMHRQccOdR8gBHUaOkjbJng7xqCAuh2BUCKCt+TxtHH+nwFocksdpu5dHuYKzV+gSgDZwCfAuUzB4CsNwbDtiE0Ig+AEMRMJ48FuMh+BnEPThFFvewSKaR4uD0jVbYksbw0ulBPWS0pVAEce41pRwJ2T/+BeVzNPShp4ULgciW6bpYtglN1OAmwgX5CBxbNvIjhisLWYAn+BOLztG8dSLlXHbpQ09malEA+Jr/QQGLw3RFLZDDmGL/kwF45DG4HxBdBnQwtec3KUNiACJ4FIMOAOGtm+CaULqA0k7BKctZZAHwN8Ah4ApKXhTWQZpH7hptUCQdoYoGXddDuQwkDAhmAuPgh8D1YMBsAgEbGn7Rb9IMyulEvv1IoMhbPXnGFIDbYIJOeDwlEdZg0hC3Y138fgxJaWYOoDxJ1yNHogSPG0o2iTaTQjg1Q1SBQwgtEIZFbameUsbGPSihDXUk8Ypet5GMgWsgX6Q5wkX0woYMQ+HfQ/sDTxaDJiWP0K9C7oTvrQYvBYzTV6GZenho1pmiyiL7vX7bsu8SxsuVYvRgcr5qNmSm/AeI/5uhsKGtKEU0k9mTFRzAq9hfHR4nzZFgETx2QRqIBJK2NC2MfwFt7tKsiiIDybsnudJRecD2uzCo4L22+e3l9eXx72SmPp+tdTcG6btg/eXi6spM12T8en5aTT/B2RSaOs4o9zrv+3dHJ9dfQ8SuRmi5C0m+71zyAGiKFpcv79JLwTYARoc3M6jfy4H4p60ge1kYfvg/NX77lHq0UFVFlCa87bAyBBp8+A7Lj3SukeXsoiYsUFqsFqtgmBYthvt+7QRlTnAh6G7NrfSG2nagmAVqM+GYLnxidLrB+kIo+ZRvBqua2I7SmoVnugfLwrH9yEAm0TnfbTK6rEXX12eLooicxzDuSoHpijP5wl8jaEAqHR41P3m+jSaZQbce0C0SwD15abLSPtDVICXBPXC+CQpTrul8M7nPtBUxIxsaLPAtgGhXu+b+SSDUA4uvVxyUxdFwHiUvQUMC55kJN9dnl4BTn/wHtCGyhKuOm1FAtAAnFW0Ub383B2mnXZTfzhKQxyrG047+vpGE90pmsMU7RiT4UrzqW5ojDpDbTc1bTaOGpKrrxe+rXIGSC6dbNHjppZK8T0w5iiHa516stW/jeAW20o+gopKNp196zuoP3AF0FZJKAN1ptPLSWLluCgOBsNAX56d9q4n8LVlFzHd2rbcsD5Q2TstchvSNHi84/jzGy25phn8uIB7cgwxMReBXMz2/Z8eeHzOWDjV5kx5UPzqEP4OlNeHkKTEILipWYCPD0eBx+kwVpdq3iqkfMB5mLa1tOonNRujOHApaMCWNiPP30/sHOJ8mJFj56i1X1cKJw98O1exVW4sPNZXmTumQ0Ab5XRaWAic6w5tF25L3kTGOLHHRjFfgLj6FuZRluXja9CYvhVbJQVuT37+MAGGHU0Pqm2x1E5R9PzcynPIe5G3HG7PbSu/vEcb+GA+HKGAteM0hWAXdKupJAWSK3QUYVpJ4RpAyhRpazxACkH8so1cxRWl6p/mKET7u6UNBgv5gpOB4OD8VZI56zAVQZHvo1wz4zin3Lu1YY5WRZuQFDJ5pPsubcjIDVojWIT5wbD0yvSbBJ6K84Wk34HLQdroVkkd4/XCH48dkCPURqTHsK4qRno+pm5K4LU+AM3+T/eEDRxeEMdrGWKSuyEGY0gbBALUXbUrdVP5/frrkIXLNNWEtlOFN2/erEg4UkJ22B6N3qyWKfoWlN1Usl3abFjl2eLHd++6V4WNq4lSN+8LlG1xNJ/5Sq8soO24QNawupZ8FBhMTP+RWQ9oA6/zsUC9BPZ7yndzDrw5ubo0yYokAdrIJm5Deg348eLD2e1p5lRMRkvNyFeL09OxElYY6XiBiBa392yb4IEKvsBicdHCWpv0QJ4aSBvYtgDVrXHYScEZgFNQiRfKlQrc+0ri2iVR5SYIXyT41uaosxqGqOCce6uRUtbYgyhiSxuI/9+OSnCeA+9ojsID1sZOuhDMQyQgys7xwobpWs5Pb+eKNQTQ5roQtU6714WV3KXNFeXcSZAO5wTL3hgqBdFYmUhr/MsxIpBbJXXGuVFcdacSgofyaA5ZAyxe4h9j5CblhVd6HzOQclic7KjEcCYsw20Aogw+GyJFhx3laHWRRsVtQBt8ziBjaKdBCN5QqhAhjFFLGyMX48l1ACKrwjyEuSvgDANHSlSgqbIvMADgKbe0ASFRiqE5PJN8LJAB4M5Z9KmAWyD+JcdIm5Nf/uKDGbRROuyiTc0LDDup93FiKOu3tW2ymxgqa5rFdKBNlHdpOcpsObrY4bqtLW25M76BZYPcAIbcTSCLysH438J4YOmxuN1LErjddpIjKjGDuOMMsG3HVYl7u7/Nb0wSH1bJFQTSKxBDWrlmDAwD7TiHGMZtaKuCGlhoF+nfSQjdkfImAduhDcY9d1WB0fRM9kopg5U4EFq6JiwGCMsxMDW2gZw89/1JAfGIn30UJoSFKI7LzLlLW6sEqVSWHTRdVJa96zuq3OEsPIFZwo4nBU/xGpZHQu7hCdGPEmU/HXDcFDd5QFF6iV3RhlTe1U9M98hU2atUis1Ut7RhosQxzWMVpxCrYM0DY7XHaFOBBga429XRiURzuksb2pGS4cWQEnjLSEUMIHAfgG9YfVgepA2NuV1Ev/7W68Rx7+abnso2sVa/LPy7Ssqm2dhSAcNCVh6PiiN9kWNFfUg7Xc52lNTOr8G/eBAgc9ck1wm4dOB9XEpV3Ya16WWGoi0DaXu4XwF+cqRY6O8md1vaILHB9HBTpgDaZKoqmSuk56G0PdgJZVpLU75LGyZX+gbKXO/Kzv0caYtKvdSEHCdKM5PiqAT7gyDMBP0BUw+uv5M51h3aSC8xtGS9Zh6vaigQRyi9tSZ9SB8wKtjQZtv5ay6UdsPI6SswBc7YsYq+VHICD93SRtRLdwHJEteOMuZ0u+O4o6QwCZ0u6UVVO3ZTpXWfou3euoDpVM43JXwnS9gUxTEZJD8aqI5gy2Y/m2qpkTaYGoQgUX+nbFzljJw8pO1rME+Ko9dS6hIcJ+3MxtDXTmZDoW7dCUDs5DXRnV7wB01CjrQXU8g21IWaNkvZNn6/lghZHJbWVMBFyaO0Vbfo3FnlpFJr9Rv6CG3rq6VQuqJcQ0XbRtp0cjXbKVO+SyBsw9nMOoRrbo5VbgOeo/+w8MDpQ9qOEmetpEKvvxTtQnkJw56Hg2pwSBteZhlI2xoUfQIuUpGSFq/EF0u7llJSzu/TRqtkHGINSR5zCXeh0/RAGas37DHa9FNxw0SXbuBXv3lXSR/QRjuFdnmGfwQ6u6YNYzmUtr1oiwsdyRnzsrLRTNwktqLNuSSVl3iCNlVlB9rYHrSBaQv0xIeMP00bpllsgAUqvjpEHj5NG77FbMHbeKgivedoI9NCa5iRvaPc3ZU2Y0/a6DSyNfVFKnRBscWPDbWdaicHlQHahza6D21g33W6FD5HGzgwLxyuVlVm8BRthAO7XhhgltZuHB4+S9vPM0OHD8lvEEmxHdogc9iPtosFJJ/qETdM21fKb3WgbM+DgSueo835LNr4aE0bfZo2YCGGrLXa03qSNgjeQqRM56QY6z6jpH0wQjZWPZwuyIWWNjTx1t7SZrIDvAG3na88E+JTCMynkaqGGMUBb3H5HG2GFlXCqu3qJ21bS45Uihl79HHacAsEsgbM5ivCGodx89PSBuEK5v6Hh6pSgkWmVJdWnqRtZiktdZx3a3f5mbRJ1o/GKsN3soMLE9uhvWtVXsmdq5K1PEr3oS3bkzZa0TbyHpc21UQjvenoEJN4YOFNEATLJpaFHqVNBXmrUbuJpQFIySBjIP32c0oKtGF2jwkgqQrin0mb8MhNpqrGRj45m5bSi3/NVbXSX/RxTHQvaftc2h6VtoYKd4kMdfbeTvueRPcYND5JGwTDngoE222VkqEvDZ+lbZrhFNelxJfQZgpTHk8MLByNnaRIvpsX/jiBR2bXpdmScl3t/k9JG6c8VJum7VHI1TYQEU94UhhgoIxaO+ADHUCx8CmXoN65zKoyRzSFBOgltIH/ZfLdAmYPKZlhY8sE6qc/75a4qVYlLU/TZn/Ktsn7e7FgOSvaHnMJKG1S7ZliPOwxoAEGx7Cm0UTa+CO2jZcdJLydSozusezI+kqn79Bmb3blcVOIHflj1XvljD13wLe07ROA6B0YEwZn0p9fG2NVKrIwYEuyeTfgu405T9KGmdSjtLEHtGEAohWwL9lWFLFwdKikjYNKNjWvvDrkBMlVW0sbDGJNG1/nGHx62FDSu3mFTq4eSNtuM8OPhrLehn8m3JZ8CW2ED0x+cZYBHZc/4cbV4uryGEthYCa2W1svow017hO0NaZYb96lrdrwY7zT1MK2LgY9SVvLHR2qy3f2yp+mDSsO6PMg3HRmPcgd157U+BzaJDMH5fUEBPaEq13S0oP8jmCSsjNnSZ+nje6hpBDcBXo/KuXsUdpoqAO7ldwUZJ6ircrVmummnMIfo22rpCAOPIgUaZZ9Wppei1S02fnn0CZN7yTDMlrsmXqL3zQleLA7WbjcQ9oe0kYeNJWC4lU5KSjhltItbZSuc1a6cUeP02auadOrsHnRXdqIqkmirc9CJWmgkvx7lCzLyYt3zPSYsolKSZHMeR83BnZaBxmH0HWdxCJtqnlZuq20gMVw5n1I5U2JjQO4jc7R9SuzjQPCHf5SV0CANtwRhwswEkbasExZpGzdlKVow8LRDTUHpgkRgruZk4SocKS3VQJdsaGq2CHj9fbyhjaJW/K6xaOijd6VNgiOYLzhSNXTR3rPGqmma9pIRRuk3LZjRRcooDAe82Khevwce1EqGR0MYEGOQSixz3TRV3sUmw4zzkyTsU6E5BsO0iYwBwaKugkIp5OkQngDVgEbc3A3RhXfgTbTHKx3rvLX2OmhFoQSrKhbkGRAQmtWtqiXYW0AeHsvzQvQduxvWNfWKBUemnxwjZ1Qqu4fHbHGDd06o6URd564oLpzkYqp2g58Q1QrgN6CwYFhVUkXPcGTuoKpGhB40nUAUtFmVBXXkGHNHkjpTjCxsqxZrHNwE1swjsG54uzmWD6FuW8yZk6kUEqKuVhygH0HfMBMKT6gTjvGbYkNOetaqaoHYxFL+RmwQxdupDauDesavuUmjBMMXtfJsQcAaIOJiA1tFkYlP13ghjkfLqVcV185aa0n2sQIAz6W2Fc/VLtVuAXDtNYdjkrJ9ZkFIVeNija57gEJcAtGtVupijn8cAXfuTh6SDFiXdBjeFhK05bnThSqxpoB+VjghqjtzA6IPmOAzS7ee6ANBSCalh4+Rqx7zNS/y4q27AYUD5QSA6NffdXAkEU/HvXi0RoQoutSJLbwuHzd3wYEX+IPhetiCHQA96K1zKaMVS0yy0Ltn9pWdtl91z35bjbv86pJBVVekEDtrjdVWI/Swb1g1FRb8LhP6o60q11xLAbBbW4wOtS0YUOGdhhIqsSax4pP9YZye8VxD4KXAVyBzjUl6oyZeKV0JHfyLu4SkrIbqe1Ne3butajelX/34XoxVvukdmJF859+fXX8fbiOWGXQuzm/tKrixuk33aNpi+I2wYmD4oYhWwYoMoWiiBa/3kyxigcJTCs46l46mMXBZeNXX/cCsFIi6HWv1Ijg7tfwQ+WrWFWJsq3cyHw/scbJO5gvq2gD6fVSVaRotONp6LpuGMTtQ0VbE2hjLIVp4wUpJJjEDVdx1d3xRm3HaNqasLxxjC0MJQovbim341UQrFL1XbupldQUnLzyseUDhj07/XB8/GoOugAKYs27Hu5bqFH96qOzddB46eDd8Wer6rQL4wffTnxfl23R0/nZCfZ/UtabOfkYfYuSww0MO5lMPvQpG4AN+a1I9GYW0usnkx+46ZHbwlf+ADfgc38ySxUz5SI3dKrh4AkIeOqpt97W1Gkwikxb1YTaINZtmGeso7l0ugrwU93fEcfYQwQXxVo4yzCUEPbdaVpoB2Sluj/wYW3d1RAotzzqdEC0OTnJsCcjx2EmSZZgLgSadRqT7Sbhh3Fua5HYYD6VOoCW4sbPtx/i7uoZWEzCW+5ZgsKhPlG3o6RYWFbJ82T+VpjgKH5zVIP5Gv6Zx13x6/ZVKIWZos0cdNVOBJCGo7GcyeVbV+62uDHIOmGqh4d65jDRTql3m2DqHQgg8MNGVTwDgqflSJGEHeJi2Na9+OrOdhy4LY68NdZAIe2oZrnGIXaJDoKbn2aTSZaojiC1QZpkpzeog5zoMIPfTr6dKRWbINQ//5yydQ/Vzbe+k23hQ2oBnleQVvlDBIq2lTNLCxu67dyPfnbBMnX9JMEGIo3EPwPnz5Rwq2c5mZ84Ey1tg/Iq0Vu6IOxJcdXz8GzbTpRGsaMobq5rio3R1AOq9FQbHfDuw7ihOznwB6Mhd9fy1w7BP3TalTWL08BVbnjYaW9ICyD/T/Wz2hiUDoCZfrt7dr2ICsSseH0el8LzWiapaGPLGDR+A2XZY70ZjXt2X53fwfH5kWAmCJxHvfe42WXpPi3VY5VXMgnEnQhT0t7JXXzvUZPd/Kh6HaqnnZ8H2lsOhidRkTlJVkRXx289jDDuHjyBqFqXY8E2tTurkLRYCDM/bI+ACXQT7gpN1CEYqVHggp1P8TtQ6DSE3KXEO0dpGoBHabWwqMnc4SqFCadYaQIehyOYexr0wYdg4RV7dSj3htPpcrmclhw7QV3dG6yGY+ImmWra1DGS8lPrg3zYmXm/jGNyU7iSTm8jUMjF1SJanCLgiyxT1h9t4BzMm7kxTGsTBXFxa7csxKo/2PgKzrLXPf7tXdwHzlq6VrHDG54ShFjdDFWrJPjyFjbPYH9k6ELyQ2kLYgn4cIX9MBDyCREG06m+FCIk3JRR3cLwr86w1FlZjNrwQB+H99P7XfR003HKBN0xs5vpbI8LVV9sG44fnIBQdVuXHKmOhNnUK/teheH0aIEJMLrEIsbTfQ/OT+hWld1nVSM11zkVxb7deyPc3q37/zYnHyAEw/i1egtX64I9XZD7QFDL+aYvvLr37kPp7k/XRykevA4h9j+x9RSE+DiDyN9IzgnR5ytAqUD0RfkvpbG2nd0w9qKDd08OT3c0r8PgR05nK+lQ3c6/69T2zuskXbc+/M6HAeR0bmNT5mSJKZXQ+RjqNutlei/R6f47/jOCuyw9RpvQhyq+1ESrl5jkviS+CPxDMsbgaxKw6pAAZl0ukYOfo9xY0/ZFhv0AT45/K4j/0dfuif4cs3Mnj4K1NTSV4RVmOLZVxJzcEPGiY+bP4unhV59Sut8R0P8csIgYz3IHe3yLKTF3jzEJsx9ZDgiiEaXmxR83xv+HwDMeaMEwZJssMSbdLqor30I+ZUPSdFqSL3o4/i8Ak8SFpZof/C5Zb4oqtOSJn0NaaWdd8bL/MeQvDJMEc9xphRhtUUpWlWFVkBRHqlbi/70U4guf/P/TA0LTS8vHYkWe/K83gCwKtxqxdak3x8xqbEVLQf9NjvTPDNqb5FjBNqzsdsp1VZJ5b88KLMHldtT7cnHTXwkmP8sMXY115rfdd5Bf37w/jbCdwXL8aKna82ra7sMU3m2OuzLYhOvnWVFkE1+VOm0rOuubL/ufgf7yoCa96M4L3Goa5+p0tGXleMjMml11iMf3/S99/svATNmiPx8sJqotUh1OswzfL+YnS/CfZu0NHkdlubzlb79czYuJ72fR/OpVd1nKgfmghbTGGoo2jiffCdGHrAM8KoyH6smDoxI17sLENgZMnnFjzjSZ4HeOf9V4FFgSRNEyCVbU1UE9SWmdiT4Prax8/SWj5BP/fUeNGjVq1KhRo0aNGjVq1KhRo0aNGjVq1KhRo0aNGjVq1KhRo0aNGjVq1KhRo0aNGjVq1KhRo0aNGjVq/NH4PynnbPZJqQ/cAAAAAElFTkSuQmCC;" vertex="1" parent="1">
                    <mxGeometry x="575" y="280" width="114.11" height="60" as="geometry"/>
                </mxCell>
                <mxCell id="g50Br0eVsBcSSy89ylNF-10" value="" style="shape=image;verticalLabelPosition=bottom;labelBackgroundColor=default;verticalAlign=top;aspect=fixed;imageAspect=0;image=data:image/jpeg,/9j/4AAQSkZJRgABAQAAAQABAAD/2wCEAAkGBxANDw0ODg8SDw4NEBAODg8OEBkQDQ0NFRYWGBURFRMYHSggGBomHhYVITEhJSkrLi8uFx8zODMsNygtLisBCgoKDg0OGxAQGjcdICMrLSsrLysuLS0rKy0rLi0rKy0tKystLTAtLS0tLS4rLSsrLS0tLS0rLy0rLS0tLS0tLf/AABEIAOsA1gMBEQACEQEDEQH/xAAbAAADAAMBAQAAAAAAAAAAAAAAAQIEBQcDBv/EAEkQAAIBAwADCwYKCAUFAAAAAAABAgMEEQUhMQYSEzJBUVJhcYGRBxRyk6HRFRYiM0JTdLGz0hckNVSCksHhI0Nic/E0Y6Kjsv/EABoBAQEAAwEBAAAAAAAAAAAAAAABAgQFAwb/xAA3EQEAAQICBwUIAgEEAwAAAAAAAQIDBBESFCExUWGRBRMyQXEVIjNSgaGx0ULB4TRDcvAjU/H/2gAMAwEAAhEDEQA/AO4gAAAAAAAAedxXhSjKdSShCOuUpPEUu1liJmcoSZiIzl8ppLd7Rg3G3pyrPpSfB0+7Ky/BG3Rg6p8U5NSvGUx4YzfPXe7e9qZ3koUlycHBN47Z5NinCW437WvVi7k7tjVV9PXlTjXVb+Go4Lwjg9Ys243UvKb1yd9TCqXlWXGq1JelUk/vZlo0x5MdKqfN4Sk3tee0qEqjWxtdjwDN6w0jXjxa9WPo1ZR+5mOhTPky06uP3ZdDdPfU+Ld1f43wn/2mYTYtz5M4vXI/k3Fh5Q7qm0q0KdePLq4Ko+9av/E8qsJRO7Y9qcXXG/a+30Duotr/AOTTk4VcZdGp8mp1tckl2d+DTuWKre/c27d6mvdvbs8XsAAAAAAAAAAAAAAAAAACZzUU5SeIxTbb2JLaxEZkzk5Luk07O+qt5aowb4GnyJdJrpP2bDr2bMW45uRevTcnl5NO2ezxelS2qRjv5U5xh0pQaj4tYMYqidmbKaZjbkx2zJilsCWyKlsCWwEwqWAQm4tSi3GUWnGUXiUZLY01sZJHVNwm6p3sXb12vOaccqWzh6a+ljpLlXfz45uIsaE6UbnSw97T92re+vNZsgAAAAAAAAAAAAAAAADR7tLh07C4a2zUafdOST9jZ74aM7kPDE1ZW5cnZ1nJffeT/QcODV5UipTlKSo75ZVOMXhyS6TaevmXWc/FXZz0I+roYS1GWnP0fatZ1PWnqaexo0m65ju+0JC0q06tGKjSr77MFqjCosZwuRNPZ1M6eFuzXGU74czFWoonON0vk2zZayWwJbAlhUsBMCWyD30bfyta1K4hxqM1PC+kvpR7GsrvMa6YqpmmWVNWjMVR5O+UainGM4vMZpSi+eLWUzjTGTsxOawAAAAAAAAAAAAAAAAPmfKE/wBRf+7T+82cJ8RrYv4bmDZ1HLdM8nukIVLRUMrhLdyUo8rhKTkpdmtruOZi6JivS4unhK4mjR4PqTVbTnnlO0jGUqFtFpypZqVcfRbWIx7cZfhzm/g6JiJqaGMriZil8K2brSS2BLCkwJYEtkEtgSwru+5eTdhYN7Xa0H/64nIu+Or1l1rXw6fSGzPN6AAAAAAAAAAAAAAAAPmfKH/0L/3af9TZwnxGti/huXNnUct6Wt1UoTVSlOVOcdkovD7OtdRjVTFUZSypqmmc4beruzv5R3vD4ysOUacVN9+NXceMYa3E55PacTcmMs2gnNyblJtyk2228tt7W3ys93g82wJbCkwJbAlsgTYEthUtgd23Kfs/R/2W3/Dici98Sr1l1rPw6fSG1PN6AAAAAAAAAAAAAAAAPnN3tvOrZuNOEqkuEpve04uUsa9eEbGFmIuZy18VEzbyhzd6Iuv3Wv6ifuOl3lHGOrm93Xwnol6Huv3Wv6ifuJ3lHGOp3dfCeiXoe6/dbj1E/cO8o+aOq93XwnoT0Nd/utx6ifuHeUcY6nd18J6Jehrv90uPUT9w7yjjHU7uvhPRE9EXSTbta6STbboTSSW1t4HeUcY6nd18J6MDJmxJsglsCWwqWwJbA7xuU/Z+j/stv+HE5F74lXrLrWfh0+kNqeb0AAAAAAAAAABM5qKcpNJLW23hJdbG8aa63WWNJ4dwpP8A7UXUX80U17T3pw1yfJ4VYm3HmxfjzZdKp6tmWqXGOt2y+PVl0qnq2NUuGt2y+Pdj0qnq2NUuGt2x8e7HpVPVsapcNbtl8fLHpVPVMapcNbtj4+2PSqeqY1S4a1bL4/WPSqeqY1W4a1bL4/2HSqeqY1W4a1bY+kN3djUo1oRlU306c4RzSaW+cWkWnC3ImJSrE25iYcsOi5yWwJbCpbAlsCWwO87lXjR1g+a0t/w4nHvzFNdUzxl1rG23T6QzvPYdfgcz2nY59Gz3NQ89h1+A9p2OfQ7moK8hzvwLHaVifP7Hc1PaFRS2NPsNu3douRnRObzmmY3qPRAAAAGn3Rafp2EE38urNf4dJPDf+qT5IntZszcnk8b16Lcc3M9LaYr3kt9Wm2s5jTWqlDsj/V5fWdO3apoj3Ycu5dquT70tez0YJbAlsCWwJbIqWwJbATCpYEtkEtgJsKlsCWwJbAkg7zuY/Ztj9jofhxOLi/5/V18P4KfSEHxrqAAAIzaeU8NForqoq0qZykmInZLZWlxwi18ZbevrPo8FjIv05T4o3/tp3behPJkG88gBjaRvI21GpWqcWnFyfO3yRXW3hd5lRTNVUUwxrqimmapce0lfTuas61V5nN56orkiupHZooiiNGHGrrmurSlisyYpbAlsCWwJbIpNgS2BLCpYCYEtkEthUtgS2BLYEkAB3ncx+zbH7HQ/DicXF/z+rr4fwU+kIPjXULJAiKWSKqjV3klJcm3rXKeti9Nm5FceX482NdOlGTdJ51rlPr4mJjOHO3GUfFeUq9cYULdP5yTqz9GOqKfe2/4TdwdG2amlja9kUvgGdBz0tgJsCWwJbIqWwJbAlhUsBNgS2QS2FS2BLYEtgSyAAAO9bm473R1kntVpQz6uJxMXOyufV2LEe7THo8j411CyQLJFTkgWTFW30fU31Nf6fk+4+o7Mu6eHiOGz9fZo36cq2SdB4uW7vbnhL6pHkowp0l4b9+2fsOrhacrcc3KxVWdz0fONmw10tgS2BLZFS2BLYEthSYEtgS2QS2BLYVLYCbAlsgQABk6NsZXVajbw41acYLqT2y7EsvuJVVoxMyypp0pimPN32ulSpKEdSUVTiuZYxjwPmu0LuhYqnjs6u5ZpzqhrMnyzfLJAskUskCIrP0TPXOPUn7/6Ha7Gue9XR6T+/wCmriY2RLZHfaji+nK3CXV1PpV6uPRUml7EjtWoyoiOTi3ZzrmebAbM2CWwJbIqWwJbATYVLAlgJsglsCWwqWwJbAlsBEAAJcnK9SS2t8wHWPJ3uTlaLzu5ji4qR3tOm9tCm9rfNN+xauVnPxF7S92nc6GHs6PvVb30l9X30sLZH2s+Q7RxXe3NGndH3l17NGjGcsXJznsWSKkilkgRirK0bLFVdaa9mf6HQ7Kr0cTEcYmP7/p44iM6G5Pq3PcLrT30pS6Um/F5O5GyHDmc5ebZUS2RUtgS2BLYVLYCYGdo3Ql1d67ehOpHp43tP+eWF7TzruUUeKWdFuuvww3lPyd30lluhHqlUk37Is8Zxdvm9owlzkp+Te9+st/WT/ITW6Oa6pXyL9G199Zb+sn+Qa3RzNUr5J/RrffWW/rJ/kGt0czVK+RPyaX31lt6yf5BrdHM1SvkX6M776y29ZP8g1ujmarXyH6M776y29ZP8g1ujmarXyZFr5L7lv8AxbijBc9NSqPwaiYzi6fKGUYSrzl9huf3G2mj2qiTq1o/51bDcPRWyPbt6zVu4mao2zlDZt4emmdm2Wzu7zOYw2csufsPnMb2jpR3drd5z+v26NqzltqYOTjNkskCIpZJmpECIr2s5YqU/Sx4mzgassTRPN53Y9yW+Ps3McJqx3spR6La8GdyJ2OHMZS82wJbAlsCWwJYUJNtJJttpJJZbb2JLlYHSNym4WFNRr30VOo8ONB66dP0+lLq2dpz72JmdlHVv2cNEba+j7KdxCn8lcmpRjsS5jjX8fatTl4p5OhRaqnk8HfvkivE0J7Wr8qfu9e4jiPPpdFE9q3Plhe4jiPPpdFD2rc+WDuI4jz6XRQ9q3Plg7iOI8/l0UPa1z5YO4jiXn8uiie1rnywavHEfCEuih7XufLC6vHFMr+XIkjCrta9O6IhYw9LGq1pT4zb+7wNC7iLl3x1Z/jo9aaKad0PPJ4MyyRSIERSMVLJAskV6WnzlP0l95sYPbiKPWGF3wT6PoT7ZynEtOUuDurqGze16uPR3za9mDs25zoieTjXIyrmObAbM2CWwJbATCpYH3/k00ApZv6sc4bhbJ7MrVKr98V2S6jRxV3+EfVu4W1/Ofo+3vLj6Ef4n/Q+Y7QxsxPdUT6z/X7da1b/AJSwjjNkAAAAAIilkgWSKnJAsmKkRSyRSIERSyQLJFLJFZGjlmrDqy/BM3ezKdLFUfWftLyvzlblvz7Jy3JvKBbcHf1XyVoU6q8N6/bBnUwtWduOTl4qnK5PN822bDXS2BLCpYBGLk1GOuUmklzt6kiDu9nbRtLenShxaNOMF1tLGe96zgYq/oUVXP8AvJ27VG6mGCfJTOe2XRBAAACyAjFSyRSyQLJFLJAiKRFIgRFLJipZIpZIJyRWx0LDMpS6Kx3v/g7fYdvO7VXwjLr/APGpi6vdiG4Ppmg+D8qVlmNtcJcVyoz/AIvlR+6XibuDq30tLGU7Iqc8bN9oJbCpYCbAytDLN1Zp7Hc0E+zhImFfhn0llR4o9Ydyv+J3o+W7Tn/wT6w71nxNafOtwAACyQIilkilkgWSKnJFIgRioIpZIJyRSyRSyQLJFIit9oqlvKSfLP5T79nswfX9k2O6w0TO+rb13fZzMTXpV+mxmHTa7A05o1XltWt5auEj8mT+jUWuMu5pGduvQqiphco06ZpcRuKUqc505xcZwk4Ti9sZJ4aOxExMZw48xMTlLyZRLAlsgzNCP9bsvtNv+JExueCfSWdHij1j8u43/E70fLdp/A+sO9Z8TXHzrbACIpZIJyYqWSKWSBEUskzUiBEUskUskCyYqWSKRAiK9bShwk4x5HrfVHlNnCYecRei319PNhdr0KZl9KkfcxGUZQ44KAD43dxuSd3m5tkvOEsVIbFXitmH0ls612G3h7+h7tW5q4ixp+9Tv/LmFWEoSlCcXGcXiUZLeyi+Zp7DoROe2HOmMtkvNsCWwMvQb/W7L7Vb/iRMbngn0lnR4o9Y/Lud/wATvR8t2n8D6w71nxNbk+cbZEUskUskCyRSyRSIERSMVLJAskUskVOSBZIpEUiCoRcmkllvYltMqKKq6oppjOZSZiIzlvtHWfBR18eW3q6j6/s3A6tRnV4p3/pzL97vJ2bmWdJ4AAAANfpTQlteL9YoxqNLCnxaiXMprD9pnRcqo8MsK7dNfih8/V8nNlJ5Uq8FzRqJpfzRbPeMXW8ZwlCP0bWX1tx/PD8g1uvhCapRxl62vk8s6VSlVjUruVKpCrFOcN65QkpLPyNmok4quYyWMLRE5vpdIcTvRxe1PgfWG/Y8TWZPnG4WSKnJAskzUjFTgsuK52kZW6YqrppnzmISZyiZbP4Nhzy8V7j6H2PY4z1j9NPWax8GQ55eK9w9jWOM9Y/RrNZfBkOeXivcT2NY4z1j9LrVY+C4c8vFe4exbHGesfo1qvhA+C6fPLxXuHsWxxnrH6Nar4QXwVT55eK9xPYljjPWP0a1XwgfBNPnl4r3D2Jh+M9Y/S63Xwgvgmnzz8V7iew8PxnrH6Nbr4QPginzz8V7h7Dw/Gesfo1uvhBrRNPnk+1/2LHYmGjfMz9f8E4utlULeFPiRS6+V950LGFs2Iyt05fnq8K7lVfil6mwwAAAAAAAAAABi6R4nejndqfA+sPax42ryfNN0skUskCIpZJmpJ41rahFUxOcGT186qdOXibGvYj55Yd1RwLzup05eJNexHzyvdUcC87qdOXiTXsR88r3NHAvPKnTl4k1/E/PJ3NHAvPKnTl4k1/E/PK9zRwLzyp05eJNfxP/ALJO5o4N9aSbp029bcYtvneD6/CVTVYoqqnOZpj8OZdiIrmI4vU2GAAAAAAAAAAAAAAAADF0j833o5vav+n+sPax42qyfNN5OSKRAjFQRSyQTkilkiiKbeEst7EtbYppmqdGmM5JyjbL2lY1Us7x92G/DabdXZ2KiM5on7fiJzecX7eeWbGZoy9iIPpbL5ql6EfuPucD/prf/GPw5F34lXrL2Np5gAAAAAAAAAAAAAAAMXSXzfejm9q/6f6w98P42oPmG8WSZqRAiKWSKWSBZMVLJFbjQ9FKG/8ApTzr5op4x7D6jsbD002e986s+kTk5+KrmatHg2B2Wq1GmqCTjNat9ql1vkZ8125h6aZpu0+eyf6b+ErmYmmWrOC3H0tn83T9CP3H3OCjLDW/+MfhyLvjq9ZextPMAAAAAAAAAAAAAAAB5XNPfwlHla1dvIa+Ks99Zqo47vXyZ26tGqJaJnxs7NkumRipZIFkilkipyQLJFIitvoe5W94NvDTbj1p6z6TsXF0zR3FU5TG7nE7Whirc56cNmd5ptLpi5U2oReVHLb5N9zHy3bOLpu1RbonOKd/r/h0cLbmmNKfNg0abnKMVtk8f3OTZtVXa4t075nJsVVRTEzL6eMcJJbEsI+9ppimIpjyceZznMzJAAAAAAAAAAAAAAAAABr7+y32Zw2/Sjz9aOJ2j2dNczdtRt844845/n137Vi9l7tTVs+dnY3U5IpZIpZIpZMQiKQAB6OvNrDnJrmcng9pxN6qNGa5mPWWMW6YnPJEIuTSSy3sS2nnRRVXVFNMZzKzMRGct5o6x4Jb6Wub8IrmPrOzeztXjTr8U/bl+3Ov39PZG5nHVawAAAAAAAAAAAAAAAAAAADHuLSFTasPpLU/7mnicBZxG2qMp4xv/wA/V6271VG5rq2i5ritSXgzh3uxr1O23OlHSf1923TiqZ37GHUozjxotdq1eJzLuHu2/HTMfT+2xTXTVul5ZPDNmCBAAHtTtak+LBvrxheLNm1g793wUT+PvLCq7RTvlm0NESfHkkuaOt+J1LHYdc7btWXKNs/96tavFxHhjNsre2hTXyVjne1vvO7h8JZw8ZW4y5+fVqV3aq98vY2XmAAAAAAAAAAAAAAAAAAAAAAAAAPOdCEtsIvtimeNeGs1+KiJ9YhnFyqN0vN2NLoI8J7Ows/7cMu/ucQrKkv8uPesljs/Cx/tx0O+ucXrClGPFil2LBsUWbdHhpiPSGE1VTvlZ6MQAAAAAAAAAAAAAAAAAAAAAAAAAAAAAAAAAAAAAAAAAAAAAAAAAAAAAAAAAAABkBb4Cd+AuEAOEAXCAHCAPhADhAHvwK3wDyAAAAAAAAAAAAAAAAAAACYEMCGBLATAQCAMgMBpgNMC0BSAtAMAAAAAAAAD/9k=;" vertex="1" parent="1">
                    <mxGeometry x="487.36" y="285" width="50.09" height="55" as="geometry"/>
                </mxCell>
                <mxCell id="g50Br0eVsBcSSy89ylNF-14" style="edgeStyle=none;html=1;exitX=1;exitY=0.5;exitDx=0;exitDy=0;entryX=0;entryY=0.5;entryDx=0;entryDy=0;" edge="1" parent="1" source="g50Br0eVsBcSSy89ylNF-11" target="g50Br0eVsBcSSy89ylNF-12">
                    <mxGeometry relative="1" as="geometry"/>
                </mxCell>
                <mxCell id="g50Br0eVsBcSSy89ylNF-11" value="OpenAI&lt;br&gt;Embeddings" style="rounded=1;whiteSpace=wrap;html=1;" vertex="1" parent="1">
                    <mxGeometry x="310" y="440" width="120" height="60" as="geometry"/>
                </mxCell>
                <mxCell id="g50Br0eVsBcSSy89ylNF-12" value="" style="shape=image;verticalLabelPosition=bottom;labelBackgroundColor=default;verticalAlign=top;aspect=fixed;imageAspect=0;image=data:image/jpeg,/9j/4AAQSkZJRgABAQAAAQABAAD/2wCEAAkGBxEQEBIQEBAVFRIWDQ8PDg8PDhAWFRANFREWFhURFRMgHSggJBolHhUVIT0hJSkrLi4uFx8zODMsNygxLi0BCgoKDg0NDg0PEC0ZFRkrKysrKysrKysrKy0rKzcrKysrKystKysrKysrKysrKysrKysrKysrKysrKysrKysrK//AABEIAMgAyAMBIgACEQEDEQH/xAAcAAEAAwEBAQEBAAAAAAAAAAAABQcIBgQDAQL/xABIEAABAwIBBQkJDwQDAQAAAAABAAIDBBEFBgcSITETMkFRYXGBkaEzNXJ0krGys8EXIiNCQ0RSVGJzlKLR0vAUgpPCU1WDFf/EABUBAQEAAAAAAAAAAAAAAAAAAAAB/8QAFxEBAQEBAAAAAAAAAAAAAAAAABEBIf/aAAwDAQACEQMRAD8AuxERAREQEREBERAREQEREBERAREQEREBERAREQEREBERAREQEREBEXzqahkbHPkeGMa3Sc97g1rRxknYg+iKq8p88cMRLKCLdnbN3ku2Icw3zuwKtcay6xKrvutU8MPyUB3Jmj9GzdZ6SUGjsRxylpr7vUxR8kkzGnqvdc3W50sJi2VJkPFDBK4ddgFnJx13O3jO09K9tFhFTP3Gmmk5Y4JXDrARYumoz00I3kFS/lLIm+dy8L898PxaGQ89REPMCq9ps3+KybKCUfeaDPSIXvZmqxc/NmDwqmH2Eocdf7t7P+vd+Kb+1fRme+H41DIOaoiPnAXH+5Ni3/FF+KYv4fmqxcfNmHwamH2kIcWDT56aE7+CpZyhkTvM5S9FnSwmXbUmM8U0Ere2xCpipzf4rHtoJT93oP8ARJUNW4RUwd2ppo+WSCVo6yEI1Jh2OUtRbcKmKTkjmY49V7qQWPmnXcbeMHWOldHguXWJUlhFVPLB8nOd1Zb6Nnax0EIjTyKq8mM8cMpEdfFuLtm7x3dEecb5vaFaFNUMkY18b2vY5uk17HBzXDjBG1B9EREBERAREQEREBERAc4AXOy1yTsAWb842W0mJTuZG4ikY8iGMGwlt8s/jJ4BwDlV85YPLcOrXA2IoakgjgO5FZUtq6NSLiYydybq8QkLKaIvsRpyE2ZH4TzqHNt5FauAZmIGWdWzuldtMcHvGD7Onvj2Lrs3VTRvoIBRaIY2NokjG/ZPb3+6faJub8PBqXToiFwvJKgpe4UcTT9Mxhz/AC3XKmh/AERAsiIgIiIFkP8AAURBC4pklQVXd6OJx+mIw1/ltsVwmPZmIH3dRTuidtEc/wAIw/Z098O1WqiDKuUeTdXh8mhUxFlydCQG7JPBfsPNt5FNZuctpMNnax7iaR7wJoybiK/yzOIjhHCOVXTnFqaNlBOK3RLHRuEcfx3z295uf2gbG/Bw6lmTg6NaK2C1wIuNlrgg6iF+qIyPeXYdROJuTQ0xJPD8EFLogiIgIiICIiAiIghstO9td4hU+rKyutUZad7a7xCp9WVlZ2w+CUXHuwjF6ikk3ammdG/Zdh1OHE9uxw5CrOwDPQ9oDa2n0+AzU50Xc5jdq6iOZTeLZqKOriZLATTSmKNx0BpROfoDWY+DoI5lXuNZr8TpiS2ETs+nTP0j/jNnedBcWF5x8LqLWq2xuPxKgGIjpOrtXS0tXHKLxSMeOON7XDsKyTV0skLtGWN8buFsjHNPUQvnE8tN2EtPGwuaesIRsBft1lKmymro+51tQ3kFTLbtK90eXuKN2YhN0uY7zhCNPXX7dZl90TFvr0nkw/tXyky9xR23EJuhzG+YIRp5fGpq44heSRjBtvI9rR2lZZqcpq6TulbUO5DUy27CouV5cbvJdyvcXHrKEaUxXOPhdPcGrbI4fEpwZSekau1cJj+eh5u2hp9HgEtQbuHKI26uslVVSUskztGKN8juBsbHOPULrr8FzX4nUkF0IgZ9Opfon/GLu8yDmMXxeoq5DNUzOkfsu86mjiYNjRyBeJXthOaijpY3yzk1Moikc3TboxMfoHWI+HpJ5lRDdg8EINU5F97aHxCm9WFMqGyL720PiFN6sKZRBERAREQEREBERBDZad7a7xCp9WVlZ2w+CfRWqctO9td4hU+rKyui41xhvcYvuYvQC9KpnIHOq2KNlLiF9FrQyOraNKzBqAlYNeofGF+UcKt3D8QhqGCSCVkjDsfG8OHZsRH1qKdkjdGRjXt4pGBw6ioGtyEwuY3fQw34TGzQP5SF0SIOEqM0mFP2RSs+7qX+268UmZjDjslqR/6xHzxqyEQVn7itD9YqfKh/YvpHmYw4bZqk/wDrEPNGrIRBwtPmlwpm2KV/3lTL7LKYoshMLhN2UMN+AyM0z+YldEiD509OyMaMbGsbxRsa0dQX0RebEMQhp2GSeVkbBtfI8NHbtQMS7jL9zL6BWRm7B4IVuZfZ1WyxvpcPvouaWSVbho3YdRETDr1j4xtyDhVSIuNUZF97aHxCm9WFMqGyL720PiFN6sKZRBERAREQEREBERBDZad7a7xCp9WVlYnzLVOWne2u8QqfVlZWdsPglFxM47kxV0QDqiBwjc0OZO0aUbmkXHvxsPIbFR9BXTQO04JXxv8ApxPc09m1auoIw6njDgCDBGHAi4I0BtC5nGs2eGVV3f0+5PJuX0ztz1+BvexCqowvOtikNg+Rk4Gq08Q0vLbYrp6HPdq+Hoecw1HscPav4xLMk7bTVoPE2oht+dp9i5urzTYrHvY4pRxxTs1/2ushxYNPnmw47+KoYeG8THDscvdHnZwk/LSDkNNL7AqYqMhcUZvsPn52Ma70SV4pcm65u+oqkc9LN+iIvn3VMI+su/DVH7V8pM7OEj5aQ8gppfaFQ3/w6v6pP+Gm/RfWLJuudvaKpPNSzfohFzVGebDhvIqh54LRMaO1yha7Pdq+AoeYzVHsaPauAp8hcUfvcPn53sa30iFMUmabFZN9HFEOOWdmr+1t0XhimdbE5rhkjIAdVoIhpeW65XHV9fLUO3SeV8j/AKcr3OPbsVq4bmSdtqa0DjbTw3/O4+xdngubPDKWztw3V4Nw+pdumvwN72IKHwLJirrQXQQOMYaXPncNGNoAuffnaeQXKhgfMtb17A2nkDQABBIGgCwA0DsCyQ3YPBCDVORfe2h8QpvVhTKhsi+9tD4hTerCmUQREQEREBERAREQQ2Wne2u8QqfVlZWI1dFlqnLTvbXeIVPqysrouNVZKYvDV0kUsLw5u5MY4X98yQNALHDgIKl1k/A8dqaKTdaWV0btjgNbZBxOYdThzq08Az0NsG11MQdhmpjpA8pjdrHQShFuoucwvLvDam251sQd9CV25P8AJfZdDHIHC7SHDgLTcHpCI/qy/f5tX4iBf+XX7/Nq/EQLIi/mSQNF3ENHCXGwHSUH9IucxTLvDaa+6VkRd9CI7q/yWXXC4/nobYtoaYk8E1SdEDlEbTc9JCCxcq8XhpKSWWd4a3cnsaL++fIQQGNHCSVlUDV0KSxzHamuk3WqldI7Y0bGxjiYwagFHIrVGRfe2h8QpvVhTKhsi+9tD4hTerCmUQREQEREBERAREQQ2Wne2u8QqfVlZWdsPglapy07213iFT6srKzth8E+ii4u/GM0dNUxMlpJDTyOijc5hBfC4lg4Nreg25FXuNZucTpbk0xlYPlKY7oNHwR74dS0ZhvcIvuYvQC9KJWP5mFh0XgtN7Fr2uaR0FfWmqpIjeOR7OWOR7fMVrKsw6GcWnhjkHFLGx3nC5yszb4TLe9ExpPDC6WP0TZFqiKfLPEo95X1HMZnOH5rr3RZysXb89cfCihd/qrTnzOYa7euqGcQbUAj8zSvA/MnScFXOOiE+xDjgPdRxf62Pw1P+1fKXOVi7vnrh4MULf8AVWB7iVP9dm/xQr6MzJ0nDVznohHsQ4q2oyzxKTf19RzCZzR+Wyh6mqklN5JHv5ZJHu85V8wZnMNbvnVD+MOqAB+VoUtR5t8JitaiY4jhmdLJ6RsgzXCwvOixpcb2DWN0iegLqsFzc4nVWLaYxMPylSdzGj4J98epaNosOhgFoYY4xxRRsb5gvShVWYRmjpqaJ8tXIaiRsUjmxgaETSGE7NrtfGbcipBuzoWucT7hL9zL6BWRm7B4IQxqnIvvbQ+IU3qwplQ2Rfe2h8QpvVhTKIIiICIiAiIgIiIIbLTvbXeIVPqysr/otUZad7a7xCp9WVla/mRcXJkBnUjEbKbEDoFrQxlWA4texupu6gawftbDw2Vs0tVHKwPie17CLtfG4Fp6Qsq41gFVRkf1MLmBzQ5klrxvBFxZ41Hm2r5YXi1RSu06aeSI7SY3uaDzjYekINaIs/4XnfxGLVKIpxxyM0H+W3V2Lp6HPbCe7UUjeMwzMeOo6JRItlFwFPnewt2+MzOR9M4+iSvfHnPwg/PLcjoKgf6oOwRcp7pOEfXmeRN+1fKTOfhA+eX5GwVB/wBUHYIuAqM72Ft3pmfyMpnD0iFC12e2EaoaKR3EZpWMHUNIoLZXyqqqOJhkle1jALufI4NaOkqhMUzv4jLqiEUA442ab/Ldq7FxeKYtUVTtOpnklPAZHucBzDYOgILWy/zqRmN9Nh50i9pY+rtZrWnU4RA6yftbBwXVOfopLBcAqqwn+mhc8NaXPktaNgAudN51Dm2qMv5kVqnIvvbQ+IU3qwplQ2Rfe2h8QpvVhTKIIiICIiAiIgIiIIbLTvbXeIVPqysrO2HwStV5YMLsOrWgXJoakADhO5FZUOz+3V5KLjWtJAySnjZIxr2GCMOY9oc13vBtB1LksZzU4bUXcyN1O8670z7N0vuzcdVl0uTGJRVVJDNC8OYYo23G1rwwAsI4CDwKVRFJYlmVqG3NPVxvHAJmPjd1i4XOVmbDFo/moeOOGaJ3YSD2LSCIVleoySxGPf0FSBx/073DrAK8L8LqG76nmHPTyj2LWyfzai1kX+jl/wCKT/E/9F9GYXUO3tPMeanlPsWtv5tT+bUKyvT5JYjJvKCpI4/6d7R1kBTFHmvxaT5qGDjmmib2Ak9i0giFUlhuZWodY1NXGwcIhY+R3WbBdnguanDaeznxuqHjhqX3bpfdiw67rukRHiqoGR08jWNaxggkDWMaGtb7w7ANSyU3YPBC1blPiUVLSTTTPDWCKRtztc8sIDAOEk8CykNQ/t19SLjVORfe2h8QpvVhTKiMj2FuHUTSLEUNMCDwfBBS6IIiICIiAiIgIiIDmgix2WsQdhCzfnGyJkw2dz42k0j3kwyAXEV/kX8RHAeEcq0gvnU07JGOZIxr2ObouY9oc1w4iDtQZZycylqsPkL6WUsuffxkXZJ4bDqPPqPKrVwHPPA+za2B0Tthkg+EYftaG+Hav3KfM5DKS+gl3B23cJbui6Dvm9oVa41kLiVJcy0rywfKwDdWaPHdusdICK0JheVtBVdwrInHgYZA1/kOsVND+ELHzhrsdvEdo6F7aLF6mDuNTNHyRzytHUChGtLosyU2cDFY9lfKfvNB/pAr3szq4uPnLD4VND7AESNGIs7e6zi3/LF+FYv4fnVxc/OWDwaaH2goRoy6H+ErMlTnAxWTbXyj7vQZ6IChq3F6mfu1TNJySTyuHUSixprFMraCl7vWRNP0BIHP8htyuEx7PPAy7aKB0rtgkn+DYPtaG+PYqTaNdht4gNZ6F0eC5C4lV2MVK9rD8rONyZo8d3az0AoPHlHlJVYhIH1MpfY+8jAsyPwGDUOfbyqazc5EyYlO18jSKRjwZpCLCW3yLOMnhPAOVd5kxmchiIfXy7s7buEV2xDnO+d2BWhTU7I2NZGxrGNbotYxoa1o4gBsRH9taALDZawAGoBfqIgIiICIiAiIgIiICIiAiIgj8SwKlqQd3popOWSFjj12uubrM1uEy7KYxnjhnlaOq5C7REFaVGZahO8nqWchfE7ztXhfmRi+LXyjnp4j5iFbKIKi9xBn/YO/Ct/cvozMjF8avlPNTxDzkq2UQqtKfMtQjfz1L+QPib5mqXos1uEx7aYyHjmnld2XAXaIgj8NwOlpgNwpoozxxwsaeu11IIiAiIgIiICIiAiIgIiICIiAiIgIiICIiAiIgIiICIiAiIgIiICIiAiIgIiIP//Z;" vertex="1" parent="1">
                    <mxGeometry x="585" y="422.94" width="94.11" height="94.11" as="geometry"/>
                </mxCell>
                <mxCell id="g50Br0eVsBcSSy89ylNF-15" value="[-0.32, 2.1, 5.6, ... , 0.08]" style="text;html=1;strokeColor=none;fillColor=none;align=center;verticalAlign=middle;whiteSpace=wrap;rounded=0;" vertex="1" parent="1">
                    <mxGeometry x="435" y="480" width="140" height="30" as="geometry"/>
                </mxCell>
                <mxCell id="g50Br0eVsBcSSy89ylNF-16" value="Todaym Tata Motors&amp;nbsp;&lt;br&gt;respots Q3..." style="text;html=1;strokeColor=none;fillColor=none;align=center;verticalAlign=middle;whiteSpace=wrap;rounded=0;" vertex="1" parent="1">
                    <mxGeometry x="375" y="370" width="120" height="30" as="geometry"/>
                </mxCell>
                <mxCell id="g50Br0eVsBcSSy89ylNF-17" value="Vector Database" style="text;html=1;strokeColor=none;fillColor=none;align=center;verticalAlign=middle;whiteSpace=wrap;rounded=0;" vertex="1" parent="1">
                    <mxGeometry x="580" y="393" width="115" height="30" as="geometry"/>
                </mxCell>
                <mxCell id="g50Br0eVsBcSSy89ylNF-18" value="" style="shape=image;verticalLabelPosition=bottom;labelBackgroundColor=default;verticalAlign=top;aspect=fixed;imageAspect=0;image=data:image/png,iVBORw0KGgoAAAANSUhEUgAAAa4AAAB1CAMAAAAhpfXwAAAAkFBMVEX///8AAAAgHR78/PyhoaHExMTMzMzX19fQ0NAmJiaGhoYeGxzu7u4PDw/x8fFsbGxnZ2dNTU1ZWVlfX1+0tLT29vbd3d2UlJQ3NzcaFhfk5OTh4eEUDxFAQEDBwcGvr6+QkJBFRUV7e3umpqadnZ0NBwkqJyg2MzQhISGHh4d0dHQuLi5/fX4YExU3NDUpJSf6M3FFAAARLUlEQVR4nO1dC5uCKhNO6eKma3mrNDXN7GLZ/v9/94kCooDVnj3tfs/hfZ5zySYiXmaYGQZ2NJKQkJCQkJCQkJCQkJCQkJCQkJCQkJCQkJCQkJCQkPhhbA/r6W/3QeJJgHGa5yfJ1/8FvDhVdFX1T9pv90TiMWaF6qsQoeX9dl8kHsCYX0sVIS/Ab3dHYgjeLoJ2ECNcS77+MDTHh3ZQ9xFdur777S5JCLG655Ak/8tpuKr+ySe/3SkJIZKKLl1J41ipSHNU6B5awW93SkIE7+6XUbVejSvalHgHfQ7flu7hX4RnVm7F7uu2rf5/EVZuxhTMQ+ge7s3f7ppEA3Pixm6WZevkkhSOUXG2qnXJ9lU92o6ADWmLtr/dTYka2lGpkFcIw7BUiFexjfRq6aqUyrBKfyGV649gkasUFBc/n1wrpdrDkGviXyRbfwTgREXElUdI6NpVcZd/qCNk4/e6J9FFcEV0hdAmqmqM31hXL74IeSCe/U7/JDqIkVod3elqu90G2GMHyZdaXkk6PtDvN+1hMgrwMCD+j3v/n0OGcrkhm8ndTsbIDILRLddDxcq2QyMMDD5MwYeqd37gB/y3cIGeBrSH5XxAykxhBtEv02RAxTTL5mI5z6YGo0vB2radZPUzv+K/Ag8Gw9cI8pUnYjFXbZRQL1U7CwSMTRQxTkWPZ+1aP/+cSov4AoJKbXR7GkHlCTPh0Bluccobn8TP72N+SmqIroqYBb0vbXygx1fpwryA2VFXywWYhpCvYywW9GaXa6ijHRWXKzJMl6J8UBsxa/L0Ij2O5zGp3PUwqRzEL7hTogwWZnjuvXFLyoTr7z2iC1KDABbk2caTdD0NmHbPq1kPdhVv+YbKDBpMcGys78gerr9Jl3JAopKu72FZeRpKXZx2KcNly1BQ6GrSGUdzfApxAmTYGH5EBJuPc5cv9ElQkCeppOt5qLnvq/XmI7gVJAwyx/dc18N1K+ftLIVUAwiK2TBdB8/E2GqamxV+S9cVzYgxebKWa9fzcC9OZDXjZWK2QGz7tR7l2PUAE7sp3airOPyUHy1husa95942+STsJA075hXbQhl5vQaATWDDGpgtc6RH+rWp4QWB1dRv6HZ2rDyNxbAj36erwsrCdH2gSbFtnkSSrecxc5lkg5HcQ5Kg9y1EZRZCvzHKjCmMzwT5DzFdYDTb9FavkTFepsuDLAJ5HpO70nMazF0U0hsqITKUIzvMo0PFXVJWrglHfermxNo1Gu1aa0ggF60XANyj7286Rxa2dtgsUYSv/NKM6US9BHB8l5AuQTQ9SJeJXcQlcWjAaChdL9FFBjO75YkOr4I60VTmzrpZquC/msEHdS4ejGB2MRdsVw7RBUYOdtxFKUeJAXhJXVgdLjpjPw5VPbfjKgir3kscH65YtC4ZXzAHJbBiw3TN0bvR4CaMBBfevF6ilHnXyTNtRV0bIwCroL5mU6hs/p1Kwk4UX/fTb9GVSbq+DcNp3L+k/0a8h3ko7w6DYaOu11BzyyADrDnWSeQYPqDrIOn6LjRYO1jpD7tj0jxYnWEwXL1Yl2q5cWkNDLRYFCoN03Xr0dUrDei8pF2QoeIB+r3BSfCMZEeEJ9Pt8U93UYzVtXb9voQHWWNYCbqArluhbJ4+Pvmcq2EhVwP0BToPt+4aYjcb/omBO27ktAdV4UBrGjy4cJuU36g32dUy2eRxUQKAe4CH5qsfdDHOmi5Ov1m4HqTN1vDRWiSxtuX4eWuYp6+z5+aFCWQN0YbioCMf4DwUSonszpsK1wjrsw5fbvTmxTgiSatrIpouhja/EjFFd1xhobERLz5aybOz40iuMrvNlH2m4xVDwiyqu7ip6QmylEh/FKJJZWpJRHXRythWH2N6xLnaslS/0uWesW63SrvQKSGmfdfeCNodpIvkdNdNq3gpQ18wwy+rST6mxraCuuZNS+Ban0oXmwNXK8y1pfQlL705uqWZRxz0pgnQUOQ4qXo8TjvC+p6rOe6y38Xr/PWazcBqw2BYL8NsSnqOkoc5Nz9UrXo+2bXqYYiuKaGgjgsApu+ToSvojgSExWrDKmKkKvgTdjF2zzzJM71sm2ueiLLvjoDW/ITPychYsu2xC/rKYaQq6LuXFWyco038Jt/00ScGTLPEcTjzADoM4uNeA3RNSMpw4zUNiegKGFWokPb6AsYcoRqH3mCYe5HknrSp8b6y7mtnccd0TU0eD5v+EsGfJhVur/Ll3evKjOiohmHp+xZPxjS4ra42sBabv0eF6cp6z8Fq3+54HUZNekRAF+BOSSpzVaPgCtVIOoIBv7kaNtLZ+EMootMzD9Ol8b/93LWHwglV8fWqzxFDtTppQaVFhX1cvOJhjmGm48hd1TFdyXaFMY3jLEmprlrN3rGQLr5ZQisegkdpjLVP1uvkRrkJtKXmGFYKzogO3/mgtBXRdS76CxLCshUFo6R9HhWwi3O7nRXF88Ndw4TVhb4D2/eC2ZNHt5oQwoTqlXMjZUzXeUNw/uz9thj/HgFdevOfdJ+46/2m/ZxPqVdL6WKCogJDuxHJ1oIBeo3ZFImbJcvWpUhr8zWlRHx7vo4PF4c2YzsylxFdyidmYe0e9mkreaZcAJc8tSYozjRWl8+20degwfQu+tSzaXHTQz0RhWxPlNbgfgrpgtBJba9mk4etesVkJDqdmGHZK7E1La/nOW4STBeNZW6SpTNC36cTt9vpRcsY+RKNMpr6HnMza03jnozkFH98EwNCNxgFuKDo49Xiyn1ObT72AWa8QMK5ZbEWNNU4Ps9zfUwXWdWG6IomdQKh/scjRoUssCbWucpX6GQWTKxL2BzOVPzhpdY0WU9NEEOvsvkBHlnb4MBSMtMUv0G2LGi6Jq0syFpJ1B/Sqr3qdhFgM357cetoe9TJ5gjzXnE/LZmnplLqX3drcdmfoXpx7m54RNe1/cwAXdeuS8xMSKwyFvODcWVwhAaYmEK7X57vKOhqF7Jpuuk7u62TkqAnLV3nSWe1x3sN5OQpbpUNQAxkAj5erXmoXQZepYSRhbmuK/v+aMACUlX3S7SByXEnh+mKEkqXB+jqBYEmfo72vYNTlxMaeJgak7vCn3QYS2CgJdTEDKQG42552L3HZeEtXb0teANLIofZwzEhZ3TxGL1auxxEvp5z9oUnNtr97y+Ha/riIfpULNMVHuysM33FdDHnlrAPgQzprvuy+5tS1EbNDzY8n+KFgigXb7LP8AKEircIXYxeY4UvGkG8uN5YSsAImfL01eBrpxzZjMhqEaLzXnre4yO5qmFZEspK1lxiuiKni+LAJBuEdJ0ZHwY7WchwI9dgw02ZI7OkQ38xwHM8EQ4BiXcv3LfxovTRDBOhi5mo2LtsIiK8QJ25yQRM7av3DnoJs/wY42NO+PB7i4ipxbvb8qh/oaKbBdOiKEzmQEhXf5lpfbeGLg/JzXknNYm2QM6JAymOU2Yoev/kiwQbqrmWrg9mkuM6lIYubBsLj9dF/ENfvmcL9HQVxKlP27uSzTUBzzDmSPlYV34wxdv/bgFdbEC3jehWMQn8yYmn+ZoKf5fiHAJujFmnEQrSHASmy2G9uitNF04F84chwD/0VWtomF5n33HZVFX7OF+vhuwaDUBcHz33owHP8J/Qxa6I2JlqWsWO/SKZs0jw+FbjRg5NDOh68UAE02l31i4mAwdGKU0Xtt7Ohe1h9ejxLOLCWyz2e2p0mjy9rywOpHZNSZhPjb/qg5Ypb/n+CbrYdvEC07Q6kC2kYFV2AJkkf+DMGhplX3ShnIGai+r4GdPFmDEwsmi6hrNaGM6L57LNe1jmNvUgPld+uhXXFbt5Vhdz9AMzfvkUxk/QxbpoXboW/Z/NRToCOJoeOp2JMl6iIAgATFf9czFdjAH4Fl32i3TBGrSQTjaCQlErdxvAvUl1GkSVi6ifO3PTKOqCHCXhf9VP0MWKfke7KLqGLrNCi8xJtGUIzhy6PplF+y10beEGf7OI7pq1draHM9Fb+HX8PIF5j/BItzpX6u3M71RCMb/wXXSJEm0QD+nSeXRxopJ30KUguoJbZ4S3Kby6q+qgm6vlqWOoA6usPBH+WbzRe+h6zhhunjOGiK6zQIRvDH+IrqFpxIOmNKmJOA1Vvb2eZqRtdLWs8wLz3nZq9d49H7jo9R104RzHTpsOYFbRhfz/88DFtCnqg8gbwU53x9V4SBcO/i7DXXzRka/pmhrzOgeYtzfgVUqllnUG1FwzM2BqDeQm30EX3qQd8PfQNxSPe3N7IEJcctqRf0gXdv8FFS3fBNy3Ktd2XbaRp20fMngVr8DggcHL195BF9l1fvgVmNiBa/DxwBaCGIgbJj+ka4XMsCj4/h7gUX/1WF9BrhYtC2ARlr5OJw1maCZn4wcK/A66RkguffgVzyShcBKXbzJWKPnfTUI9pAt3+PqjR23G+NrJMOpYlpmbFNQVAGD39dWQpyiqNajgb6ELvfp8eFc6SfHuhSIedlzY/Cd0NHA2NmqU71m6SOblidzp87gguvJFf24Br3Uyg0LVwzoJM4Oe5GBRyFvoIokhniMMMuop8fnFfyRpNyQi2EB5TBfOXPq8lQNk37rMEzQhrxr2K/O6mMI0Ru3vQ3p9d2hX7S10kb1AztJgLpSodcrJ9uSVyQcb6FYrEAlFRgau4sCB9tN0keMAS86U2tO1P88DLBu69NNiPHQeAJbL69fJyLNLVR2+7/otdLVhTcIMG9Snz9ZLInU5/SxTZQQLXCeEcOrHXgH5NP4TMM/TRZZN5oqE2sB+PvaTWODdYT3MT5b4JlCzrqSxPO0K7/oS3SRZ4z10EY1Qlt0NngDVZpCqS40Uil07lc71HRGLZp++aEXooQUTUiEV9QrXHtMFPFIlYnVnAf46fs51EOZ+46PNYd3PdVLY1d/NWcFklHKBt4rqw4vne+iiKwPXra9qtAchyOY8VUlr7VawIBV4xnRPz3yqcDTdzcy6usnb7tri37Z68HntosrhlP2MTAPDbUvPX+fL27rFJs/rzf5QFHrUPxp6/Cks3h22um+ii66Q3RTZdBUEs8mFqnMnpxU6FdzRcp+M54VFKgibKa5RIhtnP88uN4c+LtHq5Qt0tT5MpbbLA+zianqgunj53lkvMDks7+dQL5HeAO1ym/cu8AQ3vQ7OHv4llDfRBcBc6SDvvqSCDU90WKHGvO5ILDp6UIPKF7xAFxj1i8e7xczJi3VQ5Iuq4ZjtihTHxYdrWOZHvIibbjzRNGMaNTYz51egELxLu+j72lh0DvAG7NEeAqe2/4Baphic6Qz3K9o1Agdho3Dj/x8F0MBAXXCbypoc6dpEPx+vJ8tC1xiGD0LTt9E18g6CYwXKtZdMBDeBoNLeL7cVHVPp7pm/RFdlD1VBq5+7H7r9xbCbqjW/SUGPJv5Z13UfFdzoxwdf8z66OtXz9Ej0T0XCXnElIzorCna8w32nQ9f2v0jXaMU/Wlb82KVlsw2qhPpqmozpU5ZquPxJusSHXXsw0XD38l8mx4b1z6c2oBwyQmt/ryFgN6mSfoypoc1KDl1p886yuySBmJ0p9g/e7L1Ci5SKzm/tlBD+1aGy0a/w0aaF5ixrPNzcgIgbYTwht3b90mYFvaR+x2FbXc3tDTaKH+kiEztC2sW54prCD6vgdnCytz5Qa2drwRFZFc3PYxLdYHSpf4xzYDyIIHE2iGXlnC75h6e/CxNlOnz0t5IDN84OSVFUq9eXWt7+3t9UANuJWyPWHgUyMyIpZNXU4kZk+pO/dDtFXzz98csA4/riST3sGHYA72o1AkP+PcM/h13k52XEFgTLm+z+JlbZeiwvbZKQ+Hcg7Z6EhISEhISEhISEhISEhISEhISEhISEhISEhISEhMQfwv8AE/EnoX6y/X4AAAAASUVORK5CYII=;" vertex="1" parent="1">
                    <mxGeometry x="558.55" y="530" width="147.01" height="40" as="geometry"/>
                </mxCell>
                <mxCell id="g50Br0eVsBcSSy89ylNF-19" value="" style="shape=image;verticalLabelPosition=bottom;labelBackgroundColor=default;verticalAlign=top;aspect=fixed;imageAspect=0;image=data:image/png,iVBORw0KGgoAAAANSUhEUgAAAOcAAADaCAMAAABqzqVhAAABRFBMVEX/////3iwyfv//ZEYAAAD/Y0Emf///Z0b/sjemcaP39/dDQ0Ofn59ra2vp6ektfP/u7u4WFhZjY2NMTEyysrKEhIT5+fl7e3tTU1PQ0NDIyMj/3SP/3zj//vnX19fx8fFbW1v0+P8sLCyNjY29vb3/9MBycnIiIiLr8v///O7/5mrg4OAXFxc2NjYhISE7Ozvf6v//+dxTkf//4UeMtP9Hi//E2P+UlJTU4v9imv//41T/6Hr/+Nb/dVr/7p3/8bD/i0D/yjJwov//64v/6OP/r6HnZ1yxzP9bed6Xu//tZlX/ujX/dUT/7JH/5m3/kz7/1C//njxsoP//3tn/7tX/wrj/oI//j3r/gWqmxf//cFT/0Mesi7ZteNDHa31FfO6Bdb+2b47Yam6tcJiOdLTeaGbEbIH/qTn/fkL/cUR+q//j0twB1aRHAAANHklEQVR4nO2d+0PaShbHAQFvEVKegQTkLVJRREXEd6u43N5te+/q9qHdrr17u9u97v//+yYkM5kkEGZOAth2vj9pkgnzyTlz5sxJCD4fFxcXFxcXFxcXFxfXD6RKs9np9FV1Op1mhb5hZDAY3Nzc/P3kZGdn59nq7HroWpX+8GX34nB3Pxx4+vRpILy/e3jRvR32m9MaDm7eXr17/+H0bjkU+invL+wdbRxfnq/tPELYZv/2QgF8qisQUFADoz8V3Ifbiazi4OPV+9O7pVAotBRaWlpa/smvKK9Kwb08P3k2VwxnNYfdQxUxoPJZpeIGAofd3hjUwdt3pwrikiGNU1dese3G2drjQK30u7thzYSTpdp1t9s3DdfBRyuklVNjLRydLd6Dm8Prp9MgDdQLw6iDtx9CVshxnBrq5dpCSZu3qikpIBFq+HA4Ih1cnY6BnMCpohbeLI60MtylMyVJGjgcVlTKcZCTORVS//GCSHuHY+POVNT7f0ywpSPnyKY786fsdAOMttT16Z9LEykdOVXSsznH3pHLQijvn/ziQDmFU9HGyTydt/MQBlEGfnY0JgWnYtL5gfYOYcYMf/6LM+V0TkXHcxqlleE+zJj3T+6mYdJw5jdO5oL5Euaz4fvfp0HScfrze2uzx2x2QbZUh+ZUY1JyKqDnsx6kzQfQpKlg/osGk45TSRpmHI2aD7AIRItJyen3zzbszhyTmnOmoJUucD6hxqTn9BfOZ4b5Ejg273+nxWTgnF3UHQKToPAfy7SYDJwK6Gzm0R4wPQh8uaPGZOFUEoZZZEadQ6A1Pzln7nBOf/7S+1hUeQBakz4GMXP6/d7HIvjgZKBk5fR+iHZ2geb8/MsMOf35N94uvMFee8/ktcycfv+Zp5xD4MwZeMKGycyZP/Iy5jaBsTbAFGtB9vR7GXNvgeYM0ydCYM6Cd6GoA8wQlKmTERPA6eEk+hLotezmBHB6Z9AmdE5hNyeEM3/skUGHQMwAuzkhnF4ZFBxsf55axfSGM//aE84esIYQ+MKOCeP0Zg4Fp0JUBT4POL1J56GTSuATOyWQM7/hAecQRgmZVMD23HPvuPAM/t/z48y7d9zmPtCegMkTzul+Cu1BU1vWlYobTv+e62VoF+q2/5knZ95tjVMEJwmg4QnmdLvchs8q9DVbLzjdziw9YPkLlAzBOV0P0FvokuyP+XK6zeWhYSgMSfpccPrdBaLKBTTcAtYqbjhdBiL4mgyUJbjgdLc2m2cpwR2nu4yoA73b8JnhHpknnO4K8x1o1vcFhgnn3HDF2f9mOI9ccc45i3cxr7hbgvZAlJyTcyLOvy6Ic97jczGc4Hg7b06X8Xb+nC8WwgnOh6Ccf0I53eUJ4DufYM7fgJzu8lvoegXM+V8o56UbTPD6E8z5HIbpuhAGrCeAOf8G5HRZT4DWh8Cc0HTIbX0IWO+DcsLTBJf1PmDAhXK+egHDzG+4vMFSgQVcKOdzaLh1feseFoignNAw5Pr+iq83T84FrcpUwQYokPMVOBtyfV8Qdj8byAnOEjx4EAP0fAKQc1GzpyqQ48I4wbPKGy+efIOkuDDOX4HmdH2XdyRIxAVxLjDaqoLcYwFxwtdk3jywCcjlQZxfgeYsePRFM8B3OiCci41Cqtifp4ZwLmrpaYh9agFwgitgXj1O7VO/7zB7Tqg5vRqdqphHKDsnONh6aE72L7Awcy5Dg62336Rjrfsxc0IX2F6/YKDPFopYOeH1Eq9f1MPmuYyccK/1/LvoTSbPZeR8LF6rqs8Sc9k4wV7rvowwRiylXCZO+DMms3mxwC09KBPn4xmcmipd6ljEwgldXc/gy/a6lFhECcrA+esjikFInWvPOcGh9vVMX8xDaVFqzseJqYBeU4HScj5WTMV1qSxKyfkYxyZSs0sxvdBxAjHzhZm/Bk0VzYvtaDihSe1cXms3Um9/mu9ScL4CPzk9l9cUjtS5mJIxTOVcfv4CRll4Pc9XpjZvnU06jfPPr8CheTTvl/32r51M6swJN+bl/N89Xhk6vDXVkfPD19/yEEr/xmLe3NzpTnTeiZyh0OnV4ORyjxk07z86X9iL5Dsv98e/iXsCp0p5ozY8eV1gIlVsuThKjXR33Gw6ljO09OFqoLdb3bk88lOi5vOFjcX/KEBz+LAfsFrVxhkKLZ2+ezsg2q3unL/Zm46qHHB0uXhKVZX+8EL7CYvxnKFQaFmFFK0Nn+2cqagTWdUfs1AgF/+rB1hiZ9i93td+oGP0CwcaZ0jV0un7K5MlSa2enF9uFEa/z2EhVDYcHT+WH7Eg1ez0brvXu/v7++Fw+Mny8t3d6emH9+/efhxEHNutPttZOzveONrbK+ja2zs6evP6/GTn8UEiiZVOv6fofx8V3dhddZJWFdqTkzVNCuDq4/FVLi4uLi4uLi4uLi4uLi4uLi4uLi4uLi4uLi4uLi4uLi4urh9WYlxoKRLi1E8CfYuSoo1UNREMtqu5bLpo3VnTVF9I17xTKV1eDxKqxuqmB9ii+vbsojrojaRk0KZGizjgu+CMRNftmMHgVto45HvgjNTGUSraNEC/A05xEmYwmMCg3wFndCKmEo6KloO+Xc4iMTa3s9F0OprdMrbE9Kj7zXNGGkbciQqjBEEUogaprB32zXPWMVGZyA2KK2hrUsuNzJxivCVJgvkJcTGiafRPvChLArk3Em8V5aIQsWZaeiNRP6gotUrEIRGhKBXHZ2eRkqCcsFVyfkzd6F0MAa2Y+iVV9c2bko2zFR3lFImVGnFlxGxupLIy6xazauuqhPsk11Kj0ZHYbqTJWdlXKo8apTIKixDNtdVmDVkHKx6kNpUN68m0qWvqh0kHZTV1CyaquZpcouAstnWAddm8A0entJUzjW0dbNfimAVtlXzpKnmFfGK9TIa2rQOi14K+MRXx1Y3TZtUjIgdVvCFn7pwcS5BnzKWn5+MYJ2PZ0UKfkhXNnGnTZ5RRpw1OOWHyBCEbtGjF6DXizEXkNnFEsuSLmJpVCdBSzdQDfGGcJKJ8ry1Zd6E9uRLJmSlaPqQhWjix9TTOVjloUxtPy4izLFVNRxz4LJP6Nnb3UiNoVznuc1QJnT5nM70gadI+AHE2YtaPSJs5Exm0Y8QpjMFUdqFlD+a0dH47vWlpgv3tYNwJbe5oEbZOzfk4zLlu85lUycQZxIZROUWb02raapk5baetWltU9RYSsWnFOCohT+i4pjo6Lu14mDlp2solc0Q/6mZOrd9bW5vqUJBx/1NRqVVv4H91dxeINqlYbNuElkrGiJPqPUT+lMi0hHjcWGc5Gwp33zY8J3K2o+qVLWL3VMaSlTOWLgotqR73RbDXxrQBVMfJl2zhXFeDZvzAsGtV3SCmcQMNRED/69gl9Akpx9kFdT9hrR9M5MQxBI8TLTUkOKN47pbRJhwn0mhLxsyZqFvOqruJ0UDzACm5sr1VbQcbPssJ244hF512veV0FMl5gLbEEVgqbuYkPAgbHY8eMYXMFTdxJvX9LZRxxlAcz6EjkMEiiq/IuL/oUia85UwYDo5CzIqZc8v4wBLuoxHNsX1kEycKwCU04KKoAYrEyfGOiTvmyMnst8Y8hjdZOBtGoyKKVlFjWwuNwAMTJzptBMUZHBiRT9g4RTFerGfQeKXjpI5DKcG2ycJJMOFoS1QJsbtnTZw4raLiFKR0plHerhI5lDMn9qJp9UrMGbdtmsxZ1zdtEpNbBDlmA8op1rPm+YeCs2jyollxVglvEfF4A3IWx5Qmp3LG0QhK2lN+URecE3lLlVy/ueSUiGIHPSeeyNdtgeggpSlryuNB9iQXCdhvYyBOgUy7EuvbDbR4ceY05mVr3oRPqKUBIM4ZxCFjGVOuRevFEs53p3BKqCtVi0FxhIqaoJg4GeYVSk4BRaAVWU+6KDlxfmiZn1rohPpCAMRZQslP0qjimCM8KyeiMqxCyUkk6A3iyBYOakkXcQinTEYWhdO4qgDhrKO+2q7bNM44+mCFAdVZIukU3lg3Q7Fxom4Fk7Y8XkvLWTlRc1xexcdP4ySWiMFgrpaW5XTGoLTVqdk4jXWZVsERJ67LGO2ZQgMBu+NUzgmFCE22+w5snER1OBVVrqBRHbGusxnHZzAzatAywu90zrGFJU1tPCEAOYlqfzBBOA66fszxFk+fysyZSRI5w3ROn2CrbaG29vuCjJy+VmrMeQ0KF/Mn0jo1py8+/s5glZjeoZw+aWXMmaMoy3SXD6nKJuk5lfgwpjcxMnMAcxJTFBJxn9x1fptssXCqNzfMpIny+OcwiLsweOmtcaLEwsrpK0VNy6j1GlG7sHOiq2LjLOt5jERUhBMZAYd0Os7RzZ7y1qg63N5OHrQs65d6TFOtZN80uiBiTf93TCG1lG6sjIbR5pZyZtOeht4KuYkY1f5v4MwirR+BfV2sN7bVkLa5kpWIBjR3k9AZWpIsy1KR9tIwKF6U63VZmlaGopQw6ucMusnFxcXFxfVj6v/ZnwJXUO+7tAAAAABJRU5ErkJggg==;" vertex="1" parent="1">
                    <mxGeometry x="594.97" y="580" width="74.17" height="70" as="geometry"/>
                </mxCell>
                <mxCell id="g50Br0eVsBcSSy89ylNF-20" value="" style="shape=image;verticalLabelPosition=bottom;labelBackgroundColor=default;verticalAlign=top;aspect=fixed;imageAspect=0;image=data:image/png,iVBORw0KGgoAAAANSUhEUgAAASkAAACqCAMAAADGFElyAAAAYFBMVEX///9PxPlDwfk8wPnB6P3w+f7f8/7s+P5eyPmt4Py14/yd2/vG6f265fz3/P/P7f2R1/t70Pppy/qh3PuJ1Pvm9f7S7v2v4fxWxvnb8f2P1vt80foqvfif2/tnyvoku/j0iTpcAAAG7klEQVR4nO2c7aKyKhCFE8o+LPOrrF2n9/7v8qjMICiYtd1vnrPX8w/RwCUMMyO2WAAAAAAAAAAAAAAAAAAAAAAAAAAAAAAAAAAAAAAAAAAAAAAAAAAAAOA/T3wKw3Adf7ob82a9TDZCKkT2zxFyOVltN1KIoEUImS4/3av5Ed6kqVKrVo6BZbJOpUMmpZXMP927GZF7dWq0Co6f7uBMWG1c885EJp/u4yy49nQSNfaRB6zVYiltkeSmyMtyG90utolffbqjn8YSSojk3FbF+8IQS6w/18k5YAolgkO3Ot4a0/BXT0BTKFk6T4n0KZu/3Lk5YQglMp8hCvUpxV/t3JwwhBr0AzKagXL/A50IoyJvTeApL4r8+gPNfAtTqGE/PCWpxPSm6nAXVRjAru2+KgXi3rOXn8Ur1LmMkqg8m4dIKjG5B3q6qw7QI9ioZuYVl+/dQl2rSFkhb8YsuNCZU7sKOT2CnSqKGSplChXpoysrUpatlV/LnzHqX6QNPasZKuUWat+NlFsbXqqbkBO76rMfU26hdv2UgtxxpZp/Ysvl7STWfW3bqdkpdRw3oqxRtVd3ceGz79M4omW99t25kbkp5RZq7U5SaSNOxRMVUzGNVNfkFvFvzk0pt1CLzClUEGRUv21uQ3DMEwnxmLxr81LKI9TZl/dkt5DGXErnH6pZMyjVuUyKItqd2gPb+sDhNHDNpEqtl3nV4Fe0XQ416ccj1CL1CNUOKrLpVDrX3nS28BAnsskGVm7ZRd13LiQfOFgnBlKkvG5YStU1meWuH6u4KqUju42UDyMOOlTlTd5qUl64B1WTInndETx6Yr2VP5XOnkEizNKpvsAn1dHMAsosrsJs44CZQVUx5X3VV0rFBXdjPCybhVI0C6VK/bdLc6nKbBus9pqL3JmS14VaLP25dJ4MB2WoyHOPm18SabeFmt4qeuweYKloSsu+UuzrGvEDdbFZSWiA6yFHcRApF/af+90Kz94XqjLQfqXozLNSild0uhOHVP3x2f1xPRZDr1J8s9otoSdFagQdpQJLKdddaE9wDCcjH9UJdm9eobQRV33XneP8wlevmeLZu552mfArRU8ikDr63NCB+KlSB04TZbfilonGFLy2TBgDR3aqfD5CDQ0ANR+EbX37v0TzsjnXfsVjvvK5PVWKlhj9JOhUKg8qRZeyOTztHlK0Y3M+Sh15tGX76/FmNJmfrzut2lOl9sI6kxaUQIbPlbIKDefsteBrYPb5nYRns6+XXthRjarYslSiWcVili1+phQbG5429DsPSxm3Umz6w5fUsfgBi973E0gbDoMotcXOvV07pBRrrFpge74foZS+xyCNdsdp/c5BL4G64/QSHA4V3yEVKbHCAeN5tFJs79SVj8D61UGljAlS+50y276RLPJJNeR50uAY63mSUhxA0zNgc8baPFdKp/mihTYceq0fVGrZvRnxzs4K3wT0m/SBaMYZ+HWUIsvM172gFJvV+lKyDpzIeuJPbXo38eLa15Mqch624QxVJ0Kuh4o77zKZUtpRWOoa/WyHlYp7vq4nmnhLKt+g4nFT2lmXyvx4HtN0Sl2ppxs9hXWgayvTLye9LYbyjZXQLdXJPah06u5it5eKi8dFmU4pfnoyJHveeiSkjO6+7Ci1iA+3QErD130tnOHOO6Xq2cGmnsd3NzssfUJNqRQnzTiQaYcF+R6XTiN2yBKHx13C++jee1nplqp0vHHQoTwF67qcexfeCZXqmGZjpWUTpvrD/iy7MAvzKXIH+gHqGNwTsDeq9Ihix3vMW6wplbLWGXnuNVIZ6uX1vNVn8I2I0tCKZqblP47HParWD6tnD+3e8uuIMW9Gp1TKGlTmUtu+HzHjbu5e7UFl+bH5UuNU0Hnv7j/xvG0/po0VrF3b1NgyzIZiTGQwqVJmN60tzK7UDnePXo7Q5xqs6HhtOvh2cMT7PCmSfG9O9fSVqT6pUsag6nhvDqHoNmLn0rRbvM34XUH8/MbtCppWKW2pZGdX/LrnMPHcO9wdQn1rR8XYnWa8fUqOSxtOq5T2iHuRU2xtNxHGoDl1P2359ocao3Yvni7eTJSb/K7MAzeiincqhqr4Ryl1pUryvalkvboK/6iDjjcG15ukPUwysPdJxIdC8PamqjL69sYTa0eseyK3O2LfiDEnIVa4K6+HbZ6Xe9frvNW5rqsq30tQdbB3WfdnV4ld1gx27o/GfotZTepHkZe7Mi82tlX89UKN/MJo88unnmLEV2vvBZf/Q7b+JHpj6fElpGZ982qFr2s7eL/YjmChuuBfAF5gvUwy/LPEaPBvJQAAAAAAAAAAAAAAAAAAAAAAAAAAAAAAAAAAAAAAAAAAAAAAAAAAAPgI/wLko0WImb7HsgAAAABJRU5ErkJggg==;" vertex="1" parent="1">
                    <mxGeometry x="580" y="660" width="94.11" height="53.87" as="geometry"/>
                </mxCell>
            </root>
        </mxGraphModel>
    </diagram>
    <diagram id="J37nW5RzVPxbDCF3VNys" name="LLD-Diagram-2">
        <mxGraphModel dx="552" dy="763" grid="1" gridSize="10" guides="1" tooltips="1" connect="1" arrows="1" fold="1" page="1" pageScale="1" pageWidth="850" pageHeight="1100" math="0" shadow="0">
            <root>
                <mxCell id="0"/>
                <mxCell id="1" parent="0"/>
                <mxCell id="nP9jUNYThBp2zoXeLVzV-1" value="Frontend for chat" style="rounded=1;whiteSpace=wrap;html=1;" vertex="1" parent="1">
                    <mxGeometry x="200" y="80" width="330" height="150" as="geometry"/>
                </mxCell>
                <mxCell id="-dYDOpwJvzl29sGcq1Cb-1" style="edgeStyle=none;html=1;exitX=0.5;exitY=1;exitDx=0;exitDy=0;" edge="1" parent="1" target="-dYDOpwJvzl29sGcq1Cb-3">
                    <mxGeometry relative="1" as="geometry">
                        <mxPoint x="360" y="230" as="sourcePoint"/>
                    </mxGeometry>
                </mxCell>
                <mxCell id="-dYDOpwJvzl29sGcq1Cb-2" style="edgeStyle=none;html=1;exitX=0.5;exitY=1;exitDx=0;exitDy=0;" edge="1" parent="1" source="-dYDOpwJvzl29sGcq1Cb-3" target="-dYDOpwJvzl29sGcq1Cb-4">
                    <mxGeometry relative="1" as="geometry"/>
                </mxCell>
                <mxCell id="-dYDOpwJvzl29sGcq1Cb-3" value="OpenAI&lt;br&gt;Embeddings" style="rounded=1;whiteSpace=wrap;html=1;" vertex="1" parent="1">
                    <mxGeometry x="300" y="330" width="120" height="60" as="geometry"/>
                </mxCell>
                <mxCell id="-dYDOpwJvzl29sGcq1Cb-11" style="edgeStyle=none;html=1;exitX=1;exitY=0.5;exitDx=0;exitDy=0;entryX=0;entryY=0.5;entryDx=0;entryDy=0;" edge="1" parent="1" source="-dYDOpwJvzl29sGcq1Cb-4" target="-dYDOpwJvzl29sGcq1Cb-8">
                    <mxGeometry relative="1" as="geometry"/>
                </mxCell>
                <mxCell id="-dYDOpwJvzl29sGcq1Cb-4" value="" style="shape=image;verticalLabelPosition=bottom;labelBackgroundColor=default;verticalAlign=top;aspect=fixed;imageAspect=0;image=data:image/jpeg,/9j/4AAQSkZJRgABAQAAAQABAAD/2wCEAAkGBxEQEBIQEBAVFRIWDQ8PDg8PDhAWFRANFREWFhURFRMgHSggJBolHhUVIT0hJSkrLi4uFx8zODMsNygxLi0BCgoKDg0NDg0PEC0ZFRkrKysrKysrKysrKy0rKzcrKysrKystKysrKysrKysrKysrKysrKysrKysrKysrKysrK//AABEIAMgAyAMBIgACEQEDEQH/xAAcAAEAAwEBAQEBAAAAAAAAAAAABQcIBgQDAQL/xABIEAABAwIBBQkJDwQDAQAAAAABAAIDBBEFBgcSITETMkFRYXGBkaEzNXJ0krGys8EXIiNCQ0RSVGJzlKLR0vAUgpPCU1WDFf/EABUBAQEAAAAAAAAAAAAAAAAAAAAB/8QAFxEBAQEBAAAAAAAAAAAAAAAAABEBIf/aAAwDAQACEQMRAD8AuxERAREQEREBERAREQEREBERAREQEREBERAREQEREBERAREQEREBEXzqahkbHPkeGMa3Sc97g1rRxknYg+iKq8p88cMRLKCLdnbN3ku2Icw3zuwKtcay6xKrvutU8MPyUB3Jmj9GzdZ6SUGjsRxylpr7vUxR8kkzGnqvdc3W50sJi2VJkPFDBK4ddgFnJx13O3jO09K9tFhFTP3Gmmk5Y4JXDrARYumoz00I3kFS/lLIm+dy8L898PxaGQ89REPMCq9ps3+KybKCUfeaDPSIXvZmqxc/NmDwqmH2Eocdf7t7P+vd+Kb+1fRme+H41DIOaoiPnAXH+5Ni3/FF+KYv4fmqxcfNmHwamH2kIcWDT56aE7+CpZyhkTvM5S9FnSwmXbUmM8U0Ere2xCpipzf4rHtoJT93oP8ARJUNW4RUwd2ppo+WSCVo6yEI1Jh2OUtRbcKmKTkjmY49V7qQWPmnXcbeMHWOldHguXWJUlhFVPLB8nOd1Zb6Nnax0EIjTyKq8mM8cMpEdfFuLtm7x3dEecb5vaFaFNUMkY18b2vY5uk17HBzXDjBG1B9EREBERAREQEREBERAc4AXOy1yTsAWb842W0mJTuZG4ikY8iGMGwlt8s/jJ4BwDlV85YPLcOrXA2IoakgjgO5FZUtq6NSLiYydybq8QkLKaIvsRpyE2ZH4TzqHNt5FauAZmIGWdWzuldtMcHvGD7Onvj2Lrs3VTRvoIBRaIY2NokjG/ZPb3+6faJub8PBqXToiFwvJKgpe4UcTT9Mxhz/AC3XKmh/AERAsiIgIiIFkP8AAURBC4pklQVXd6OJx+mIw1/ltsVwmPZmIH3dRTuidtEc/wAIw/Z098O1WqiDKuUeTdXh8mhUxFlydCQG7JPBfsPNt5FNZuctpMNnax7iaR7wJoybiK/yzOIjhHCOVXTnFqaNlBOK3RLHRuEcfx3z295uf2gbG/Bw6lmTg6NaK2C1wIuNlrgg6iF+qIyPeXYdROJuTQ0xJPD8EFLogiIgIiICIiAiIghstO9td4hU+rKyutUZad7a7xCp9WVlZ2w+CUXHuwjF6ikk3ammdG/Zdh1OHE9uxw5CrOwDPQ9oDa2n0+AzU50Xc5jdq6iOZTeLZqKOriZLATTSmKNx0BpROfoDWY+DoI5lXuNZr8TpiS2ETs+nTP0j/jNnedBcWF5x8LqLWq2xuPxKgGIjpOrtXS0tXHKLxSMeOON7XDsKyTV0skLtGWN8buFsjHNPUQvnE8tN2EtPGwuaesIRsBft1lKmymro+51tQ3kFTLbtK90eXuKN2YhN0uY7zhCNPXX7dZl90TFvr0nkw/tXyky9xR23EJuhzG+YIRp5fGpq44heSRjBtvI9rR2lZZqcpq6TulbUO5DUy27CouV5cbvJdyvcXHrKEaUxXOPhdPcGrbI4fEpwZSekau1cJj+eh5u2hp9HgEtQbuHKI26uslVVSUskztGKN8juBsbHOPULrr8FzX4nUkF0IgZ9Opfon/GLu8yDmMXxeoq5DNUzOkfsu86mjiYNjRyBeJXthOaijpY3yzk1Moikc3TboxMfoHWI+HpJ5lRDdg8EINU5F97aHxCm9WFMqGyL720PiFN6sKZRBERAREQEREBERBDZad7a7xCp9WVlZ2w+CfRWqctO9td4hU+rKyui41xhvcYvuYvQC9KpnIHOq2KNlLiF9FrQyOraNKzBqAlYNeofGF+UcKt3D8QhqGCSCVkjDsfG8OHZsRH1qKdkjdGRjXt4pGBw6ioGtyEwuY3fQw34TGzQP5SF0SIOEqM0mFP2RSs+7qX+268UmZjDjslqR/6xHzxqyEQVn7itD9YqfKh/YvpHmYw4bZqk/wDrEPNGrIRBwtPmlwpm2KV/3lTL7LKYoshMLhN2UMN+AyM0z+YldEiD509OyMaMbGsbxRsa0dQX0RebEMQhp2GSeVkbBtfI8NHbtQMS7jL9zL6BWRm7B4IVuZfZ1WyxvpcPvouaWSVbho3YdRETDr1j4xtyDhVSIuNUZF97aHxCm9WFMqGyL720PiFN6sKZRBERAREQEREBERBDZad7a7xCp9WVlYnzLVOWne2u8QqfVlZWdsPglFxM47kxV0QDqiBwjc0OZO0aUbmkXHvxsPIbFR9BXTQO04JXxv8ApxPc09m1auoIw6njDgCDBGHAi4I0BtC5nGs2eGVV3f0+5PJuX0ztz1+BvexCqowvOtikNg+Rk4Gq08Q0vLbYrp6HPdq+Hoecw1HscPav4xLMk7bTVoPE2oht+dp9i5urzTYrHvY4pRxxTs1/2ushxYNPnmw47+KoYeG8THDscvdHnZwk/LSDkNNL7AqYqMhcUZvsPn52Ma70SV4pcm65u+oqkc9LN+iIvn3VMI+su/DVH7V8pM7OEj5aQ8gppfaFQ3/w6v6pP+Gm/RfWLJuudvaKpPNSzfohFzVGebDhvIqh54LRMaO1yha7Pdq+AoeYzVHsaPauAp8hcUfvcPn53sa30iFMUmabFZN9HFEOOWdmr+1t0XhimdbE5rhkjIAdVoIhpeW65XHV9fLUO3SeV8j/AKcr3OPbsVq4bmSdtqa0DjbTw3/O4+xdngubPDKWztw3V4Nw+pdumvwN72IKHwLJirrQXQQOMYaXPncNGNoAuffnaeQXKhgfMtb17A2nkDQABBIGgCwA0DsCyQ3YPBCDVORfe2h8QpvVhTKhsi+9tD4hTerCmUQREQEREBERAREQQ2Wne2u8QqfVlZWI1dFlqnLTvbXeIVPqysrouNVZKYvDV0kUsLw5u5MY4X98yQNALHDgIKl1k/A8dqaKTdaWV0btjgNbZBxOYdThzq08Az0NsG11MQdhmpjpA8pjdrHQShFuoucwvLvDam251sQd9CV25P8AJfZdDHIHC7SHDgLTcHpCI/qy/f5tX4iBf+XX7/Nq/EQLIi/mSQNF3ENHCXGwHSUH9IucxTLvDaa+6VkRd9CI7q/yWXXC4/nobYtoaYk8E1SdEDlEbTc9JCCxcq8XhpKSWWd4a3cnsaL++fIQQGNHCSVlUDV0KSxzHamuk3WqldI7Y0bGxjiYwagFHIrVGRfe2h8QpvVhTKhsi+9tD4hTerCmUQREQEREBERAREQQ2Wne2u8QqfVlZWdsPglapy07213iFT6srKzth8E+ii4u/GM0dNUxMlpJDTyOijc5hBfC4lg4Nreg25FXuNZucTpbk0xlYPlKY7oNHwR74dS0ZhvcIvuYvQC9KJWP5mFh0XgtN7Fr2uaR0FfWmqpIjeOR7OWOR7fMVrKsw6GcWnhjkHFLGx3nC5yszb4TLe9ExpPDC6WP0TZFqiKfLPEo95X1HMZnOH5rr3RZysXb89cfCihd/qrTnzOYa7euqGcQbUAj8zSvA/MnScFXOOiE+xDjgPdRxf62Pw1P+1fKXOVi7vnrh4MULf8AVWB7iVP9dm/xQr6MzJ0nDVznohHsQ4q2oyzxKTf19RzCZzR+Wyh6mqklN5JHv5ZJHu85V8wZnMNbvnVD+MOqAB+VoUtR5t8JitaiY4jhmdLJ6RsgzXCwvOixpcb2DWN0iegLqsFzc4nVWLaYxMPylSdzGj4J98epaNosOhgFoYY4xxRRsb5gvShVWYRmjpqaJ8tXIaiRsUjmxgaETSGE7NrtfGbcipBuzoWucT7hL9zL6BWRm7B4IQxqnIvvbQ+IU3qwplQ2Rfe2h8QpvVhTKIIiICIiAiIgIiIIbLTvbXeIVPqysr/otUZad7a7xCp9WVla/mRcXJkBnUjEbKbEDoFrQxlWA4texupu6gawftbDw2Vs0tVHKwPie17CLtfG4Fp6Qsq41gFVRkf1MLmBzQ5klrxvBFxZ41Hm2r5YXi1RSu06aeSI7SY3uaDzjYekINaIs/4XnfxGLVKIpxxyM0H+W3V2Lp6HPbCe7UUjeMwzMeOo6JRItlFwFPnewt2+MzOR9M4+iSvfHnPwg/PLcjoKgf6oOwRcp7pOEfXmeRN+1fKTOfhA+eX5GwVB/wBUHYIuAqM72Ft3pmfyMpnD0iFC12e2EaoaKR3EZpWMHUNIoLZXyqqqOJhkle1jALufI4NaOkqhMUzv4jLqiEUA442ab/Ldq7FxeKYtUVTtOpnklPAZHucBzDYOgILWy/zqRmN9Nh50i9pY+rtZrWnU4RA6yftbBwXVOfopLBcAqqwn+mhc8NaXPktaNgAudN51Dm2qMv5kVqnIvvbQ+IU3qwplQ2Rfe2h8QpvVhTKIIiICIiAiIgIiIIbLTvbXeIVPqysrO2HwStV5YMLsOrWgXJoakADhO5FZUOz+3V5KLjWtJAySnjZIxr2GCMOY9oc13vBtB1LksZzU4bUXcyN1O8670z7N0vuzcdVl0uTGJRVVJDNC8OYYo23G1rwwAsI4CDwKVRFJYlmVqG3NPVxvHAJmPjd1i4XOVmbDFo/moeOOGaJ3YSD2LSCIVleoySxGPf0FSBx/073DrAK8L8LqG76nmHPTyj2LWyfzai1kX+jl/wCKT/E/9F9GYXUO3tPMeanlPsWtv5tT+bUKyvT5JYjJvKCpI4/6d7R1kBTFHmvxaT5qGDjmmib2Ak9i0giFUlhuZWodY1NXGwcIhY+R3WbBdnguanDaeznxuqHjhqX3bpfdiw67rukRHiqoGR08jWNaxggkDWMaGtb7w7ANSyU3YPBC1blPiUVLSTTTPDWCKRtztc8sIDAOEk8CykNQ/t19SLjVORfe2h8QpvVhTKiMj2FuHUTSLEUNMCDwfBBS6IIiICIiAiIgIiIDmgix2WsQdhCzfnGyJkw2dz42k0j3kwyAXEV/kX8RHAeEcq0gvnU07JGOZIxr2ObouY9oc1w4iDtQZZycylqsPkL6WUsuffxkXZJ4bDqPPqPKrVwHPPA+za2B0Tthkg+EYftaG+Hav3KfM5DKS+gl3B23cJbui6Dvm9oVa41kLiVJcy0rywfKwDdWaPHdusdICK0JheVtBVdwrInHgYZA1/kOsVND+ELHzhrsdvEdo6F7aLF6mDuNTNHyRzytHUChGtLosyU2cDFY9lfKfvNB/pAr3szq4uPnLD4VND7AESNGIs7e6zi3/LF+FYv4fnVxc/OWDwaaH2goRoy6H+ErMlTnAxWTbXyj7vQZ6IChq3F6mfu1TNJySTyuHUSixprFMraCl7vWRNP0BIHP8htyuEx7PPAy7aKB0rtgkn+DYPtaG+PYqTaNdht4gNZ6F0eC5C4lV2MVK9rD8rONyZo8d3az0AoPHlHlJVYhIH1MpfY+8jAsyPwGDUOfbyqazc5EyYlO18jSKRjwZpCLCW3yLOMnhPAOVd5kxmchiIfXy7s7buEV2xDnO+d2BWhTU7I2NZGxrGNbotYxoa1o4gBsRH9taALDZawAGoBfqIgIiICIiAiIgIiICIiAiIgj8SwKlqQd3popOWSFjj12uubrM1uEy7KYxnjhnlaOq5C7REFaVGZahO8nqWchfE7ztXhfmRi+LXyjnp4j5iFbKIKi9xBn/YO/Ct/cvozMjF8avlPNTxDzkq2UQqtKfMtQjfz1L+QPib5mqXos1uEx7aYyHjmnld2XAXaIgj8NwOlpgNwpoozxxwsaeu11IIiAiIgIiICIiAiIgIiICIiAiIgIiICIiAiIgIiICIiAiIgIiICIiAiIgIiIP//Z;" vertex="1" parent="1">
                    <mxGeometry x="314.95" y="497.94" width="94.11" height="94.11" as="geometry"/>
                </mxCell>
                <mxCell id="-dYDOpwJvzl29sGcq1Cb-5" value="[-0.32, 2.1, 5.6, ... , 0.08]" style="text;html=1;strokeColor=none;fillColor=none;align=center;verticalAlign=middle;whiteSpace=wrap;rounded=0;" vertex="1" parent="1">
                    <mxGeometry x="425" y="370" width="140" height="30" as="geometry"/>
                </mxCell>
                <mxCell id="-dYDOpwJvzl29sGcq1Cb-6" value="Todaym Tata Motors&amp;nbsp;&lt;br&gt;respots Q3..." style="text;html=1;strokeColor=none;fillColor=none;align=center;verticalAlign=middle;whiteSpace=wrap;rounded=0;" vertex="1" parent="1">
                    <mxGeometry x="365" y="260" width="120" height="30" as="geometry"/>
                </mxCell>
                <mxCell id="-dYDOpwJvzl29sGcq1Cb-7" value="Vector Database" style="text;html=1;strokeColor=none;fillColor=none;align=center;verticalAlign=middle;whiteSpace=wrap;rounded=0;" vertex="1" parent="1">
                    <mxGeometry x="570" y="283" width="115" height="30" as="geometry"/>
                </mxCell>
                <mxCell id="-dYDOpwJvzl29sGcq1Cb-17" style="edgeStyle=none;html=1;exitX=0.5;exitY=1;exitDx=0;exitDy=0;entryX=0.5;entryY=0;entryDx=0;entryDy=0;" edge="1" parent="1" source="-dYDOpwJvzl29sGcq1Cb-8" target="-dYDOpwJvzl29sGcq1Cb-16">
                    <mxGeometry relative="1" as="geometry"/>
                </mxCell>
                <mxCell id="-dYDOpwJvzl29sGcq1Cb-8" value="" style="rounded=1;whiteSpace=wrap;html=1;" vertex="1" parent="1">
                    <mxGeometry x="549" y="470" width="211" height="150" as="geometry"/>
                </mxCell>
                <mxCell id="-dYDOpwJvzl29sGcq1Cb-9" value="Prompt" style="text;html=1;strokeColor=none;fillColor=none;align=center;verticalAlign=middle;whiteSpace=wrap;rounded=0;" vertex="1" parent="1">
                    <mxGeometry x="624.5" y="440" width="60" height="30" as="geometry"/>
                </mxCell>
                <mxCell id="-dYDOpwJvzl29sGcq1Cb-10" value="What was q3, 2023 eps based on the below docs..." style="text;html=1;strokeColor=none;fillColor=none;align=center;verticalAlign=middle;whiteSpace=wrap;rounded=0;" vertex="1" parent="1">
                    <mxGeometry x="559" y="500" width="191" height="30" as="geometry"/>
                </mxCell>
                <mxCell id="-dYDOpwJvzl29sGcq1Cb-12" value="Chunk 1" style="rounded=0;whiteSpace=wrap;html=1;" vertex="1" parent="1">
                    <mxGeometry x="440" y="480" width="70" height="20" as="geometry"/>
                </mxCell>
                <mxCell id="-dYDOpwJvzl29sGcq1Cb-13" value="Chunk 2" style="rounded=0;whiteSpace=wrap;html=1;" vertex="1" parent="1">
                    <mxGeometry x="440" y="510" width="70" height="20" as="geometry"/>
                </mxCell>
                <mxCell id="-dYDOpwJvzl29sGcq1Cb-14" value="Chunk 1" style="rounded=0;whiteSpace=wrap;html=1;" vertex="1" parent="1">
                    <mxGeometry x="619.5" y="550" width="70" height="20" as="geometry"/>
                </mxCell>
                <mxCell id="-dYDOpwJvzl29sGcq1Cb-15" value="Chunk 2" style="rounded=0;whiteSpace=wrap;html=1;" vertex="1" parent="1">
                    <mxGeometry x="619.5" y="580" width="70" height="20" as="geometry"/>
                </mxCell>
                <mxCell id="-dYDOpwJvzl29sGcq1Cb-19" style="edgeStyle=none;html=1;exitX=0.5;exitY=1;exitDx=0;exitDy=0;entryX=0.5;entryY=0;entryDx=0;entryDy=0;" edge="1" parent="1" source="-dYDOpwJvzl29sGcq1Cb-16" target="-dYDOpwJvzl29sGcq1Cb-18">
                    <mxGeometry relative="1" as="geometry"/>
                </mxCell>
                <mxCell id="-dYDOpwJvzl29sGcq1Cb-16" value="OpenAI" style="rounded=1;whiteSpace=wrap;html=1;" vertex="1" parent="1">
                    <mxGeometry x="594.5" y="670" width="120" height="60" as="geometry"/>
                </mxCell>
                <mxCell id="-dYDOpwJvzl29sGcq1Cb-18" value="Answer" style="rounded=1;whiteSpace=wrap;html=1;" vertex="1" parent="1">
                    <mxGeometry x="595" y="800" width="120" height="60" as="geometry"/>
                </mxCell>
            </root>
        </mxGraphModel>
    </diagram>
</mxfile>